<?xml version="1.0" standalone="no"?>
<!DOCTYPE svg PUBLIC "-//W3C//DTD SVG 1.1//EN" "http://www.w3.org/Graphics/SVG/1.1/DTD/svg11.dtd" >
<svg xmlns="http://www.w3.org/2000/svg">
<metadata></metadata>
<defs>
<font id="franklingothicbookcmpcregular" horiz-adv-x="916" >
<font-face units-per-em="2048" ascent="1649" descent="-399" />
<missing-glyph horiz-adv-x="486" />
<glyph horiz-adv-x="0" />
<glyph horiz-adv-x="682" />
<glyph unicode=" "  horiz-adv-x="486" />
<glyph unicode="&#x09;" horiz-adv-x="486" />
<glyph unicode="&#xa0;" horiz-adv-x="486" />
<glyph unicode="!" horiz-adv-x="594" d="M203 1433h190l-50 -1076h-94zM207 0v227h178v-227h-178z" />
<glyph unicode="&#x22;" horiz-adv-x="925" d="M243 1433h148l-17 -556h-115zM534 1433h149l-17 -556h-114z" />
<glyph unicode="#" d="M2 458l18 116h193l50 315h-192l19 122h195l66 422h127l-69 -422h193l66 422h128l-69 -422h188l-18 -122h-187l-50 -315h186l-19 -116h-185l-74 -458h-127l71 458h-189l-72 -458h-128l74 458h-195zM343 576l187 -2l52 315h-189z" />
<glyph unicode="$" d="M88 361l131 48q5 -23 11.5 -44.5t17.5 -47t27 -47.5t36.5 -41.5t49 -33.5t61.5 -20v506q-71 29 -118.5 57t-86.5 70t-57 99.5t-18 134.5q0 45 8 89t28.5 90t51 83t80.5 65t112 39v142h100v-140q125 -20 197.5 -83.5t103.5 -184.5l-125 -46q-65 172 -176 186v-469 q69 -29 112 -52t84.5 -55t64 -68.5t35.5 -87.5t13 -118q0 -89 -26.5 -162t-70.5 -120t-98.5 -73.5t-113.5 -30.5v-184h-100v182q-136 6 -215 87.5t-119 229.5zM285 1070q0 -88 32.5 -137t104.5 -87v436q-31 -4 -55 -18.5t-38 -36t-24 -43t-14 -46.5t-5 -40t-1 -28zM522 173 q77 9 123.5 77.5t46.5 167.5q0 62 -19 105t-54 71t-97 56v-477z" />
<glyph unicode="%" horiz-adv-x="1465" d="M54 1009q0 76 6 136t23 119t44.5 98t74.5 63t109 24q44 0 81 -13t70.5 -45.5t57 -82t37 -126t13.5 -173.5q0 -449 -259 -449q-257 0 -257 449zM182 1024q0 -94 7 -162t18.5 -106.5t29.5 -60.5t35.5 -28.5t40.5 -6.5q19 0 34.5 5t33.5 24t30.5 50.5t21 90t8.5 137.5 q0 75 -5.5 135t-13.5 99t-20.5 67.5t-24 43.5t-27 23.5t-26 10t-23.5 1.5q-21 0 -37 -6.5t-32.5 -27t-27 -55t-16.5 -94t-6 -140.5zM365 0l615 1433h119l-615 -1433h-119zM895 435q0 109 16 191t40.5 128.5t60.5 74.5t69 37t72 9q18 0 33.5 -1.5t43.5 -11t50.5 -25.5 t48 -49.5t43 -78t29 -115.5t11.5 -159q0 -449 -259 -449q-44 0 -81 13.5t-70.5 46t-56.5 83t-36.5 128t-13.5 178.5zM1026 451q0 -142 15.5 -224t42.5 -111.5t72 -29.5q34 0 60 24.5t39.5 63.5t19.5 77t7 74v68q-1 78 -6 139.5t-12 101t-19 67.5t-22 42t-26 21t-25.5 8 t-27.5 1q-22 0 -37 -5t-31.5 -23.5t-26.5 -52.5t-16.5 -94.5t-6.5 -146.5z" />
<glyph unicode="&#x26;" horiz-adv-x="991" d="M67 397q0 143 68 255.5t186 176.5q-100 202 -100 333q0 36 8 75t27.5 79.5t47 72t71.5 52t97 20.5q32 0 63 -6.5t67.5 -26.5t63.5 -52t45 -88.5t18 -129.5q0 -71 -20.5 -132.5t-56.5 -107t-72.5 -76.5t-80.5 -57q104 -222 142 -298t78 -150q16 28 28.5 55.5t24 63t22 82 t21 106.5t22.5 141l126 -33q-8 -138 -50.5 -281t-120.5 -266q20 -35 58 -55t69 -20q34 0 61 10v-140q-46 -18 -101 -18q-15 0 -25.5 0.5t-33 6t-40 15.5t-40 31t-40.5 51q-45 -54 -124 -84t-150 -30q-49 0 -97 13.5t-96 45t-84 78.5t-59 121.5t-23 166.5zM223 399 q0 -51 9 -94.5t25 -75t36.5 -56t45 -39.5t49.5 -22.5t51 -7.5q31 0 65.5 11.5t66.5 32.5t59 49q-32 64 -63 125t-49.5 97.5t-38.5 76t-35 70t-32.5 69t-37.5 84.5q-85 -83 -118 -149.5t-33 -170.5zM367 1172q0 -23 1 -38t1 -28t4 -27t6 -23t10.5 -29.5t13.5 -32t19.5 -44.5 t24.5 -55q77 52 112 116t35 149q0 33 -5 61.5t-17 55.5t-35 42.5t-55 15.5q-54 0 -84.5 -46.5t-30.5 -116.5z" />
<glyph unicode="'" horiz-adv-x="592" d="M223 1433h146l-16 -556h-112z" />
<glyph unicode="(" horiz-adv-x="550" d="M100 537q0 463 267 896h122q-62 -108 -107 -229t-67 -215t-34.5 -196t-15 -153t-2.5 -103q0 -258 54.5 -463t171.5 -433h-122q-137 224 -202 442t-65 454z" />
<glyph unicode=")" horiz-adv-x="550" d="M62 -359q120 211 173.5 441t53.5 455q0 496 -227 896h124q96 -172 150.5 -303t84.5 -277.5t30 -315.5q0 -467 -265 -896h-124z" />
<glyph unicode="*" horiz-adv-x="921" d="M144 951l228 108l-226 103l65 114l203 -138l-15 295h125l-16 -299l202 142l65 -114l-223 -103l225 -108l-63 -114l-206 138l16 -300h-125l15 300l-205 -136z" />
<glyph unicode="+" d="M82 652v129h309v313h137v-313h307v-129h-307v-313h-137v313h-309z" />
<glyph unicode="," horiz-adv-x="442" d="M104 -267l101 267h-73v232h183v-232l-118 -267h-93z" />
<glyph unicode="-" horiz-adv-x="515" d="M75 474v132h366v-132h-366z" />
<glyph unicode="." horiz-adv-x="442" d="M128 0v232h187v-232h-187z" />
<glyph unicode="/" horiz-adv-x="841" d="M10 -359l618 1792h128l-618 -1792h-128z" />
<glyph unicode="0" horiz-adv-x="919" d="M67 725q0 90 5.5 168t18 154t32 137t50.5 113.5t70.5 88t94 55.5t120.5 20q69 0 127 -25.5t98 -67.5t70.5 -102.5t49 -124.5t30 -139t16 -141t4.5 -136q0 -170 -21 -301.5t-56 -215.5t-86 -138t-107 -76t-123 -22q-393 0 -393 753zM231 785q1 -23 1 -33 q0 -343 51.5 -495.5t178.5 -152.5q39 0 70.5 14.5t61 52t49.5 98.5t32 159t12 228q0 52 -0.5 92.5t-3 98t-7.5 101.5t-14 96.5t-21 91t-31 77t-42.5 62.5t-55 39t-69.5 15q-32 0 -58.5 -9.5t-46 -27t-35.5 -42t-27 -54t-19.5 -62.5t-12.5 -68.5t-7.5 -72t-4 -72.5t-1 -70.5 t-0.5 -65.5z" />
<glyph unicode="1" horiz-adv-x="923" d="M190 1001v161q64 33 121 90q78 76 111 115.5t52 79.5h120v-1319h213v-128h-604v128h227v1082q-44 -70 -102 -118q-45 -40 -138 -91z" />
<glyph unicode="2" horiz-adv-x="919" d="M80 0v153l86 86l68.5 68.5t43.5 44t39 41.5q155 168 247 332q86 157 86 309q0 64 -16.5 126.5t-51.5 101.5q-51 58 -133 58q-92 0 -146 -66q-38 -46 -57.5 -118.5t-24.5 -130.5l-141 39q6 92 43.5 183.5t97.5 147.5q94 86 241 86q145 0 242 -97q111 -111 111 -313 q0 -104 -25.5 -190t-81.5 -186q-40 -71 -86 -134t-74.5 -95t-78.5 -85q-10 -9 -14 -14t-13 -14q-39 -41 -59.5 -62t-55 -52.5t-76.5 -65.5h564v-153h-735z" />
<glyph unicode="3" horiz-adv-x="919" d="M67 319l138 42q3 -60 30.5 -118t71.5 -88q27 -19 70.5 -30.5t80.5 -11.5q102 0 166 79q27 32 42 77.5t18 71.5t3 48q0 110 -57 187q-13 19 -27 33.5t-38.5 31.5t-61.5 26.5t-83 9.5h-103v140h109q49 0 89.5 13t54 22.5t22.5 18.5q32 32 45 88.5t13 112.5t-14.5 107 t-41.5 83q-50 58 -141 58q-80 0 -132 -48q-29 -28 -52.5 -77t-32.5 -101l-132 38q12 77 48.5 147.5t94.5 113.5q31 24 68 39t71.5 20.5t50.5 7t29 1.5q50 0 96.5 -13.5t83 -35t64.5 -50.5q49 -53 76 -132t27 -154q0 -124 -57 -213q-55 -85 -146 -105q96 -25 161 -102 q82 -106 82 -259q0 -93 -30.5 -173t-80.5 -132q-56 -57 -138 -88.5t-161 -31.5q-58 0 -118.5 17t-103.5 47q-41 27 -72 66t-47 80t-24 73.5t-11 63.5z" />
<glyph unicode="4" d="M86 349v129l453 983h196v-983h152v-129h-152v-349h-159v349h-490zM232 478h344l10 836z" />
<glyph unicode="5" horiz-adv-x="919" d="M88 309l133 44q13 -53 41 -111.5t61 -84.5q24 -19 61.5 -31.5t68.5 -12.5q109 0 171 98q57 89 57 255q0 182 -55 267q-55 88 -152 88q-22 0 -44 -4.5t-41.5 -13t-36.5 -20t-29 -25.5q-18 -19 -70 -130l-121 30l31 775h614l-10 -151h-470l-18 -457q31 56 74 90 q59 48 146 48q154 0 241 -104q106 -126 106 -385t-123 -388q-50 -54 -122.5 -84t-151.5 -30q-58 0 -114 18t-97 48q-61 44 -98.5 119t-51.5 152z" />
<glyph unicode="6" d="M86 664q0 467 148 658q110 139 280 139q62 0 115.5 -22.5t91.5 -57.5q27 -24 50 -59t39 -73t25 -79l-135 -48q-30 98 -54 132q-50 66 -142 66q-40 0 -73 -13.5t-53.5 -32.5t-37.5 -47.5t-25 -48.5t-16 -46q-29 -94 -44.5 -206t-13.5 -210q8 24 19.5 50t29.5 55t35 46 q32 32 82 50.5t105 18.5q133 0 230 -107q36 -41 59.5 -89t34 -98.5t14 -89t3.5 -84.5q0 -257 -124 -390q-30 -32 -67.5 -55t-85.5 -37t-100 -14q-95 0 -166.5 47t-117.5 119q-106 159 -106 526zM269 458q0 -77 17 -148t51 -116q57 -81 152 -81q32 0 62.5 11.5t53 30.5 t39.5 44q28 43 40 119t12 144q0 175 -63 267q-20 29 -43.5 46t-46.5 23t-52 6q-94 0 -152 -83q-23 -33 -39 -78.5t-23.5 -92t-7.5 -92.5z" />
<glyph unicode="7" horiz-adv-x="921" d="M132 1280l12 153h685v-109q-86 -148 -121 -217q-51 -106 -102 -264t-80 -283q-72 -308 -58 -560h-167q-2 118 17.5 266.5t50.5 283.5q35 153 80.5 276t114.5 258q64 122 119 196h-551z" />
<glyph unicode="8" d="M56 359q0 71 26 143t73 126q61 67 160 120q-28 12 -52 29t-43 37.5t-38 48.5q-38 55 -54.5 104.5t-16.5 110.5q0 92 31 169.5t83 125.5q93 88 253 88q141 0 236 -93q101 -101 101 -261q0 -142 -82 -240q-50 -61 -137 -104q44 -21 88 -51.5t72 -59.5q33 -36 57.5 -84 t36 -97.5t11.5 -96.5q0 -76 -30 -159t-79 -133q-47 -49 -124 -79.5t-175 -30.5q-59 0 -111 11.5t-86 30t-53 32t-32 25.5q-52 49 -83.5 126.5t-31.5 161.5zM217 374q0 -123 72 -194q66 -67 171 -67q54 0 103 20.5t83 54.5q62 64 62 177q0 141 -122 235q-60 46 -143 75 q-85 -23 -146 -93q-80 -92 -80 -208zM265 1099q0 -119 74 -196q52 -53 125 -80q102 48 148 100q63 68 63 173q0 31 -5.5 60t-17 55t-28.5 45q-25 28 -67 46t-87 18q-46 0 -89.5 -18t-69.5 -50q-46 -55 -46 -153z" />
<glyph unicode="9" d="M62 969q0 96 28 195.5t83 168.5q104 128 268 128q163 0 259 -124q65 -85 94 -223.5t29 -350.5q0 -516 -175 -692q-45 -44 -106.5 -71.5t-134.5 -27.5q-50 0 -108.5 18.5t-99.5 49.5q-47 35 -78 92t-37 123l133 42q4 -25 13 -50t22 -47t27 -37q25 -24 59.5 -37t68.5 -13 q159 0 219 208q48 166 44 391q-8 -24 -20 -49t-27 -47.5t-29 -37.5q-34 -33 -87 -53.5t-100 -20.5q-66 0 -134 33.5t-116 97.5q-45 62 -70 151t-25 183zM221 973q0 -74 17 -146.5t49 -112.5q25 -31 62 -50.5t79 -19.5q46 0 91.5 24.5t78.5 81.5q48 81 48 227q0 46 -6 94 t-21 96.5t-37 77.5q-24 33 -62 54t-85 21q-42 0 -79.5 -18.5t-62.5 -49.5q-35 -43 -53.5 -122t-18.5 -157z" />
<glyph unicode=":" horiz-adv-x="417" d="M104 0v234h189v-234h-189zM104 827v234h189v-234h-189z" />
<glyph unicode=";" horiz-adv-x="444" d="M104 -267l101 267h-73v232h183v-232l-118 -267h-93zM132 827v234h187v-234h-187z" />
<glyph unicode="&#x3c;" d="M64 658v129l789 437v-150l-628 -351l628 -351v-149z" />
<glyph unicode="=" d="M82 526v132h753v-132h-753zM82 775v132h753v-132h-753z" />
<glyph unicode="&#x3e;" d="M64 223v149l628 351l-628 351v148l789 -435v-129z" />
<glyph unicode="?" horiz-adv-x="885" d="M78 1040q1 30 5 60t15 73t26.5 80.5t43.5 77t63.5 67t88 45.5t115.5 18q80 0 143 -26t100.5 -65.5t62 -92.5t33.5 -102.5t9 -100.5q0 -53 -12.5 -103.5t-30 -87t-46.5 -75.5t-50.5 -62t-53.5 -54q-43 -42 -67.5 -72.5t-36.5 -61.5t-15 -56t-3 -67v-78h-149v69v14 q0 34 0.5 50.5t3 44t8.5 44.5t17 42.5t27.5 48t41 51t57.5 60.5q32 31 51 53t43 59t36 83t12 100q0 66 -15.5 116t-42 79t-58.5 43.5t-68 14.5q-33 0 -60.5 -8.5t-47.5 -23t-36 -38.5t-26.5 -49t-19 -60.5t-14 -67.5t-11.5 -75zM303 0v227h179v-227h-179z" />
<glyph unicode="@" horiz-adv-x="1210" d="M71 670q0 125 21.5 239.5t66.5 216t110.5 176t159.5 118t206 43.5q100 0 182.5 -33.5t139.5 -91t96.5 -136.5t58 -168t18.5 -186q0 -111 -16 -204t-42.5 -156.5t-62 -108t-74 -64.5t-78.5 -20q-48 0 -86 31t-50 94q-7 -40 -30 -70.5t-57.5 -46.5t-75.5 -16q-30 0 -58 10 t-55.5 36t-48 65.5t-33 102.5t-12.5 143q0 111 22 200.5t60 145.5t86 85.5t103 29.5q23 0 43 -6t35 -17t26.5 -25t19.5 -31t13 -34.5t8 -36.5l18 131h112l-64 -444q-14 -112 -14 -151q0 -41 16.5 -59t35.5 -18q23 0 46 22.5t44.5 68.5t35.5 130t14 194q0 80 -10.5 149 t-29.5 120t-44 93t-54.5 70t-60 49t-62.5 32t-59.5 16.5t-52.5 5.5q-29 0 -60.5 -7.5t-68.5 -22.5t-72.5 -42.5t-70 -64t-64 -90.5t-52 -118.5t-35 -150.5t-12.5 -185q0 -173 56 -311t163 -218.5t248 -80.5q157 0 279 82l39 -97q-23 -9 -55 -23t-47 -20.5t-39 -15.5t-40 -13 t-39 -8.5t-47 -6t-55 -1.5q-128 0 -236.5 47t-188.5 134.5t-125 220.5t-45 298zM493 648q0 -31 0.5 -51.5t2.5 -51.5t7.5 -51t14 -40t23 -30t33.5 -10q16 0 31 7.5t32.5 30.5t31.5 59.5t24.5 101.5t14.5 150q3 47 0 94q-2 41 -11.5 67.5t-24 37t-23.5 13t-21 2.5 q-29 0 -53.5 -23.5t-39 -60t-24.5 -82t-14 -86.5t-4 -77z" />
<glyph unicode="A" horiz-adv-x="803" d="M-8 0l327 1433h172l322 -1433h-167l-90 409h-324l-86 -409h-154zM261 550h267l-131 714z" />
<glyph unicode="B" d="M140 0v1433h301q104 0 177.5 -21t125.5 -77q42 -46 63.5 -114.5t21.5 -142.5q0 -58 -11 -114.5t-33 -92.5q-44 -78 -135 -106q51 -17 93 -49t70 -72q60 -90 60 -239q0 -217 -98 -315q-25 -26 -57.5 -44t-60.5 -27t-69.5 -13.5t-65 -5t-67.5 -0.5h-315zM303 140h155h32.5 t37 3t42 8t38.5 15.5t36 25.5q32 33 48 97.5t16 126.5q0 64 -21 127.5t-61 96.5q-24 19 -61 29t-59 11t-55 1h-148v-541zM303 821h134q127 0 179 52q50 50 50 178q0 147 -72 203q-52 39 -164 39h-127v-472z" />
<glyph unicode="C" horiz-adv-x="881" d="M90 708q0 86 8.5 173t27 176.5t52 167.5t79.5 129q100 107 247 107q143 0 236 -93q97 -97 124 -305l-148 -35q-24 176 -86 242q-45 50 -118 50q-92 0 -145 -66q-26 -33 -46 -90.5t-31.5 -119t-18.5 -133t-9.5 -125.5t-2.5 -103q0 -127 19.5 -262.5t58.5 -201.5 q30 -54 76.5 -80t94.5 -26q76 0 125 54q26 28 45 73.5t26.5 81.5t11.5 71l148 -28q-47 -225 -133 -309q-83 -84 -225 -84q-208 0 -314 178q-16 24 -30.5 60.5t-32 101t-28.5 168t-11 228.5z" />
<glyph unicode="D" horiz-adv-x="1029" d="M140 0v1433h238q159 0 254.5 -36t165.5 -131q71 -97 106.5 -248.5t35.5 -290.5q0 -129 -32 -273.5t-95 -248.5q-67 -111 -162.5 -158t-249.5 -47h-261zM303 140h113q64 0 112.5 15t82 45t55 63.5t40.5 79.5q65 155 65 382q0 240 -67 382q-23 48 -53 83.5t-58.5 55 t-63.5 30.5t-62.5 14t-61.5 3h-102v-1153z" />
<glyph unicode="E" horiz-adv-x="807" d="M140 0v1433h658v-140h-493v-478h380v-140h-380v-535h506v-140h-671z" />
<glyph unicode="F" horiz-adv-x="732" d="M140 0v1433h635v-140h-470v-484h387v-141h-387v-668h-165z" />
<glyph unicode="G" horiz-adv-x="991" d="M90 702q0 439 146 618q63 78 139 109.5t168 31.5q120 0 205 -64q66 -50 100 -124.5t55 -190.5l-143 -48q-31 169 -90 228q-27 27 -65 42.5t-77 15.5q-28 0 -57.5 -8.5t-55.5 -24t-46 -35.5q-110 -117 -110 -567q0 -45 2.5 -93.5t9.5 -118t24 -135t42 -108.5 q66 -117 191 -117q45 0 93.5 25t86.5 87q23 38 36.5 81t17.5 84.5t6 88.5v40q0 26 -1 51h-239v140h389v-730h-104l-30 177q-32 -71 -85 -115q-83 -70 -188 -70q-65 0 -121 19t-96 50.5t-67 64t-46 67.5q-90 161 -90 529z" />
<glyph unicode="H" horiz-adv-x="1029" d="M140 0v1433h163v-608h424v608h162v-1433h-162v685h-424v-685h-163z" />
<glyph unicode="I" horiz-adv-x="442" d="M140 0v1433h163v-1433h-163z" />
<glyph unicode="J" horiz-adv-x="588" d="M10 0v128q57 -15 128 -15q89 0 127 42q23 26 34.5 92.5t11.5 226.5l-2 959h165v-963v-45q1 -17 1 -28t-1 -18q0 -13 -0.5 -43t-1.5 -44.5t-3.5 -40t-6 -41t-9 -37.5t-12.5 -37.5t-16.5 -32.5t-21.5 -32q-79 -99 -221 -99q-46 0 -86.5 6t-58.5 11.5t-27 10.5z" />
<glyph unicode="K" d="M140 0v1433h163v-721l399 721h179l-313 -522l389 -911h-182l-303 754l-169 -280v-474h-163z" />
<glyph unicode="L" horiz-adv-x="732" d="M140 0v1433h163v-1293h447v-140h-610z" />
<glyph unicode="M" horiz-adv-x="1286" d="M140 0v1433h219l285 -1166l289 1166h213v-1433h-158l13 1222l-305 -1222h-122l-299 1228l12 -1228h-147z" />
<glyph unicode="N" horiz-adv-x="1064" d="M140 0v1433h195l454 -1122l-8 1122h144v-1433h-158l-490 1226l8 -1226h-145z" />
<glyph unicode="O" horiz-adv-x="1029" d="M90 716q0 397 125 581q34 51 73.5 85.5t79.5 50.5t74 22t72 6q39 0 72.5 -5.5t76 -21t83 -50.5t75.5 -87q119 -174 119 -581q0 -68 -5 -137t-18 -149.5t-39.5 -157t-64.5 -134.5q-28 -43 -59 -74t-59.5 -48.5t-62 -27.5t-59.5 -13t-59 -3q-37 0 -70.5 5.5t-75.5 21 t-83.5 50.5t-77.5 87q-117 177 -117 580zM259 716q0 -96 8 -190.5t33 -196.5t65 -147q25 -30 63.5 -49.5t85.5 -19.5q41 0 77.5 16t50.5 28.5t24 24.5q25 28 44 78t30 105.5t18.5 121.5t10 121t2.5 108q0 54 -2.5 109.5t-10 121t-18.5 121.5t-30 105.5t-44 78.5 q-19 20 -43 35.5t-52 24t-57 8.5q-90 0 -151 -68q-30 -35 -52 -100.5t-32.5 -145t-15 -150t-4.5 -140.5z" />
<glyph unicode="P" horiz-adv-x="847" d="M140 0v1433h280q47 0 83.5 -3.5t82.5 -14t86.5 -35t73.5 -62.5q31 -37 53 -89t32.5 -109.5t10.5 -116.5q0 -153 -65 -257q-99 -164 -332 -164h-140v-582h-165zM305 723h134q106 0 161 48q72 66 72 232q0 49 -7.5 94.5t-25 86t-43.5 63.5q-55 46 -166 46h-125v-570z" />
<glyph unicode="Q" horiz-adv-x="1029" d="M90 716q0 392 125 581q34 51 73.5 85.5t79.5 50.5t74 22t72 6q30 0 56 -3t60.5 -13t65 -27t64 -48t61.5 -73q11 -16 22.5 -37t30.5 -72t32.5 -111t23.5 -156t10 -205q0 -371 -127 -578q-39 -62 -83 -97t-104 -53v-19q0 -94 18 -124q30 -50 100 -50q40 0 115 28v-136 q-61 -26 -132 -26q-127 0 -193 76q-19 23 -31.5 49t-18 58.5t-7.5 53.5t-4 60q0 11 -1 16q-91 14 -154.5 52.5t-110.5 109.5q-117 177 -117 580zM259 716q0 -30 0.5 -62t6.5 -108t16 -137t31.5 -127t51.5 -100q27 -32 67 -50.5t86 -18.5q45 0 83.5 19.5t64.5 49.5 q33 37 55.5 109.5t32.5 157t13.5 147.5t3.5 120q0 44 -1.5 91.5t-8.5 116.5t-17.5 127t-30.5 114t-47 87q-19 20 -43 35.5t-52 24t-57 8.5q-90 0 -151 -68q-33 -38 -55.5 -110t-32 -157t-13 -147.5t-3.5 -121.5z" />
<glyph unicode="R" d="M140 0v1433h320q120 0 198.5 -29.5t133.5 -112.5q69 -104 69 -255q0 -71 -11.5 -128.5t-40.5 -113.5q-29 -57 -63.5 -87.5t-81.5 -46.5l227 -660h-175l-208 626h-205v-626h-163zM303 767h159q30 0 46 1t40.5 6t45 17.5t39.5 33.5q61 65 61 207q0 141 -68 206 q-57 55 -175 55h-148v-526z" />
<glyph unicode="S" horiz-adv-x="881" d="M32 359l148 40q6 -32 16.5 -66t25 -66t32.5 -59t37 -43q27 -22 72.5 -37t87.5 -15q98 0 161 67q35 39 45.5 84t10.5 103q0 50 -8 87t-34 72q-27 37 -65 63.5t-93 54.5q-23 11 -79 38t-77.5 38t-53.5 30.5t-53 36.5q-125 106 -125 287q0 90 28 164t74 120 q49 50 117.5 76.5t143.5 26.5q63 0 120.5 -20.5t100.5 -53.5q60 -46 99 -120.5t52 -154.5l-149 -36q-8 55 -31.5 107t-56.5 83q-58 54 -141 54q-104 0 -155 -73q-11 -14 -19.5 -32.5t-14.5 -39.5t-9 -44t-3 -45q0 -62 21 -106.5t66 -78.5q25 -20 62 -39.5t152 -76.5l12 -6 q47 -22 73.5 -36t65.5 -42t64 -57q25 -30 44 -69.5t30 -89.5t11 -105q0 -63 -14.5 -120.5t-38 -99.5t-55.5 -74q-53 -55 -127.5 -84.5t-158.5 -29.5q-126 0 -230 68q-44 29 -78 70.5t-54.5 86t-32 84.5t-16.5 78z" />
<glyph unicode="T" horiz-adv-x="692" d="M-12 1293v140h718v-140h-280v-1293h-163v1293h-275z" />
<glyph unicode="U" horiz-adv-x="953" d="M115 362v38.5v31.5v1001h162v-1001q0 -115 10 -169.5t30 -82.5q50 -67 159 -67q52 0 92.5 14.5t71.5 60.5q27 41 35 97.5t8 138.5v1009h156v-1001v-17q1 -27 1 -47v-17q0 -23 -4.5 -64.5t-12 -70t-23 -62.5t-37.5 -62q-96 -120 -291 -120q-199 0 -290 118q-12 15 -22 33 t-16.5 39t-11.5 38t-8 43t-5 39.5t-3 42t-1 37.5z" />
<glyph unicode="V" horiz-adv-x="805" d="M-10 1433h173l246 -1218l243 1218h165l-326 -1433h-174z" />
<glyph unicode="W" horiz-adv-x="1244" d="M12 1433h163l182 -1134l205 1134h134l223 -1134l169 1134h146l-240 -1433h-159l-211 1103l-202 -1103h-157z" />
<glyph unicode="X" horiz-adv-x="803" d="M0 0l315 748l-275 685h175l192 -516l199 516h157l-279 -660l318 -773h-184l-227 596l-232 -596h-159z" />
<glyph unicode="Y" horiz-adv-x="768" d="M-26 1433h170l251 -664l245 664h154l-328 -827v-606h-163v606z" />
<glyph unicode="Z" horiz-adv-x="805" d="M38 0v148l532 1145h-506v140h692v-115l-543 -1170h554v-148h-729z" />
<glyph unicode="[" horiz-adv-x="594" d="M209 -359v1792h286v-113h-134v-1567h134v-112h-286z" />
<glyph unicode="\" horiz-adv-x="843" d="M86 1433h127l618 -1792h-127z" />
<glyph unicode="]" horiz-adv-x="592" d="M100 -247h132v1567h-132v113h285v-1792h-285v112z" />
<glyph unicode="^" horiz-adv-x="1075" d="M58 787l381 650h199l379 -650h-162l-318 531l-318 -531h-161z" />
<glyph unicode="_" horiz-adv-x="1075" d="M0 -142l1076 -2v-135h-1076v137z" />
<glyph unicode="`" horiz-adv-x="999" d="M238 1406l97 119l291 -273l-56 -70z" />
<glyph unicode="a" horiz-adv-x="845" d="M75 291q0 242 188 325q69 30 153 40q55 6 108 5q27 0 54 -1v48q0 74 -4 116q-6 56 -31 87q-40 50 -125 50q-97 0 -141 -78q-20 -30 -36 -118l-139 35q11 57 37 111t60 90q83 85 240 85q112 0 183 -48q24 -15 41.5 -34.5t29.5 -38t20 -47t12 -49.5t6 -59t2 -60.5v-68.5v-9 v-425v-41v-49.5t1.5 -45.5t4.5 -56.5t9 -54.5h-134q-21 72 -21 132q0 12 1 23q-12 -32 -34 -67.5t-46 -57.5q-59 -58 -159 -58q-129 0 -205 82q-75 81 -75 237zM234 273q0 -86 39 -131q19 -20 46.5 -31t52.5 -11q42 0 83.5 22.5t72.5 76.5q32 57 42 135q8 64 8 158v40 q-35 2 -66 2q-62 0 -111 -9q-73 -14 -114 -63q-26 -30 -39.5 -82.5t-13.5 -106.5z" />
<glyph unicode="b" horiz-adv-x="885" d="M130 0v1433h149v-524q24 70 72 117q54 52 144 52q142 0 224 -113q29 -40 48.5 -98.5t28.5 -122t12 -111.5t3 -94q0 -79 -8.5 -150t-19 -114.5t-24.5 -81t-21.5 -51t-12.5 -21.5q-19 -31 -46 -57t-58.5 -44t-68 -28t-74.5 -10q-92 0 -161 52q-53 39 -70 96l-36 -130h-81z M279 405q0 -36 1.5 -60t7 -61.5t20 -70t37.5 -58.5q45 -51 106 -51q42 0 82 26t65 73q24 47 36 148t12 195q0 60 -6.5 136t-15.5 116q-33 155 -156 155q-22 0 -42 -6.5t-35 -17t-28.5 -25t-22.5 -28.5t-17 -30.5t-12 -29t-8 -24.5q-24 -83 -24 -206v-181z" />
<glyph unicode="c" horiz-adv-x="770" d="M75 512q0 351 128 489q27 28 56 46.5t58.5 26t51 10t49.5 2.5q58 0 106.5 -14t91.5 -57q44 -43 74.5 -118t38.5 -153l-139 -30q-4 51 -23 110.5t-43 86.5q-18 22 -47 36t-61 14q-75 0 -119 -62q-56 -79 -56 -337q0 -176 10.5 -265.5t43.5 -133.5q48 -63 116 -63 q82 0 128 67q20 31 33.5 80t17.5 96l139 -18q-6 -73 -36.5 -151.5t-70.5 -121.5q-75 -80 -206 -80q-71 0 -133.5 28t-102.5 73q-105 117 -105 439z" />
<glyph unicode="d" horiz-adv-x="883" d="M75 508q0 314 113 459q86 111 219 111q88 0 139 -46q40 -37 58 -92v493h150v-1433h-130v138q-29 -68 -68 -102q-31 -26 -77 -40t-86 -14q-162 0 -245 150q-73 129 -73 376zM241 543q0 -272 62 -368q46 -67 121 -67q31 0 66.5 15.5t57.5 39.5q27 32 42.5 92t15.5 134 l-2 283q-2 100 -25 157.5t-53 83.5q-49 40 -102 40q-79 0 -125 -72q-58 -93 -58 -338z" />
<glyph unicode="e" horiz-adv-x="809" d="M75 514q0 134 26.5 254t86.5 199q27 37 58 62t62 37t57.5 16t56.5 4q43 0 78.5 -6.5t80.5 -31.5t81 -68q107 -129 107 -433v-33l-537 -2q-1 -16 -1 -33q-1 -37 3 -77q4 -58 19 -122t38 -98q26 -39 67.5 -60.5t86.5 -21.5q31 0 62.5 13t52.5 37q38 43 66 163l130 -36 q-19 -88 -58 -156q-49 -84 -114.5 -116.5t-151.5 -32.5q-84 0 -149 31t-116 105q-92 134 -92 406zM236 635h368q-3 106 -14 163t-32 89q-14 22 -34.5 38.5t-46.5 26t-55 9.5q-36 0 -71.5 -19.5t-61.5 -62.5q-16 -27 -26.5 -65.5t-15.5 -75.5t-11 -103z" />
<glyph unicode="f" horiz-adv-x="438" d="M4 938v123h134v85q0 147 35 216q27 44 79.5 71.5t121.5 27.5q61 0 121 -14v-127q-42 13 -81 13q-87 0 -113 -65q-12 -25 -12 -122v-85h164v-123h-164v-938h-151v938h-134z" />
<glyph unicode="g" horiz-adv-x="766" d="M52 -136q0 91 54 150q36 39 84 66q-45 25 -73 66q-35 55 -35 109q0 73 43 125q31 39 82 61q-51 44 -79 122.5t-28 161.5q0 49 9.5 96t30.5 93.5t52 82.5q77 89 213 89q91 0 141 -44q0 33 9 67.5t27 56.5q27 31 79 48q32 10 66 10q21 0 42 -4v-134q-19 2 -34 2 q-22 0 -35 -4q-25 -7 -40.5 -24.5t-22 -40.5t-7.5 -56q27 -28 44.5 -77t24.5 -94.5t7 -87.5q0 -63 -21.5 -130.5t-58.5 -113.5q-33 -43 -92.5 -73t-140.5 -30q-64 0 -98 17q-31 -6 -53.5 -36t-22.5 -63q0 -26 11.5 -45.5t24.5 -28.5t34 -17q23 -10 54 -15.5t48 -7t64 -4.5 q4 0 20.5 -0.5t22 -1t20.5 -1t22 -1t20.5 -2t22 -3.5t19.5 -4t20.5 -5.5t19.5 -6.5q28 -11 51.5 -28t46.5 -44t36 -69t13 -95q0 -41 -5.5 -73.5t-24.5 -68t-51 -65.5q-52 -47 -132.5 -71.5t-168.5 -24.5q-171 0 -269 79q-48 38 -67 85t-19 107zM203 -108q0 -42 17 -77 t47 -56q55 -38 149 -38q110 0 162 38q16 11 29.5 29t23 45.5t9.5 58.5q0 29 -10 51t-24.5 35t-36.5 22.5t-40 13t-40 6.5q-117 14 -214 18q-31 -23 -51.5 -60.5t-20.5 -85.5zM255 716q0 -33 4 -66t15 -66.5t27 -53.5q37 -48 100 -48q82 0 121 74q13 24 19.5 57t7.5 54t1 56 q0 137 -48 196q-34 42 -97 42q-77 0 -116 -72q-34 -57 -34 -173z" />
<glyph unicode="h" horiz-adv-x="845" d="M130 0v1433h147v-516q19 64 64 109q22 23 46.5 37t48.5 18.5t55 4.5q101 0 161 -60q17 -17 30 -39t21.5 -40.5t14 -50.5t8.5 -50t4 -59.5t1 -58.5v-66v-662h-149v662q0 160 -18 209q-30 82 -115 82q-27 0 -47.5 -7.5t-36 -21t-30.5 -35.5q-35 -50 -46.5 -123.5 t-11.5 -187.5v-578h-147z" />
<glyph unicode="i" horiz-adv-x="406" d="M123 1250v183h162v-183h-162zM130 0v1061h147v-1061h-147z" />
<glyph unicode="j" horiz-adv-x="402" d="M-62 -238h72q22 0 34 1t31 10t31 26q12 19 15.5 52.5t3.5 116.5v1093h148v-1099v-11q0 -42 -0.5 -65t-4 -62t-11 -63.5t-22.5 -51.5t-36 -44q-9 -6 -18 -11.5t-20.5 -9.5t-20.5 -7t-22.5 -4.5t-20.5 -2.5t-21.5 -1.5t-19.5 -0.5h-19.5h-16.5h-82v134zM119 1252v181h160 v-181h-160z" />
<glyph unicode="k" horiz-adv-x="770" d="M130 0v1433h149v-894l293 522h157l-232 -393l266 -668h-179l-183 520l-122 -192v-328h-149z" />
<glyph unicode="l" horiz-adv-x="406" d="M130 0v1433h147v-1433h-147z" />
<glyph unicode="m" horiz-adv-x="1286" d="M130 0v1061h137v-172q17 73 70 132q35 39 71.5 52t90.5 13q30 0 52.5 -4t49.5 -20.5t49 -44.5q41 -52 52 -140q12 76 71 144q36 39 72 52t82 13q33 0 57.5 -4t51 -17.5t50.5 -36.5q14 -13 25.5 -28.5t19.5 -30.5t14.5 -33.5t11 -34.5t7.5 -37.5t4.5 -38t2.5 -41t1 -41 v-43.5v-700h-151l3 694q0 158 -36 209q-35 50 -99 50q-68 0 -112 -66q-16 -24 -26.5 -54t-16 -69.5t-7.5 -82t-2 -103.5v-578h-149v666q0 98 -4 145t-20 78q-31 64 -101 64q-89 0 -134 -82q-38 -75 -38 -196v-675h-149z" />
<glyph unicode="n" horiz-adv-x="847" d="M130 0v1061h137v-162q23 77 86 133q62 54 146 54q114 0 171 -69q22 -26 36 -61.5t19.5 -86.5t6.5 -89t1 -108v-672h-149v672q0 157 -22 207q-33 74 -111 74q-76 0 -121 -74q-53 -83 -53 -269v-610h-147z" />
<glyph unicode="o" horiz-adv-x="847" d="M75 530q0 77 10 153t39.5 163t76.5 140q87 100 223.5 100t223.5 -100q28 -33 51 -78.5t36.5 -92.5t22.5 -99.5t12 -97t3 -88.5q0 -88 -12.5 -171.5t-41.5 -161t-71 -124.5q-41 -45 -99 -73t-124.5 -28t-124.5 28t-99 73q-62 70 -94 195t-32 262zM241 530q0 -197 30 -298 q12 -40 32 -68t42.5 -41t41.5 -18t37.5 -5t37 5t41 18t42 41t31.5 68q16 53 24 138t8 160q0 74 -8.5 161.5t-23.5 137.5q-10 35 -27.5 60.5t-34 38.5t-36 21t-31.5 10t-23 2q-8 0 -18 -1.5t-25 -5.5t-29.5 -13.5t-29.5 -23t-28.5 -36.5t-22.5 -52q-14 -50 -22 -137t-8 -162z " />
<glyph unicode="p" horiz-adv-x="885" d="M130 -359v1420h139v-176q17 78 72 132q61 61 156 61q139 0 219 -117q51 -73 73 -189t22 -229q0 -106 -17.5 -216.5t-56.5 -184.5q-82 -160 -248 -160q-89 0 -146 46q-44 34 -64 80v-467h-149zM279 422q0 -79 10 -139t41 -106q48 -69 130 -69q50 0 87 24.5t57 61.5 q21 39 31.5 143t10.5 193q0 248 -52 343q-42 80 -124 80q-46 0 -78.5 -20t-50.5 -46q-31 -40 -46.5 -117t-15.5 -156v-192z" />
<glyph unicode="q" horiz-adv-x="883" d="M75 518q0 275 100 424q46 69 105 102.5t144 33.5q87 0 146 -54q48 -42 63 -103l42 153h79v-1433h-150v482q-21 -51 -65 -89q-58 -52 -138 -52q-155 0 -242 135q-84 129 -84 401zM241 528q0 -264 62 -351q15 -22 36 -38t42.5 -23.5t42.5 -7.5q35 0 71 19t59 48 q50 68 50 218v323q0 34 -3 58.5t-15.5 59.5t-35.5 63q-23 29 -50.5 42.5t-67.5 13.5q-82 0 -131 -80q-60 -101 -60 -345z" />
<glyph unicode="r" horiz-adv-x="515" d="M130 0v1061h137v-210q15 76 66 146q29 41 63 62t86 21q34 0 50 -4v-167q-12 4 -45 4q-93 0 -150 -80q-12 -16 -21 -35.5t-15 -35.5t-10.5 -43t-6.5 -40.5t-3 -46.5t-1.5 -42.5t-0.5 -47.5v-43v-499h-149z" />
<glyph unicode="s" horiz-adv-x="697" d="M28 269l131 36q3 -42 22 -87.5t46 -71.5q50 -46 130 -46q30 0 56 8t41.5 19.5t25.5 25.5q36 45 36 110q0 46 -13.5 78.5t-47.5 61.5q-14 12 -28.5 22.5t-38.5 23.5t-33.5 18t-46 23.5t-43.5 21.5q-32 16 -55.5 30.5t-53 39.5t-48.5 53t-32.5 70t-13.5 91q0 62 24.5 122 t68.5 101q43 40 90.5 53.5t105.5 13.5q57 0 104 -13t93 -52q41 -37 62 -81.5t38 -118.5l-130 -36q-5 37 -22 77t-43 63q-41 36 -100 36q-38 0 -68.5 -15t-46.5 -37q-29 -38 -29 -94q0 -44 13.5 -75.5t48.5 -60.5q13 -10 30.5 -20.5t32 -18t40.5 -20.5l44 -22l12 -6 q106 -58 138 -84q39 -31 62.5 -68.5t31.5 -73.5t8 -81q0 -72 -21.5 -131t-58.5 -96q-39 -40 -99.5 -63t-131.5 -23q-192 0 -277 141q-44 71 -54 156z" />
<glyph unicode="t" horiz-adv-x="515" d="M42 938v123h119v265l150 19v-284h180v-123h-180v-577v-30.5v-31t0.5 -28t2.5 -28t5 -24t8 -23.5t11.5 -18t16 -16.5t21.5 -11.5q22 -9 62 -9q35 0 82 7v-132q-1 0 -5.5 -1.5t-8 -3t-11 -3.5t-14 -3.5t-17 -3l-21 -3t-24.5 -2t-28 -0.5q-66 0 -112.5 23t-71.5 59 q-29 38 -37.5 102t-8.5 181v577h-119z" />
<glyph unicode="u" horiz-adv-x="847" d="M115 265v42v42v712h148v-720q0 -53 1 -77.5t6 -53.5t17 -47q14 -22 42 -38.5t68 -16.5q20 0 40 5t42 16.5t40 35t29 56.5q8 27 15 74.5t7 80.5v685h149v-1061h-139v128q-18 -53 -68 -96q-35 -30 -71 -45t-86 -15t-98 17.5t-80 50.5q-11 11 -20 24t-15.5 29.5t-11 28.5 t-7.5 34.5t-4.5 33t-2.5 38.5t-1 37z" />
<glyph unicode="v" horiz-adv-x="659" d="M0 1061h155l184 -877l175 877h146l-251 -1061h-158z" />
<glyph unicode="w" horiz-adv-x="987" d="M4 1061h151l138 -792l144 792h125l150 -792l143 792h129l-213 -1061h-127l-153 785l-138 -785h-132z" />
<glyph unicode="x" horiz-adv-x="659" d="M4 0l249 562l-221 499h160l145 -367l135 367h144l-209 -499l249 -562h-161l-172 424l-166 -424h-153z" />
<glyph unicode="y" horiz-adv-x="624" d="M-8 1061h152l173 -733l182 733h134l-303 -1163q-44 -169 -98 -223q-58 -57 -140 -57q-34 0 -86 15v129q38 -15 78 -15q37 0 53.5 15.5t29.5 53.5q21 60 38 132l40 160z" />
<glyph unicode="z" horiz-adv-x="659" d="M50 0v123l382 810h-352v128h530v-88l-397 -845h397v-128h-560z" />
<glyph unicode="{" horiz-adv-x="552" d="M94 472v132q16 0 30 3.5t24 9t17.5 16t12.5 19.5t8.5 24.5t5 26t2 29t0.5 28.5v29.5v27.5v313q0 172 64 245t208 58v-111q-34 1 -56.5 -6t-36 -19t-20 -37t-8.5 -51t-2 -71v-327q0 -15 0.5 -42t1 -42.5t-1 -39.5t-5 -39t-11.5 -33.5t-20 -31t-30.5 -24.5t-42.5 -20 q20 -7 36.5 -16t27.5 -21.5t19.5 -23.5t13.5 -29.5t7.5 -31t3.5 -36.5t1.5 -37t0 -40.5t-0.5 -40.5v-323q0 -42 1.5 -66t8 -50.5t19.5 -40t36.5 -22t57.5 -8.5v-110q-146 -15 -209 57.5t-63 247.5v309v29.5v31t-0.5 29.5t-2 29t-5 25.5t-8.5 24.5t-12.5 19t-17.5 15.5t-24 9 t-30 2.5z" />
<glyph unicode="|" horiz-adv-x="1092" d="M472 -359v1792h148v-1792h-148z" />
<glyph unicode="}" horiz-adv-x="550" d="M88 -247q22 0 40.5 4t31 12.5t22 17t15 23.5t8.5 25.5t4.5 29.5t1.5 30v31v14v323v34v44t1 40t4 36.5t7.5 33t12.5 28.5t19 24t26.5 20t35.5 16q-23 7 -40.5 18t-29 22.5t-19 30.5t-11.5 32.5t-5.5 38.5t-1.5 39.5t0.5 45t0.5 45.5v327v5v33.5t-1 29.5t-3.5 29t-6.5 24.5 t-10 22t-15.5 16.5t-21.5 13.5t-28.5 7.5t-36.5 3v111q52 6 94 -0.5t70 -21t48 -40.5t31 -51.5t17 -61.5t7.5 -63.5t1.5 -64.5v-313q0 -32 0.5 -50.5t2.5 -44t6 -40.5t11 -32t18 -25.5t26.5 -14.5t36.5 -6v-132q-21 0 -37.5 -6.5t-27 -15.5t-18 -26.5t-11 -30.5t-5.5 -38 t-2 -39v-41v-18v-309q0 -58 -4.5 -100t-20.5 -87t-44.5 -71.5t-79 -40t-120.5 -6.5v110z" />
<glyph unicode="~" horiz-adv-x="1441" d="M205 1312q26 56 52.5 97t61.5 77t79.5 54.5t98.5 18.5q45 0 101.5 -18.5t141.5 -57.5q6 -3 19 -9q49 -24 72.5 -34t56.5 -19t63 -9q37 0 69.5 14t56 38t39.5 47.5t28 51.5l92 -56q-56 -116 -135.5 -176.5t-195.5 -60.5q-49 0 -109 22t-106.5 48.5t-100.5 49t-92 22.5 q-37 0 -66.5 -11t-54 -34.5t-42 -47.5t-39.5 -63z" />
<glyph unicode="&#xa3;" horiz-adv-x="919" d="M20 0v136q77 2 133 20.5t88.5 46t52 68.5t25.5 81.5t6 92.5q0 38 -3 72t-9.5 83.5t-9.5 80.5h-186v117h172q-30 173 -30 246q0 97 23 172.5t58 119t81 71t86 37.5t79 10q52 0 91.5 -11t72 -36t58 -57.5t55.5 -83.5l-113 -76q-20 38 -43 63t-56.5 40t-76.5 15 q-152 0 -152 -226q0 -64 27 -284h241v-117h-226q14 -76 14 -151q0 -49 -7 -101.5t-23.5 -110.5t-50 -107t-78.5 -75h163q60 0 101 5.5t80.5 21.5t67 48t46.5 82l100 -74q-17 -35 -35.5 -64t-36.5 -51t-41.5 -38.5t-41.5 -27.5t-46 -18.5t-47.5 -11t-52 -5.5t-53 -2.5 t-57.5 -0.5h-446z" />
<glyph unicode="&#xa8;" horiz-adv-x="999" d="M275 1254v175h155v-175h-155zM566 1254v175h155v-175h-155z" />
<glyph unicode="&#xa9;" horiz-adv-x="1678" d="M90 716q0 151 59.5 289t159.5 238.5t239 160t291.5 59.5t291.5 -59.5t239.5 -160t160 -238.5t59.5 -289t-59.5 -288.5t-160 -238t-239.5 -160t-291.5 -59.5t-291.5 59.5t-239 160t-159.5 238t-59.5 288.5zM211 716q0 -130 49.5 -247.5t133 -201.5t200 -133.5t246 -49.5 t246 49.5t200.5 133.5t133.5 201.5t49.5 247.5q0 129 -50 246.5t-134 202.5t-200.5 136t-245 51t-245 -51t-200.5 -136t-133.5 -202.5t-49.5 -246.5zM576 723q0 86 12 156t30 115t44 78t50 50t52 27t45 12.5t35 2.5q44 0 81 -11.5t62.5 -31.5t45 -44.5t31 -54.5t18 -57 t8.5 -56l-117 -26q-9 55 -21 90t-27.5 53.5t-32 25.5t-39.5 7q-147 0 -147 -347q0 -90 11 -156.5t26 -100t37 -53t36.5 -24t31.5 -4.5q56 0 83 41t42 126l117 -19q-41 -251 -239 -251q-23 0 -42.5 2.5t-49 12.5t-53 28t-49 52t-42.5 80t-28 117.5t-11 159.5z" />
<glyph unicode="&#xab;" horiz-adv-x="659" d="M71 548l180 323h84l-97 -323l97 -310h-84zM325 548l179 323h86l-99 -323l99 -310h-86z" />
<glyph unicode="&#xad;" horiz-adv-x="515" d="M75 474v132h366v-132h-366z" />
<glyph unicode="&#xae;" horiz-adv-x="1678" d="M90 716q0 151 59.5 289t159.5 238.5t239 160t291.5 59.5t291.5 -59.5t239.5 -160t160 -238.5t59.5 -289t-59.5 -288.5t-160 -238t-239.5 -160t-291.5 -59.5t-291.5 59.5t-239 160t-159.5 238t-59.5 288.5zM211 716q0 -130 49.5 -247.5t133 -201.5t200 -133.5t246 -49.5 t246 49.5t200.5 133.5t133.5 201.5t49.5 247.5q0 129 -50 246.5t-134 202.5t-200.5 136t-245 51t-245 -51t-200.5 -136t-133.5 -202.5t-49.5 -246.5zM616 287v859h213h30.5t35.5 -2.5t39 -7t38.5 -13.5t38 -21t33 -30.5t27 -42t17 -56t6.5 -70.5q0 -12 -0.5 -25.5t-7 -47 t-18 -60t-36.5 -53.5t-59 -40l145 -390h-134l-131 367h-109v-367h-128zM744 758h87q18 0 32.5 2t35 10t34.5 22.5t24 42.5t10 66q0 39 -12 67.5t-26.5 42.5t-37.5 21.5t-36 8.5t-30 1h-81v-284z" />
<glyph unicode="&#xb4;" horiz-adv-x="999" d="M376 1252l292 273l97 -119l-333 -224z" />
<glyph unicode="&#xbb;" horiz-adv-x="659" d="M71 238l98 310l-98 323h86l178 -323l-178 -310h-86zM325 238l99 310l-99 323h86l179 -323l-179 -310h-86z" />
<glyph unicode="&#x401;" horiz-adv-x="807" d="M140 0v1433h658v-140h-493v-478h380v-140h-380v-535h506v-140h-671zM243 1587v195h164v-195h-164zM546 1587v195h164v-195h-164z" />
<glyph unicode="&#x402;" horiz-adv-x="1112" d="M-12 1293v140h768v-140h-330v-506q111 64 228 64q96 0 166.5 -38.5t112.5 -98.5q86 -119 86 -321q0 -162 -72 -274q-51 -76 -111 -105.5t-151 -29.5q-87 0 -159 24l30 147q61 -30 112 -30q48 0 82 21.5t61 68.5q44 78 44 184q0 120 -42 195q-62 114 -201 114 q-110 0 -186 -70v-638h-163v1293h-275z" />
<glyph unicode="&#x403;" horiz-adv-x="776" d="M140 0v1433h639v-140h-474v-1293h-165zM299 1646l365 205l67 -147l-390 -139z" />
<glyph unicode="&#x404;" horiz-adv-x="909" d="M90 716q0 96 11 200t41 217t75 179q57 83 124 116t154 33q40 0 73.5 -5t71.5 -18.5t74 -40.5t67 -68q32 -42 56 -99.5t33.5 -97.5t14.5 -77l-143 -27q-24 127 -57 182q-59 110 -173 110q-129 0 -193 -142q-20 -44 -35 -108.5t-22.5 -128t-8.5 -122.5h401v-147h-405 q6 -223 44 -353q13 -43 29.5 -76t42.5 -64.5t65 -48.5t88 -17q48 0 84.5 17.5t57.5 43t40 64.5q36 71 44 157l151 -32q-8 -76 -36.5 -152t-69.5 -123q-93 -116 -259 -116q-137 0 -223.5 64t-139.5 191q-42 105 -59.5 240.5t-17.5 248.5z" />
<glyph unicode="&#x405;" horiz-adv-x="881" d="M32 359l148 40q6 -32 16.5 -66t25 -66t32.5 -59t37 -43q27 -22 72.5 -37t87.5 -15q98 0 161 67q35 39 45.5 84t10.5 103q0 50 -8 87t-34 72q-27 37 -65 63.5t-93 54.5q-23 11 -79 38t-77.5 38t-53.5 30.5t-53 36.5q-125 106 -125 287q0 90 28 164t74 120 q49 50 117.5 76.5t143.5 26.5q63 0 120.5 -20.5t100.5 -53.5q60 -46 99 -120.5t52 -154.5l-149 -36q-8 55 -31.5 107t-56.5 83q-58 54 -141 54q-104 0 -155 -73q-11 -14 -19.5 -32.5t-14.5 -39.5t-9 -44t-3 -45q0 -62 21 -106.5t66 -78.5q25 -20 62 -39.5t152 -76.5l12 -6 q47 -22 73.5 -36t65.5 -42t64 -57q25 -30 44 -69.5t30 -89.5t11 -105q0 -63 -14.5 -120.5t-38 -99.5t-55.5 -74q-53 -55 -127.5 -84.5t-158.5 -29.5q-126 0 -230 68q-44 29 -78 70.5t-54.5 86t-32 84.5t-16.5 78z" />
<glyph unicode="&#x406;" horiz-adv-x="442" d="M140 0v1433h163v-1433h-163z" />
<glyph unicode="&#x407;" horiz-adv-x="442" d="M-18 1561v193h164v-193h-164zM140 0v1433h163v-1433h-163zM285 1561v193h164v-193h-164z" />
<glyph unicode="&#x408;" horiz-adv-x="588" d="M10 0v128q57 -15 128 -15q89 0 127 42q28 31 36 99.5t8 219.5v959h165v-963q0 -12 0.5 -45t0 -46t-1 -43t-1.5 -44.5t-3.5 -40t-6 -41t-9 -37.5t-12.5 -37.5t-16.5 -32.5t-21.5 -32q-79 -99 -221 -99q-46 0 -86.5 6t-58.5 11.5t-27 10.5z" />
<glyph unicode="&#x409;" horiz-adv-x="1513" d="M-8 0v142q72 -4 125 35q55 41 75 134q28 120 44 445q13 276 25 677h634v-587h175q34 0 60 -2.5t60 -9.5t65.5 -23.5t58.5 -41.5q57 -55 84 -149t27 -204q0 -223 -96 -324q-30 -32 -66.5 -52t-77.5 -28t-69 -10t-69 -2h-318v1293h-328q-3 -300 -23 -665q-15 -267 -45 -379 q-30 -110 -97 -176q-44 -44 -108.5 -66.5t-135.5 -6.5zM895 140h129q60 0 105 14.5t79 62.5q48 75 48 226q0 145 -62 209q-54 54 -164 54h-135v-566z" />
<glyph unicode="&#x40a;" horiz-adv-x="1561" d="M140 0v1429h163v-600h424v600h164v-600h177q72 0 132.5 -15.5t111.5 -61.5q111 -103 111 -336q0 -222 -97 -324q-30 -32 -66 -52t-77.5 -28t-69 -10t-69.5 -2h-317v694h-424v-694h-163zM891 140h130q28 0 49 2t47 9.5t48.5 24t40.5 41.5q48 69 48 226q0 135 -62 197 q-54 54 -164 54h-137v-554z" />
<glyph unicode="&#x40b;" horiz-adv-x="1102" d="M-12 1293v140h762v-140h-324v-506q99 59 220 59q173 0 259 -109q41 -52 62 -132.5t21 -163.5v-441h-157v397q0 30 -1 55t-6.5 57.5t-14.5 58t-25 51t-38 42.5t-55.5 28t-74.5 11q-107 0 -190 -62v-638h-163v1293h-275z" />
<glyph unicode="&#x40c;" horiz-adv-x="969" d="M140 0v1433h163v-622h102q25 0 41.5 1t37.5 5.5t38.5 15.5t31.5 28q17 21 27.5 57.5t13 60t5.5 70.5q9 166 20 219q20 92 72 133q25 21 63 32.5t72 11.5q40 0 68 -8v-138q-50 11 -91 -19q-17 -13 -26 -32t-11.5 -33.5t-3.5 -38.5q-7 -127 -23 -243q-5 -37 -14 -62 t-28 -52q-46 -59 -114 -69v-6q26 -3 50.5 -11t50 -23.5t47.5 -43t35 -64.5q5 -13 8.5 -25.5t6.5 -28t5 -26.5t3.5 -31t2.5 -29.5t2.5 -32.5t1.5 -31t1 -35.5t2 -34.5q3 -113 29 -153q18 -23 48 -29.5t63 0.5v-138q-31 -16 -75 -16q-72 0 -121 34q-64 46 -86 147 q-14 67 -23 222q0 6 -1 19q-2 36 -3.5 53.5t-6 46t-12 46t-21.5 37t-33 33.5q-18 14 -38.5 23t-42 12.5t-34.5 4t-34 0.5h-106v-670h-163zM293 1644l365 204l67 -146l-390 -139z" />
<glyph unicode="&#x40e;" horiz-adv-x="820" d="M-8 1433h171l274 -869l240 869h152l-286 -971q-21 -71 -26.5 -90t-23.5 -75t-28.5 -80.5t-28 -60t-35.5 -60.5q-90 -124 -244 -124q-50 0 -125 20v136q54 -15 110 -15q37 0 63.5 7t50 24.5t45.5 47.5q41 55 71 149zM161 1766h142q4 -57 14 -82q14 -38 39.5 -53.5 t52.5 -15.5t53 15.5t40 53.5q10 25 14 82h142q0 -57 -19.5 -106t-52.5 -83q-67 -73 -177 -73t-177 73q-33 34 -52 83t-19 106z" />
<glyph unicode="&#x40f;" horiz-adv-x="1023" d="M140 0v1433h165v-1293h416v1293h162v-1433h-299v-313h-145v313h-299z" />
<glyph unicode="&#x410;" horiz-adv-x="803" d="M-8 0l327 1433h172l322 -1433h-167l-90 409h-324l-86 -409h-154zM261 550h267l-131 714z" />
<glyph unicode="&#x411;" horiz-adv-x="935" d="M140 0v1433h654v-140h-495v-468h242q75 0 143 -31t108 -82q75 -97 75 -288q0 -236 -96 -334q-29 -30 -64.5 -49.5t-77 -27.5t-74 -10.5t-77.5 -2.5h-338zM299 140h177q19 0 33 0.5t32 3t32 7t30 12.5t30 20.5t27 29.5q48 62 48 194q0 140 -48 207q-23 30 -65.5 50.5 t-97.5 20.5h-198v-545z" />
<glyph unicode="&#x412;" d="M140 0v1433h301q104 0 177.5 -21t125.5 -77q42 -46 63.5 -114.5t21.5 -142.5q0 -58 -11 -114.5t-33 -92.5q-44 -78 -135 -106q51 -17 93 -49t70 -72q60 -90 60 -239q0 -217 -98 -315q-25 -26 -57.5 -44t-60.5 -27t-69.5 -13.5t-65 -5t-67.5 -0.5h-315zM303 140h155h32.5 t37 3t42 8t38.5 15.5t36 25.5q32 33 48 97.5t16 126.5q0 64 -21 127.5t-61 96.5q-24 19 -61 29t-59 11t-55 1h-148v-541zM303 821h134q127 0 179 52q50 50 50 167q0 155 -72 214q-49 39 -164 39h-127v-472z" />
<glyph unicode="&#x413;" horiz-adv-x="776" d="M140 0v1433h639v-140h-474v-1293h-165z" />
<glyph unicode="&#x414;" horiz-adv-x="981" d="M-8 140h83q69 120 109 247q57 184 81 455q29 307 26 591h578v-1293h121v-485h-151v345h-697v-345h-150v485zM249 140h457v1153h-278q0 -247 -12.5 -414.5t-39.5 -316.5q-22 -124 -51.5 -222t-75.5 -200z" />
<glyph unicode="&#x415;" horiz-adv-x="807" d="M140 0v1433h658v-140h-493v-478h380v-140h-380v-535h506v-140h-671z" />
<glyph unicode="&#x416;" horiz-adv-x="1302" d="M-8 8v138q33 -7 62.5 -0.5t47.5 29.5q27 40 30 153v18q3 64 5 97.5t9 79t19 79.5q14 37 35.5 64.5t47 43t49.5 23.5t50 11v6q-68 10 -113 69q-14 18 -22.5 36.5t-12.5 35.5t-7 42q-16 105 -23 243q-1 17 -2.5 29t-5.5 26.5t-12.5 26.5t-20.5 22q-41 30 -90 19v138 q27 8 66 8q34 0 72.5 -11.5t64.5 -32.5q50 -40 70 -133q13 -59 22 -219q2 -35 3.5 -52t6 -47t13.5 -51.5t22 -37.5q27 -32 61.5 -41t86.5 -9h44v622h163v-622h44q20 0 33 0.5t31 3t31 8t27.5 15t25.5 23.5q18 21 28 57.5t12.5 60t5.5 70.5q9 160 21 219q20 93 71 133 q25 21 63.5 32.5t73.5 11.5q39 0 66 -8v-138q-49 11 -90 -19q-24 -18 -32 -43t-10 -61q-7 -138 -22 -243q-5 -37 -14 -62t-28 -52q-46 -59 -113 -69v-6q25 -3 49.5 -11t50 -23.5t47 -43t34.5 -64.5q13 -35 20.5 -86t9 -81t4.5 -107q3 -113 30 -153q17 -23 47 -29.5t63 0.5 v-138q-32 -16 -76 -16q-70 0 -120 34q-64 46 -86 147q-15 73 -23 222q-1 6 -1 19q-2 36 -3.5 53.5t-6.5 46t-12.5 46t-21 37t-33.5 33.5q-24 19 -54 28.5t-47.5 10.5t-46.5 1h-48v-670h-163v670h-48q-28 0 -45.5 -1t-48 -10.5t-54.5 -28t-39 -40.5t-22.5 -54.5t-9.5 -54.5 t-5 -67v-5t-0.5 -4.5t-0.5 -5v-4.5q-8 -149 -24 -222q-22 -101 -85 -147q-50 -34 -121 -34q-44 0 -75 16z" />
<glyph unicode="&#x417;" horiz-adv-x="958" d="M90 382l155 19q1 -52 14.5 -107t35.5 -91q30 -51 69.5 -70.5t101.5 -19.5q117 0 180 81q54 69 54 201q0 153 -76 221q-31 30 -78.5 46.5t-100.5 16.5h-94v140h94q58 0 107.5 26.5t73.5 67.5q32 56 32 183q0 109 -34 156q-47 68 -156 68q-84 0 -133 -52q-15 -16 -28 -38 t-22.5 -47.5t-15.5 -52.5t-8 -52l-155 23q3 94 41 167t89 115q94 78 253 78q155 0 242 -88q49 -48 73.5 -121.5t24.5 -150.5q0 -52 -13.5 -118t-38.5 -108q-18 -31 -42 -54t-48.5 -35.5t-43.5 -18.5t-37 -9v-4q109 -15 177 -90q86 -90 86 -265q0 -80 -22.5 -158.5 t-65.5 -134.5q-103 -134 -313 -134q-86 0 -156 26t-124 96q-28 36 -50 87.5t-33.5 102.5t-14.5 98z" />
<glyph unicode="&#x418;" horiz-adv-x="1094" d="M140 0v1433h163v-971l-8 -139l40 91l457 942v77h163v-1433h-163v982l8 140l-40 -98l-457 -938v-86h-163z" />
<glyph unicode="&#x419;" horiz-adv-x="1094" d="M140 0v1433h163v-971l-8 -139l40 91l457 942v77h163v-1433h-163v982l8 140l-40 -98l-457 -938v-86h-163zM271 1770h147q0 -54 21 -90q35 -65 111 -65q74 0 110 65q21 38 21 90h146q1 -37 -7 -70t-22 -57t-25.5 -39t-24.5 -27q-77 -73 -198 -73q-123 0 -199 73 q-18 17 -34 38t-31.5 64t-14.5 91z" />
<glyph unicode="&#x41a;" horiz-adv-x="969" d="M140 0v1433h163v-622h102q25 0 41.5 1t37.5 5.5t38.5 15.5t31.5 28q17 21 27.5 57.5t13 60t5.5 70.5q9 166 20 219q20 92 72 133q25 21 63 32.5t72 11.5q40 0 68 -8v-138q-50 11 -91 -19q-17 -13 -26 -32t-11.5 -33.5t-3.5 -38.5q-7 -127 -23 -243q-5 -37 -14 -62 t-28 -52q-46 -59 -114 -69v-6q26 -3 50.5 -11t50 -23.5t47.5 -43t35 -64.5q5 -13 8.5 -25.5t6.5 -28t5 -26.5t3.5 -31t2.5 -29.5t2.5 -32.5t1.5 -31t1 -35.5t2 -34.5q3 -113 29 -153q18 -23 48 -29.5t63 0.5v-138q-31 -16 -75 -16q-72 0 -121 34q-64 46 -86 147 q-14 67 -23 222q0 6 -1 19q-2 36 -3.5 53.5t-6 46t-12 46t-21.5 37t-33 33.5q-18 14 -38.5 23t-42 12.5t-34.5 4t-34 0.5h-106v-670h-163z" />
<glyph unicode="&#x41b;" horiz-adv-x="1033" d="M-8 0v142q72 -4 125 35q55 41 75 134q28 120 44 445q13 276 25 677h634v-1433h-166v1293h-328q-3 -300 -23 -665q-15 -267 -45 -379q-30 -110 -97 -176q-44 -44 -108.5 -66.5t-135.5 -6.5z" />
<glyph unicode="&#x41c;" horiz-adv-x="1286" d="M140 0v1433h219l285 -1166l289 1166h213v-1433h-158l13 1222l-305 -1222h-122l-299 1228l12 -1228h-147z" />
<glyph unicode="&#x41d;" horiz-adv-x="1029" d="M140 0v1433h163v-608h424v608h162v-1433h-162v685h-424v-685h-163z" />
<glyph unicode="&#x41e;" horiz-adv-x="1029" d="M90 716q0 397 125 581q34 51 73.5 85.5t79.5 50.5t74 22t72 6q39 0 72.5 -5.5t76 -21t83 -50.5t75.5 -87q119 -174 119 -581q0 -68 -5 -137t-18 -149.5t-39.5 -157t-64.5 -134.5q-28 -43 -59 -74t-59.5 -48.5t-62 -27.5t-59.5 -13t-59 -3q-37 0 -70.5 5.5t-75.5 21 t-83.5 50.5t-77.5 87q-117 177 -117 580zM259 716q0 -96 8 -190.5t33 -196.5t65 -147q25 -30 63.5 -49.5t85.5 -19.5q41 0 77.5 16t50.5 28.5t24 24.5q25 28 44 78t30 105.5t18.5 121.5t10 121t2.5 108q0 54 -2.5 109.5t-10 121t-18.5 121.5t-30 105.5t-44 78.5 q-19 20 -43 35.5t-52 24t-57 8.5q-90 0 -151 -68q-30 -35 -52 -100.5t-32.5 -145t-15 -150t-4.5 -140.5z" />
<glyph unicode="&#x41f;" horiz-adv-x="1029" d="M140 0v1433h749v-1433h-162v1293h-424v-1293h-163z" />
<glyph unicode="&#x420;" horiz-adv-x="847" d="M140 0v1433h280q47 0 83.5 -3.5t82.5 -14t86.5 -35t73.5 -62.5q31 -37 53 -89t32.5 -109.5t10.5 -116.5q0 -153 -65 -257q-99 -164 -332 -164h-140v-582h-165zM305 723h134q106 0 161 48q72 66 72 232q0 49 -7.5 94.5t-25 86t-43.5 63.5q-55 46 -166 46h-125v-570z" />
<glyph unicode="&#x421;" horiz-adv-x="881" d="M90 708q0 86 8.5 173t27 176.5t52 167.5t79.5 129q100 107 247 107q143 0 236 -93q97 -97 125 -305l-149 -35q-24 176 -86 242q-45 50 -118 50q-92 0 -145 -66q-26 -33 -46 -90.5t-31.5 -119t-18.5 -133t-9.5 -125.5t-2.5 -103q0 -127 19.5 -262.5t58.5 -201.5 q30 -54 76.5 -80t94.5 -26q76 0 125 54q26 28 45 73.5t26.5 81.5t11.5 71l149 -28q-47 -225 -134 -309q-83 -84 -225 -84q-208 0 -314 178q-16 24 -30.5 60.5t-32 101t-28.5 168t-11 228.5z" />
<glyph unicode="&#x422;" horiz-adv-x="692" d="M-12 1293v140h718v-140h-280v-1293h-163v1293h-275z" />
<glyph unicode="&#x423;" horiz-adv-x="820" d="M-8 1433h171l274 -869l240 869h152l-286 -971q-21 -71 -26.5 -90t-23.5 -75t-28.5 -80.5t-28 -60t-35.5 -60.5q-90 -124 -244 -124q-50 0 -125 20v136q54 -15 110 -15q37 0 63.5 7t50 24.5t45.5 47.5q41 55 71 149z" />
<glyph unicode="&#x424;" horiz-adv-x="1319" d="M90 733q0 238 85 372q35 53 84 93t93 59.5t94 31.5t78 14.5t54 2.5v175h164v-175q25 0 53.5 -2.5t78.5 -14.5t94 -31.5t93 -59.5t83 -93q86 -134 86 -372q0 -107 -20 -199t-76 -171q-37 -52 -87.5 -89.5t-105.5 -56t-102.5 -27t-96.5 -8.5v-182h-164v182q-49 0 -96.5 8.5 t-102.5 27t-105.5 56t-87.5 89.5q-56 79 -76 171t-20 199zM253 737q0 -75 15 -156t49 -132q37 -57 104.5 -94t156.5 -34v847q-73 3 -133 -24t-98 -70q-48 -53 -71 -144t-23 -193zM742 321q89 -3 156.5 34t104.5 94q23 35 38.5 90t21 104t5.5 94q0 102 -23.5 192.5 t-71.5 144.5q-38 43 -98 70t-133 24v-847z" />
<glyph unicode="&#x425;" horiz-adv-x="803" d="M0 0l315 748l-275 685h175l192 -516l199 516h157l-279 -660l318 -773h-184l-227 596l-232 -596h-159z" />
<glyph unicode="&#x426;" horiz-adv-x="1012" d="M140 0v1433h165v-1293h416v1293h162v-1293h122v-473h-152v333h-713z" />
<glyph unicode="&#x427;" horiz-adv-x="977" d="M119 857v576h163v-552q0 -4 -0.5 -15.5t-0.5 -16.5t1 -16t2.5 -17l4 -16t7 -16.5t11 -14.5t14.5 -15q35 -29 111 -29q115 0 243 35v673h162v-1433h-162v630q-129 -36 -266 -36q-74 0 -131.5 15.5t-97.5 60.5q-61 65 -61 187z" />
<glyph unicode="&#x428;" horiz-adv-x="1483" d="M140 0v1433h155v-1297h369v1297h155v-1297h369v1297h155v-1433h-1203z" />
<glyph unicode="&#x429;" horiz-adv-x="1471" d="M140 0v1433h157v-1297h367v1297h157v-1297h367v1297h157v-1297h120v-469h-151v333h-1174z" />
<glyph unicode="&#x42a;" horiz-adv-x="1044" d="M-16 1293v140h440v-587h176q34 0 59.5 -2.5t60 -9.5t66 -23.5t58.5 -41.5q57 -55 84 -149t27 -204q0 -223 -96 -324q-31 -32 -67 -52t-77.5 -28t-69 -10t-69.5 -2h-315v1293h-277zM424 140h130q60 0 105 14.5t78 62.5q48 75 48 226q0 146 -60 209q-54 54 -165 54h-136 v-566z" />
<glyph unicode="&#x42b;" horiz-adv-x="1208" d="M140 0v1433h155v-591h167q69 0 127.5 -15.5t108.5 -61.5q111 -111 111 -345q0 -24 -1 -47.5t-7 -64.5t-15.5 -76t-28.5 -73.5t-45 -66.5q-30 -32 -64.5 -52t-74 -28t-66.5 -10t-68 -2h-299zM295 140h121q28 0 49 2t47.5 9.5t49.5 24t42 41.5q48 72 48 222q0 149 -60 209 q-54 54 -170 54h-127v-562zM915 0v1433h155v-1433h-155z" />
<glyph unicode="&#x42c;" horiz-adv-x="923" d="M140 0v1433h163v-587h175q34 0 60 -2.5t60.5 -9.5t66 -23.5t58.5 -41.5q58 -54 84 -148.5t26 -204.5q0 -223 -96 -324q-30 -32 -66 -52t-77.5 -28t-69 -10t-69.5 -2h-315zM303 140h129q60 0 105.5 14.5t78.5 62.5q48 75 48 226q0 146 -60 209q-54 54 -165 54h-136v-566z " />
<glyph unicode="&#x42d;" horiz-adv-x="909" d="M30 380l158 15q8 -112 57 -192q55 -90 150 -90q56 0 105 28t80 84q40 68 59 196t21 251h-403v141h401q-1 60 -9 132t-28 157.5t-49 129.5q-30 46 -69.5 67t-95.5 21q-90 0 -144 -64q-27 -34 -51.5 -101.5t-31.5 -128.5l-150 29q8 73 35.5 148t72.5 132q49 65 111.5 95.5 t153.5 30.5q165 0 269 -118q85 -93 117 -247t32 -371q0 -441 -113 -600q-108 -153 -315 -153q-168 0 -261 118q-41 54 -68.5 136.5t-33.5 153.5z" />
<glyph unicode="&#x42e;" horiz-adv-x="1365" d="M140 0v1433h163v-608h155q-2 125 26.5 258.5t81.5 213.5q108 164 299 164q194 0 301 -162q34 -51 58 -129.5t34 -163t14 -148t4 -123.5q0 -73 -5 -146t-17 -157t-37 -161.5t-59 -132.5q-59 -93 -130.5 -129.5t-162.5 -36.5q-196 0 -303 164q-59 89 -85 243t-24 306h-150 v-685h-163zM616 716q0 -95 8 -190.5t32.5 -197t62.5 -146.5q56 -69 146 -69q87 0 144 69q32 39 54.5 114t31 163t11.5 145.5t3 111.5q0 55 -3 113t-11.5 146t-31 162.5t-54.5 114.5q-57 68 -144 68q-53 0 -90.5 -21t-58.5 -47q-33 -39 -55 -114.5t-30.5 -164t-11.5 -146.5 t-3 -111z" />
<glyph unicode="&#x42f;" horiz-adv-x="907" d="M16 0l237 660q-85 26 -140 100q-77 107 -77 272q0 214 125 317q98 84 269 84h339v-1433h-159v638h-201l-215 -638h-178zM201 1032q0 -55 14.5 -109t45.5 -86q30 -28 83 -44t109 -16h157v516h-180q-113 0 -173 -67q-56 -65 -56 -194z" />
<glyph unicode="&#x430;" horiz-adv-x="845" d="M75 287q0 245 188 329q69 30 153.5 39.5t161.5 4.5q2 109 -4.5 164.5t-30.5 86.5q-40 50 -125 50q-95 0 -141 -78q-23 -44 -36 -118l-139 35q11 57 37 111t60 90q83 85 240 85q112 0 183 -48q24 -15 41.5 -34.5t29.5 -38t20 -47t12 -49.5t6 -59t2 -60.5v-68.5v-9v-425 v-41v-49.5t1.5 -45.5t4.5 -56.5t9 -54.5h-134q-25 87 -20 155q-12 -32 -34 -67.5t-46 -57.5q-59 -58 -159 -58q-129 0 -205 82q-75 78 -75 233zM234 282q0 -98 39 -140q19 -20 46.5 -31t52.5 -11q42 0 83.5 22.5t72.5 76.5q33 57 42.5 135t7.5 198q-104 7 -177 -7t-114 -63 q-25 -29 -39 -81.5t-14 -98.5z" />
<glyph unicode="&#x431;" horiz-adv-x="847" d="M75 590q0 234 31 425q9 58 20.5 103t31.5 93.5t54 88.5t81 70q67 43 200 73q82 19 138 27.5t119 22.5v-133q-81 -22 -142 -38q-155 -37 -197 -54q-74 -29 -116 -88q-22 -29 -39 -75.5t-25.5 -92t-9.5 -85.5h4q25 41 60.5 70t78.5 44.5t91 15.5q89 0 148 -42.5t99 -123.5 q71 -146 71 -354q0 -59 -5.5 -114t-13 -95t-19 -78t-20 -60.5t-20 -44.5t-15 -28t-8.5 -13q-49 -70 -116.5 -101t-137.5 -31q-62 0 -115.5 25.5t-91.5 64.5q-29 31 -52 70t-37 84t-24 90.5t-14.5 97t-6.5 94t-2 92.5zM241 526q0 -74 9 -164.5t23 -134.5q14 -38 34 -65 t42 -39.5t39.5 -17.5t33.5 -5q19 0 38.5 5.5t42 19.5t43 42.5t32.5 68.5q15 47 22.5 129.5t7.5 156.5q0 80 -8 166t-24 127q-23 60 -63 87t-83 27q-12 0 -24.5 -1.5t-33.5 -10t-39 -23t-36 -43.5t-30 -68q-26 -97 -26 -257z" />
<glyph unicode="&#x432;" horiz-adv-x="835" d="M130 0v1061h365q111 0 175 -64q33 -35 49 -86.5t16 -106.5q0 -83 -31 -142q-40 -73 -106 -98v-2q75 -26 118 -92q15 -22 25.5 -54.5t14.5 -62.5t4 -58q0 -67 -19 -125.5t-56 -96.5q-69 -73 -181 -73h-374zM275 119h136q90 0 135 38q13 12 23.5 28t17.5 35t11 40.5t4 44.5 q0 28 -5.5 56.5t-17.5 55.5t-29 43q-41 39 -128 39h-147v-380zM275 618h136q83 0 121 44q22 23 33 59t11 73q0 78 -48 117q-25 19 -50 25t-62 6h-141v-324z" />
<glyph unicode="&#x433;" horiz-adv-x="672" d="M130 0v1061h534v-123h-387v-938h-147z" />
<glyph unicode="&#x434;" horiz-adv-x="851" d="M-8 123h83q84 158 113 326q19 104 32.5 287.5t13.5 324.5h493v-938h96v-380h-136v257h-564v-263h-131v386zM241 123h343v810h-217q-16 -326 -37 -463q-28 -192 -89 -347z" />
<glyph unicode="&#x435;" horiz-adv-x="809" d="M75 514q0 134 26.5 254t86.5 199q27 37 58 62t62 37t57.5 16t56.5 4q43 0 78.5 -6.5t80.5 -31.5t81 -68q113 -136 107 -468h-537q-2 -52 2.5 -109.5t19 -122t37.5 -98.5q26 -39 67.5 -60.5t86.5 -21.5q31 0 62.5 13t52.5 37q38 43 66 163l130 -36q-19 -88 -58 -156 q-49 -84 -114.5 -116.5t-151.5 -32.5q-84 0 -149 31t-116 105q-92 134 -92 406zM236 635h368q-3 106 -14 163t-32 89q-14 22 -34.5 38.5t-46.5 26t-55 9.5q-36 0 -71.5 -19.5t-61.5 -62.5q-16 -27 -26.5 -65.5t-15.5 -75.5t-11 -103z" />
<glyph unicode="&#x436;" horiz-adv-x="1050" d="M8 2v119q54 -13 76 38q7 17 12 48.5t8 62.5t7.5 71.5t9.5 67.5q24 124 122 151v2q-81 24 -105 104q-3 8 -5 17.5t-3.5 18t-3.5 22.5t-3.5 26t-4 35t-5.5 42q-6 48 -11.5 69t-15.5 31q-20 20 -46 15v119q37 9 54 9q16 0 31 -3.5t34.5 -13.5t36.5 -33t27 -57q5 -14 8.5 -32 t5 -29.5t4.5 -36t4 -34.5q11 -95 20 -127q14 -48 41.5 -66t65.5 -18h79v441h149v-441h79q38 0 65 18t41 66q11 38 22 127q1 12 3 28.5t3.5 28t3 25t4.5 26.5t6 24q11 34 28 57t36.5 33t34.5 13.5t31 3.5q17 0 54 -9v-119q-27 5 -46 -15q-10 -10 -15 -30t-12 -70 q-17 -133 -25 -161q-25 -80 -104 -104v-2q97 -27 120 -151q7 -33 12.5 -88t11 -97.5t14.5 -64.5q22 -51 75 -38v-119q-25 -14 -60 -14q-112 0 -151 118q-19 61 -37 222q-5 35 -7.5 51.5t-10.5 42t-20 40.5q-8 9 -20 17t-26.5 13t-28.5 5h-81v-497h-149v497h-82 q-20 0 -40.5 -10.5t-33.5 -24.5q-12 -15 -20 -40.5t-11 -42t-7 -51.5q-18 -161 -38 -222q-7 -21 -15.5 -37.5t-25 -37t-44.5 -32t-65 -11.5q-35 0 -61 14z" />
<glyph unicode="&#x437;" horiz-adv-x="811" d="M75 311l152 14q-1 -37 7.5 -82t24.5 -72q45 -71 142 -71q91 0 136 59q35 48 35 138q0 100 -54 150q-57 50 -157 50h-62v127h68q91 0 143 48q48 46 48 132q0 73 -34 111q-42 46 -115 46q-93 0 -138 -64q-15 -24 -26.5 -62t-12.5 -70l-136 22q6 68 35.5 130t73.5 100 q83 69 213 69q146 0 224 -79q70 -71 70 -198q0 -90 -40 -147q-22 -33 -58.5 -58.5t-79.5 -37.5v-2q82 -12 136 -69q67 -71 67 -202q0 -135 -77 -224q-27 -29 -57.5 -49t-63.5 -30t-64 -14t-68 -4q-36 0 -67 4t-67 14.5t-69 33t-58 56.5q-33 42 -51 106.5t-20 124.5z" />
<glyph unicode="&#x438;" horiz-adv-x="877" d="M130 0v1061h149v-666l-8 -116l46 110l281 610v62h150v-1061h-150v658l8 115l-46 -115l-281 -591v-67h-149z" />
<glyph unicode="&#x439;" horiz-adv-x="877" d="M130 0v1061h149v-666l-8 -116l46 110l281 610v62h150v-1061h-150v658l8 115l-46 -115l-281 -591v-67h-149zM192 1412h127q-5 -56 28 -98q35 -46 90 -46t89 46q33 42 28 98h123q0 -47 -16 -91.5t-45 -75.5q-62 -67 -179 -67q-119 0 -184 67q-29 31 -45 75.5t-16 91.5z" />
<glyph unicode="&#x43a;" horiz-adv-x="751" d="M130 0v1061h149v-441h99q38 0 64 18t42 66q11 33 22 127q9 92 22 132q33 107 130 107q17 0 54 -9v-119q-26 5 -46 -15q-10 -10 -15 -30t-11 -70q-17 -133 -26 -161q-24 -80 -104 -104v-2q97 -27 120 -151q6 -31 16.5 -126.5t21.5 -123.5q22 -51 76 -38v-119 q-26 -14 -61 -14q-112 0 -151 118q-19 61 -37 222q-1 2 -2.5 14.5t-1.5 15.5t-2 14.5t-2.5 15t-2.5 13.5t-3.5 14.5t-4 12.5t-5.5 13t-6 10.5t-7 10.5q-13 14 -34.5 24.5t-41.5 10.5h-103v-497h-149z" />
<glyph unicode="&#x43b;" horiz-adv-x="827" d="M8 0v121q49 -3 83 21.5t53 68.5q38 99 50 489q7 175 7 361h497v-1061h-150v927h-215l-8 -321q-2 -116 -18 -287q-7 -77 -23 -134t-54 -105q-85 -103 -222 -80z" />
<glyph unicode="&#x43c;" horiz-adv-x="1092" d="M130 0v1061h209l213 -810l202 810h209v-1061h-140v725l4 192l-35 -159l-196 -758h-107l-200 752l-40 163l4 -188v-727h-123z" />
<glyph unicode="&#x43d;" horiz-adv-x="868" d="M130 0v1061h149v-445h311v445h150v-1061h-150v493h-311v-493h-149z" />
<glyph unicode="&#x43e;" horiz-adv-x="847" d="M75 530q0 77 10 153t39.5 163t76.5 140q87 100 223.5 100t223.5 -100q28 -33 51 -78.5t36.5 -92.5t22.5 -99.5t12 -97t3 -88.5q0 -88 -12.5 -171.5t-41.5 -161t-71 -124.5q-41 -45 -99 -73t-124.5 -28t-124.5 28t-99 73q-62 70 -94 195t-32 262zM241 530q0 -197 30 -298 q12 -40 32 -68t42.5 -41t41.5 -18t37.5 -5t37 5t41 18t42 41t31.5 68q16 53 24 138t8 160q0 74 -8.5 161.5t-23.5 137.5q-10 35 -27.5 60.5t-34 38.5t-36 21t-31.5 10t-23 2q-8 0 -18 -1.5t-25 -5.5t-29.5 -13.5t-29.5 -23t-28.5 -36.5t-22.5 -52q-14 -50 -22 -137t-8 -162z " />
<glyph unicode="&#x43f;" horiz-adv-x="868" d="M130 0v1061h610v-1061h-150v938h-311v-938h-149z" />
<glyph unicode="&#x440;" horiz-adv-x="885" d="M130 -359v1420h139v-176q17 78 72 132q61 61 156 61q139 0 219 -117q51 -73 73 -189t22 -229q0 -106 -17.5 -216.5t-56.5 -184.5q-82 -160 -248 -160q-89 0 -146 46q-44 34 -64 80v-467h-149zM279 422q0 -79 10 -139t41 -106q48 -69 130 -69q50 0 87 24.5t57 61.5 q21 39 31.5 143t10.5 193q0 248 -52 343q-42 80 -124 80q-46 0 -78.5 -20t-50.5 -46q-31 -40 -46.5 -117t-15.5 -156v-192z" />
<glyph unicode="&#x441;" horiz-adv-x="770" d="M75 512q0 351 128 489q27 28 56 46.5t58.5 26t51 10t49.5 2.5q58 0 106.5 -14t91.5 -57q44 -43 74.5 -118t38.5 -153l-139 -30q-4 51 -23 110.5t-43 86.5q-18 22 -47 36t-61 14q-75 0 -119 -62q-56 -79 -56 -337q0 -176 10.5 -265.5t43.5 -133.5q48 -63 116 -63 q82 0 128 67q20 31 33.5 80t17.5 96l139 -18q-6 -73 -36.5 -151.5t-70.5 -121.5q-75 -80 -206 -80q-71 0 -133.5 28t-102.5 73q-105 117 -105 439z" />
<glyph unicode="&#x442;" horiz-adv-x="674" d="M8 938v123h658v-123h-255v-938h-148v938h-255z" />
<glyph unicode="&#x443;" horiz-adv-x="636" d="M-8 1061h161l172 -733l183 733h138l-303 -1163q-41 -156 -98 -219q-57 -61 -149 -61q-38 0 -86 15v133q40 -17 76 -17q37 0 56 16t35 55q24 57 38 126l30 127z" />
<glyph unicode="&#x444;" horiz-adv-x="1140" d="M75 528q0 282 130 427q113 126 292 131v347h147v-347q99 -2 172 -40t120 -91q129 -142 129 -427q0 -119 -27.5 -225t-80.5 -175q-19 -25 -43 -47t-62.5 -47t-92.5 -39.5t-115 -14.5v-339h-147v339q-62 0 -116 14.5t-92 39.5t-62 47t-43 47q-53 67 -81 175t-28 225z M238 539q0 -214 51 -305q66 -128 213 -128v855q-155 -16 -223 -148q-41 -86 -41 -274zM640 106q147 0 213 128q50 89 50 305q0 188 -42 274q-68 132 -221 148v-855z" />
<glyph unicode="&#x445;" horiz-adv-x="659" d="M4 0l249 562l-221 499h160l145 -367l135 367h144l-209 -499l249 -562h-161l-172 424l-166 -424h-153z" />
<glyph unicode="&#x446;" horiz-adv-x="845" d="M130 0v1061h147v-938h307v938h149v-938h104v-366h-129v243h-578z" />
<glyph unicode="&#x447;" horiz-adv-x="835" d="M108 664v397h149v-359q0 -29 1 -45.5t8 -40t21 -38.5q30 -30 110 -30q83 0 161 24v489h148v-1061h-148v458q-133 -34 -223 -34q-114 0 -170 58q-57 60 -57 182z" />
<glyph unicode="&#x448;" horiz-adv-x="1214" d="M130 0v1061h137v-938h272v938h138v-938h272v938h137v-1061h-956z" />
<glyph unicode="&#x449;" horiz-adv-x="1284" d="M130 0v1061h139v-938h272v938h140v-938h272v938h139v-938h105v-357h-132v234h-935z" />
<glyph unicode="&#x44a;" horiz-adv-x="977" d="M8 938v123h406v-426h162q172 0 253 -85q74 -79 74 -233q0 -125 -48 -198q-81 -119 -281 -119h-309v938h-257zM414 123h112q126 0 172 52q42 48 42 144q0 113 -55 157q-42 36 -153 36h-118v-389z" />
<glyph unicode="&#x44b;" horiz-adv-x="1120" d="M130 0v1061h141v-435h153q75 0 135.5 -17t108.5 -68q44 -46 59 -102t15 -122q0 -116 -44 -189q-39 -65 -104.5 -96.5t-171.5 -31.5h-292zM271 123h111q27 0 45.5 1.5t43.5 6t45 16t36 28.5q40 45 40 136q0 111 -53 155q-45 38 -159 38h-109v-381zM851 0v1061h141v-1061 h-141z" />
<glyph unicode="&#x44c;" horiz-adv-x="841" d="M130 0v1061h147v-426h164q172 0 253 -85q73 -77 73 -233q0 -126 -48 -198q-77 -119 -280 -119h-309zM277 123h114q126 0 171 52q42 48 42 144q0 113 -54 157q-42 36 -153 36h-120v-389z" />
<glyph unicode="&#x44d;" horiz-adv-x="829" d="M75 321l152 14q-1 -41 6 -86t24 -74q43 -75 138 -75q110 0 159 97q25 49 34.5 134.5t7.5 155.5h-301v123h301q1 57 -10.5 134.5t-33.5 122.5q-42 94 -151 94q-38 0 -71 -15.5t-53 -40.5q-23 -29 -36.5 -82t-13.5 -96l-145 17q3 60 24.5 124t56.5 107q43 53 110 82t147 29 q156 0 240 -125q30 -44 50.5 -105.5t29 -125.5t11.5 -109.5t3 -90.5q0 -299 -94 -428q-94 -130 -269 -130q-153 0 -236 97q-39 49 -60 118.5t-20 133.5z" />
<glyph unicode="&#x44e;" horiz-adv-x="1150" d="M130 0v1061h139v-445h138q0 61 12.5 128.5t40 135t64.5 108.5q86 98 220 98q132 0 215 -100q31 -37 54.5 -90.5t35 -101.5t18 -105t8 -90t1.5 -67q0 -312 -117 -459q-40 -46 -97 -73.5t-125 -27.5q-132 0 -221 110q-53 68 -83 186t-28 225h-136v-493h-139zM562 526 q0 -71 8 -157t22 -135q11 -42 31 -71t42.5 -41.5t40 -17t34.5 -4.5q20 0 39 5.5t40 19t38.5 41t27.5 66.5q32 110 32 298q0 74 -8.5 160.5t-23.5 138.5q-12 41 -30.5 69t-40 40.5t-38.5 17.5t-34 5q-20 0 -39 -5.5t-41 -19t-40.5 -42t-29.5 -69.5q-13 -52 -21.5 -141.5 t-8.5 -157.5z" />
<glyph unicode="&#x44f;" horiz-adv-x="843" d="M28 0l219 478q-67 20 -113 74q-72 82 -72 215q0 161 107 240q27 19 54.5 31t60 16.5t54 5.5t61.5 1h315v-1061h-148v468h-167l-198 -468h-173zM217 758q0 -76 34 -118q28 -35 66 -46.5t86 -11.5h163v356h-159q-47 0 -82.5 -8.5t-63.5 -38.5q-44 -50 -44 -133z" />
<glyph unicode="&#x451;" horiz-adv-x="809" d="M75 510q0 309 113 457q27 37 58 62t62 37t57.5 16t56.5 4q43 0 78.5 -6.5t80.5 -31.5t81 -68q113 -136 107 -468h-537q-2 -52 2.5 -109.5t19 -122t37.5 -98.5q26 -39 67.5 -60.5t86.5 -21.5q31 0 62.5 13t52.5 37q38 43 66 163l130 -36q-19 -88 -58 -156 q-85 -149 -251 -149q-94 0 -161.5 30t-118.5 106q-92 134 -92 402zM207 1258v175h154v-175h-154zM236 635h368q-3 106 -14 163t-32 89q-14 22 -33.5 38t-45 26t-53.5 10q-41 0 -77.5 -21.5t-59.5 -60.5q-22 -35 -34 -90.5t-19 -153.5zM497 1258v175h155v-175h-155z" />
<glyph unicode="&#x452;" horiz-adv-x="839" d="M4 1174v119h119v140h148v-140h307v-119h-307v-319q7 28 18 54t30 52.5t42.5 45.5t57 31.5t72.5 12.5q68 0 114 -26.5t70 -61.5q20 -29 31 -70.5t15 -94t4 -130.5v-597q0 -228 -46 -314q-6 -12 -14.5 -24t-20.5 -26t-28 -25.5t-35.5 -21.5t-44.5 -15.5t-54 -5.5 q-48 0 -102 18v136q43 -16 90 -16q34 0 61 19.5t37 63.5q8 27 8 215v553q0 165 -20 220q-27 73 -103 73q-62 0 -104 -48q-41 -47 -59.5 -148.5t-18.5 -190.5v-534h-148v1174h-119z" />
<glyph unicode="&#x453;" horiz-adv-x="672" d="M130 0v1061h534v-123h-387v-938h-147zM213 1252l293 273l96 -119l-333 -224z" />
<glyph unicode="&#x454;" horiz-adv-x="829" d="M75 530q0 45 3 90.5t11.5 109.5t29 125.5t50.5 105.5q84 125 240 125q40 0 78 -7.5t70.5 -22t60 -35t48.5 -46.5q36 -43 57 -107t25 -124l-146 -17q0 43 -13.5 96t-36.5 82q-20 25 -53 40.5t-71 15.5q-109 0 -151 -94q-22 -45 -33.5 -122.5t-9.5 -134.5h300v-123h-300 q-1 -30 0 -65.5t5 -77.5t13.5 -81.5t22.5 -65.5q49 -97 160 -97q94 0 137 75q18 29 25 74t5 86l152 -14q1 -64 -19.5 -133.5t-59.5 -118.5q-82 -97 -236 -97q-176 0 -270 130q-94 129 -94 428z" />
<glyph unicode="&#x455;" horiz-adv-x="697" d="M28 269l131 36q3 -42 22 -87.5t46 -71.5q50 -46 130 -46q30 0 56 8t41.5 19.5t25.5 25.5q36 45 36 110q0 46 -13.5 78.5t-47.5 61.5q-14 12 -28.5 22.5t-38.5 23.5t-33.5 18t-46 23.5t-43.5 21.5q-32 16 -55.5 30.5t-53 39.5t-48.5 53t-32.5 70t-13.5 91q0 62 24.5 122 t68.5 101q43 40 90.5 53.5t105.5 13.5q57 0 104 -13t93 -52q41 -37 62 -81.5t38 -118.5l-130 -36q-5 37 -22 77t-43 63q-41 36 -100 36q-38 0 -68.5 -15t-46.5 -37q-29 -38 -29 -94q0 -44 13.5 -75.5t48.5 -60.5q13 -10 30.5 -20.5t32 -18t40.5 -20.5l44 -22l12 -6 q106 -58 138 -84q39 -31 62.5 -68.5t31.5 -73.5t8 -81q0 -72 -21.5 -131t-58.5 -96q-39 -40 -99.5 -63t-131.5 -23q-192 0 -277 141q-44 71 -54 156z" />
<glyph unicode="&#x456;" horiz-adv-x="406" d="M123 1250v183h162v-183h-162zM130 0v1061h147v-1061h-147z" />
<glyph unicode="&#x457;" horiz-adv-x="644" d="M123 1250v183h152v-183h-152zM247 0v1061h148v-1061h-148zM369 1250v183h153v-183h-153z" />
<glyph unicode="&#x458;" horiz-adv-x="402" d="M-62 -238h72q22 0 34 1t31 10t31 26q12 19 15.5 52.5t3.5 116.5v1093h148v-1099v-11q0 -42 -0.5 -65t-4 -62t-11 -63.5t-22.5 -51.5t-36 -44q-9 -6 -18 -11.5t-20.5 -9.5t-20.5 -7t-22.5 -4.5t-20.5 -2.5t-21.5 -1.5t-19.5 -0.5h-19.5h-16.5h-82v134zM119 1252v181h160 v-181h-160z" />
<glyph unicode="&#x459;" horiz-adv-x="1315" d="M8 0v121q49 -3 83 21.5t53 68.5q38 99 50 489q7 175 7 361h497v-426h163q172 0 253 -85q72 -76 72 -233q0 -126 -48 -198q-76 -119 -279 -119h-311v927h-215l-8 -321q-2 -116 -18 -287q-7 -77 -23 -134t-54 -105q-85 -103 -222 -80zM698 123h113q126 0 171 52 q42 48 42 144q0 54 -14.5 95t-40.5 62q-42 36 -152 36h-119v-389z" />
<glyph unicode="&#x45a;" horiz-adv-x="1357" d="M130 0v1061h149v-437h311v437h150v-437h163q75 0 139 -17.5t114 -67.5q72 -76 72 -222q0 -123 -48 -198q-77 -119 -279 -119h-311v502h-311v-502h-149zM740 123h117q122 0 167 52q20 23 30.5 62.5t10.5 81.5q0 98 -54 145q-17 14 -34 22.5t-41 11.5t-35 3.5t-42 0.5h-119 v-379z" />
<glyph unicode="&#x45b;" horiz-adv-x="839" d="M4 1174v119h119v140h148v-140h307v-119h-307v-315q19 80 80 138q33 30 65.5 42t76.5 12q121 0 179 -84q33 -47 43 -125t10 -224v-618h-149v618q0 207 -28 253q-13 22 -39 36t-60 14q-74 0 -119 -73q-31 -53 -45 -151.5t-14 -182.5v-514h-148v1174h-119z" />
<glyph unicode="&#x45c;" horiz-adv-x="751" d="M130 0v1061h149v-441h99q38 0 64 18t42 66q11 33 22 127q9 92 22 132q33 107 130 107q17 0 54 -9v-119q-26 5 -46 -15q-10 -10 -15 -30t-11 -70q-17 -133 -26 -161q-24 -80 -104 -104v-2q97 -27 120 -151q6 -31 16.5 -126.5t21.5 -123.5q22 -51 76 -38v-119 q-26 -14 -61 -14q-112 0 -151 118q-19 61 -37 222q-1 2 -2.5 14.5t-1.5 15.5t-2 14.5t-2.5 15t-2.5 13.5t-3.5 14.5t-4 12.5t-5.5 13t-6 10.5t-7 10.5q-13 14 -34.5 24.5t-41.5 10.5h-103v-497h-149zM265 1252l293 273l96 -119l-333 -224z" />
<glyph unicode="&#x45e;" horiz-adv-x="636" d="M-8 1061h161l172 -733l183 733h138l-303 -1163q-41 -156 -98 -219q-57 -61 -149 -61q-38 0 -86 15v133q40 -17 76 -17q37 0 56 16t35 55q24 57 38 126l30 127zM96 1408h123q0 -59 19 -94q27 -46 81.5 -46t81.5 46q19 37 19 94h123q0 -30 -6.5 -59.5t-19.5 -56.5t-30 -47 q-60 -67 -168 -67q-106 0 -166 67q-18 20 -31 47t-19.5 57t-6.5 59z" />
<glyph unicode="&#x45f;" horiz-adv-x="868" d="M130 0v1061h149v-931h311v931h150v-1061h-238v-293h-135v293h-237z" />
<glyph unicode="&#x490;" horiz-adv-x="776" d="M140 0v1433h488v247h151v-387h-474v-1293h-165z" />
<glyph unicode="&#x491;" horiz-adv-x="672" d="M130 0v1061h392v255h142v-378h-387v-938h-147z" />
<glyph unicode="&#x2000;" horiz-adv-x="925" />
<glyph unicode="&#x2001;" horiz-adv-x="1851" />
<glyph unicode="&#x2002;" horiz-adv-x="925" />
<glyph unicode="&#x2003;" horiz-adv-x="1851" />
<glyph unicode="&#x2004;" horiz-adv-x="617" />
<glyph unicode="&#x2005;" horiz-adv-x="462" />
<glyph unicode="&#x2006;" horiz-adv-x="308" />
<glyph unicode="&#x2007;" horiz-adv-x="308" />
<glyph unicode="&#x2008;" horiz-adv-x="231" />
<glyph unicode="&#x2009;" horiz-adv-x="370" />
<glyph unicode="&#x200a;" horiz-adv-x="102" />
<glyph unicode="&#x2010;" horiz-adv-x="515" d="M75 474v132h366v-132h-366z" />
<glyph unicode="&#x2011;" horiz-adv-x="515" d="M75 474v132h366v-132h-366z" />
<glyph unicode="&#x2012;" horiz-adv-x="515" d="M75 474v132h366v-132h-366z" />
<glyph unicode="&#x2013;" horiz-adv-x="772" d="M75 474v132h623v-132h-623z" />
<glyph unicode="&#x2014;" horiz-adv-x="1176" d="M75 474v132h1026v-132h-1026z" />
<glyph unicode="&#x2018;" horiz-adv-x="404" d="M96 977v205l125 263h88l-96 -245h74v-223h-191z" />
<glyph unicode="&#x2019;" horiz-adv-x="293" d="M40 967l98 245h-74v221h191v-205l-125 -261h-90z" />
<glyph unicode="&#x201c;" horiz-adv-x="701" d="M96 977v205l125 263h88l-96 -245h76v-223h-193zM391 977v205l123 263h92l-100 -245h74v-223h-189z" />
<glyph unicode="&#x201d;" horiz-adv-x="701" d="M96 967l101 245h-78v221h190v-205l-121 -261h-92zM391 967l98 245h-75v221h192v-205l-126 -261h-89z" />
<glyph unicode="&#x201e;" horiz-adv-x="701" d="M96 -247l101 247h-78v221h190v-205l-121 -263h-92zM391 -247l98 247h-75v221h192v-205l-126 -263h-89z" />
<glyph unicode="&#x2022;" horiz-adv-x="1449" d="M430 731q0 125 88 213t209 88t206.5 -87.5t85.5 -213.5q0 -58 -18.5 -108.5t-48.5 -85t-68.5 -59.5t-78.5 -36.5t-78 -11.5q-121 0 -209 89t-88 212z" />
<glyph unicode="&#x2026;" horiz-adv-x="1987" d="M243 0v230h185v-230h-185zM903 0v230h183v-230h-183zM1561 0v230h185v-230h-185z" />
<glyph unicode="&#x202f;" horiz-adv-x="370" />
<glyph unicode="&#x205f;" horiz-adv-x="462" />
<glyph unicode="&#x20ac;" horiz-adv-x="919" d="M8 522l46 126h88q-3 76 0 165h-132l46 125h97q7 107 40.5 222.5t88.5 182.5q95 118 252 118q121 0 233 -57q80 -43 136 -96l-52 -144q-64 67 -135 108q-35 21 -86 37.5t-98 16.5q-39 0 -71 -14t-52.5 -34.5t-36 -50.5t-23.5 -54t-14 -53q-20 -96 -24 -182h458l-48 -125 h-416q-5 -69 2 -165h355l-46 -126h-303q9 -124 26 -197q14 -64 38.5 -109t55 -68t59 -32.5t60.5 -9.5q52 0 116 28q125 53 205 163v-182q-62 -62 -125 -92q-28 -13 -67.5 -25t-79.5 -19t-69 -7q-91 0 -159.5 41.5t-111.5 101.5q-38 53 -65 136.5t-36.5 148.5t-11.5 122h-140 z" />
<glyph unicode="&#x2122;" horiz-adv-x="1212" d="M2 1285v104h449v-104h-162v-713h-126v713h-161zM497 572v817h161l155 -602l152 602h161v-817h-123l6 610l-158 -610h-91l-152 612l6 -612h-117z" />
<glyph unicode="&#x25fc;" horiz-adv-x="1064" d="M0 0v1065h1065v-1065h-1065z" />
</font>
</defs>
</svg>
