<?xml version="1.0" standalone="no"?>
<!DOCTYPE svg PUBLIC "-//W3C//DTD SVG 1.1//EN" "http://www.w3.org/Graphics/SVG/1.1/DTD/svg11.dtd" >
<svg xmlns="http://www.w3.org/2000/svg">
<metadata></metadata>
<defs>
<font id="franklingothicbookcregular" horiz-adv-x="1252" >
<font-face units-per-em="2048" ascent="1655" descent="-393" />
<missing-glyph horiz-adv-x="486" />
<glyph horiz-adv-x="0" />
<glyph horiz-adv-x="682" />
<glyph unicode=" "  horiz-adv-x="486" />
<glyph unicode="&#x09;" horiz-adv-x="486" />
<glyph unicode="&#xa0;" horiz-adv-x="486" />
<glyph unicode="!" horiz-adv-x="626" d="M182 1433h246l-75 -1076h-96zM194 0v223h222v-223h-222z" />
<glyph unicode="&#x22;" horiz-adv-x="753" d="M113 1433h196l-56 -514h-84zM445 1433h197l-58 -514h-82z" />
<glyph unicode="#" d="M75 432v132h246l61 333h-229v131h256l75 405h142l-74 -405h275l76 405h141l-75 -405h209v-131h-236l-61 -333h228v-132h-252l-84 -432h-143l84 432h-275l-84 -432h-142l84 432h-222zM464 564h276l60 333h-276z" />
<glyph unicode="$" horiz-adv-x="1216" d="M123 374l142 54q37 -106 116.5 -174t190.5 -72v495q-67 15 -120 32.5t-106 46.5t-88 66t-56.5 91.5t-21.5 120.5q0 73 27 139t76.5 117t124.5 82.5t164 35.5v173h128v-173q87 -2 164 -32t141.5 -92.5t99.5 -151.5l-142 -48q-28 88 -100.5 134.5t-162.5 51.5v-449 q438 -74 438 -393q0 -69 -26.5 -132.5t-78 -116.5t-137 -89t-194.5 -46v-201h-130v201q-154 9 -275.5 94t-173.5 236zM335 1059q0 -87 65 -149.5t172 -70.5v431q-105 -3 -171 -65.5t-66 -145.5zM700 182q118 -2 194.5 65t76.5 160q0 49 -19.5 89.5t-48.5 66.5t-67 45 t-71 27.5t-65 12.5v-466z" />
<glyph unicode="%" horiz-adv-x="1515" d="M82 1078.5q0 107.5 32 191t99 134t161 50.5t161 -50.5t99 -134t32 -191.5t-32 -191.5t-99 -134t-161 -50.5t-161 50.5t-99 134.5t-32 191.5zM211 1078q0 -76 13.5 -130t37.5 -83t51.5 -41.5t60.5 -12.5q27 0 49.5 7.5t44 26t36.5 48t24 77t9 108.5q0 76 -13.5 130.5 t-37 83t-51 41t-61 12.5t-61 -12.5t-51.5 -41t-37.5 -83t-13.5 -130.5zM249 0l867 1433h152l-867 -1433h-152zM851 355q0 108 31.5 191.5t98.5 134t161 50.5q71 0 127.5 -29t92.5 -80t54.5 -119t18.5 -148q0 -108 -32 -191.5t-99.5 -133.5t-161.5 -50t-161 50t-98.5 133.5 t-31.5 191.5zM980 355q0 -76 13.5 -130.5t37 -83t51 -41t61 -12.5t61 12.5t51.5 41t37.5 83t13.5 130.5q0 61 -9.5 108.5t-24.5 77t-36.5 48.5t-44 26t-49.5 7q-33 0 -60.5 -12.5t-51 -41t-37 -83t-13.5 -130.5z" />
<glyph unicode="&#x26;" horiz-adv-x="1443" d="M96 401q0 23 2.5 45.5t11.5 57.5t23.5 67t42.5 70t64.5 70.5t92.5 64.5t125 55l-30 42q-58 85 -88.5 149.5t-30.5 128.5q0 36 8.5 72t26 70t46 63t66 51t88 34.5t110.5 12.5q96 0 170.5 -26t118.5 -69t66.5 -96t22.5 -112t-18.5 -110t-50 -89.5t-78 -71.5t-95.5 -56.5 t-109 -44.5l294 -440q156 173 207 444l155 -31q-72 -317 -259 -520q39 -54 73.5 -68t93.5 -14q54 0 117 11v-151q-34 -3 -63 -7t-47 -5.5t-48 -1.5q-29 0 -54.5 5t-41 9.5t-36.5 19t-27.5 19.5t-27.5 25.5t-25 23.5l-25 23q-162 -141 -389 -141q-93 0 -173 24t-136 65 t-95.5 95t-58.5 114t-19 123zM289 424q0 -56 20 -107.5t58.5 -92.5t100 -65.5t138.5 -24.5q151 0 263 96l-335 486q-65 -17 -127 -62q-118 -87 -118 -230zM489 1146q0 -24 4.5 -46.5t18.5 -50t19.5 -38.5t29 -46t25.5 -38l28 -42l42 24q10 5 24 12.5t25 13t24 13t24 14.5 t22 16t21 19t19 22q38 55 38 117q0 73 -55 118t-140 45q-75 0 -122 -41.5t-47 -111.5z" />
<glyph unicode="'" horiz-adv-x="626" d="M215 1433h196l-56 -514h-84z" />
<glyph unicode="(" horiz-adv-x="580" d="M88 541q0 102 16.5 208.5t52 221.5t96.5 234.5t144 227.5h109q-65 -100 -114.5 -207.5t-77 -198t-44.5 -184.5t-22 -161t-5 -132q0 -68 5 -136.5t22 -165t45 -189.5t77.5 -203.5t115.5 -212.5h-109q-74 90 -130.5 191t-90 191.5t-54.5 186.5t-28.5 173.5t-7.5 155.5z" />
<glyph unicode=")" horiz-adv-x="580" d="M73 -357q66 102 115.5 212.5t77.5 203.5t45 189.5t22.5 165t5.5 136.5q0 65 -5.5 132t-22.5 161t-44.5 184.5t-76.5 198t-115 207.5h109q108 -143 179.5 -306t100.5 -305.5t29 -280.5q0 -78 -8 -155.5t-29 -173.5t-54.5 -186.5t-90 -191.5t-129.5 -191h-109z" />
<glyph unicode="*" horiz-adv-x="1140" d="M153 825l319 167l-319 168l64 106l307 -192l-14 359h120l-14 -359l307 192l65 -106l-320 -168l320 -167l-65 -106l-307 192l14 -357h-120l14 357l-307 -192z" />
<glyph unicode="+" horiz-adv-x="1342" d="M132 534v136h472v472h136v-472h472v-136h-472v-472h-136v472h-472z" />
<glyph unicode="," horiz-adv-x="538" d="M138 -253l123 253h-86v207h210v-179l-168 -281h-79z" />
<glyph unicode="-" horiz-adv-x="653" d="M104 472v130h446v-130h-446z" />
<glyph unicode="." horiz-adv-x="540" d="M155 0v236h232v-236h-232z" />
<glyph unicode="/" horiz-adv-x="1088" d="M44 -357l865 1790h142l-865 -1790h-142z" />
<glyph unicode="0" horiz-adv-x="1244" d="M86 710q0 121 28 254t95 242q153 248 413 248q261 0 414 -248q46 -75 75 -170.5t39 -173t10 -152.5q0 -78 -12 -155t-27.5 -129t-36 -101.5t-31.5 -69.5t-21 -36q-35 -58 -79.5 -102.5t-86.5 -69.5t-88.5 -41t-82.5 -21t-72.5 -5t-72.5 5t-82.5 21t-88.5 41t-86 69.5 t-80 102.5q-8 13 -16 28.5t-24.5 49.5t-30 75.5t-27.5 92.5t-21.5 115t-7.5 130zM265 723q0 -265 86 -424q93 -174 271 -174q49 0 92.5 14.5t71.5 33.5t52.5 46.5t35 44t21.5 35.5q85 159 85 424q0 130 -26.5 254t-90.5 205q-46 57 -111 91.5t-130 34.5t-129.5 -34.5 t-110.5 -91.5q-63 -81 -90 -205t-27 -254z" />
<glyph unicode="1" d="M159 0v155h427v1061q-180 -190 -394 -305v177q279 140 438 345h137v-1278h395v-155h-1003z" />
<glyph unicode="2" d="M121 0v148l579 456q120 94 188.5 194.5t68.5 216.5q0 131 -100 211q-90 73 -227 73q-89 0 -161 -38.5t-118 -102.5q-54 -77 -62 -174l-168 50q25 131 104 234q144 186 415 186q34 0 62 -2t64.5 -8t69 -16.5t69 -29.5t70.5 -44q161 -122 161 -328q0 -267 -313 -508 l-474 -363h789v-155h-1017z" />
<glyph unicode="3" d="M84 325l167 57q14 -57 44 -101t83 -80q58 -39 116 -55t130 -16q169 0 261 64q25 17 45.5 40.5t38 67t17.5 93.5q0 41 -11.5 76.5t-31.5 61.5t-40 43.5t-42 31.5q-105 60 -287 60h-137v147h137q158 0 230 38q129 72 129 198q0 119 -94 187q-86 61 -209 61q-116 0 -204 -61 q-82 -58 -129 -156l-167 46q64 154 203 245q126 81 307 81q179 0 307 -84q42 -28 73 -63.5t47.5 -67t26.5 -66.5t12.5 -57.5t2.5 -45.5q0 -119 -79 -204.5t-197 -113.5q78 -10 142 -42.5t105 -80t63.5 -106t22.5 -122.5q0 -66 -23 -127.5t-58.5 -107t-81.5 -78.5 q-79 -59 -185 -83.5t-204 -24.5q-161 1 -313 80q-155 91 -217 265z" />
<glyph unicode="4" d="M71 335v118l656 980h230v-953h233v-145h-233v-335h-180v335h-706zM253 480h524v813z" />
<glyph unicode="5" d="M100 317l155 52q20 -64 82 -126q56 -56 121 -82.5t152 -26.5q180 0 279 119q84 101 84 223q0 153 -100 247q-43 42 -104.5 68t-130.5 26q-95 0 -184.5 -47t-148.5 -137l-142 29l48 771h848l-15 -155h-703l-32 -461q152 154 345 154q90 0 178 -29.5t158 -90.5 q47 -40 80 -88.5t50.5 -97.5t25 -93t7.5 -88q0 -209 -146 -352q-156 -152 -405 -152q-211 0 -366 135q-93 85 -136 202z" />
<glyph unicode="6" d="M84 679q0 28 0.5 53.5t7 87.5t17.5 116.5t35 124t57 125.5q156 268 463 268q71 0 133 -14.5t106 -35.5t81.5 -52t60.5 -58.5t42 -61.5t27.5 -54t15.5 -42l-150 -44q-37 93 -115.5 150t-196.5 57q-215 0 -323 -213q-26 -50 -43.5 -110t-24.5 -109.5t-11.5 -98.5t-3 -76.5 t0.5 -43.5q59 130 177 209t262 79q97 0 184 -36.5t149 -99t98.5 -149t36.5 -183.5q0 -103 -41 -194t-111 -155.5t-165.5 -101.5t-200.5 -37q-30 0 -60.5 3t-70 11t-79 24.5t-79.5 40t-79 60.5t-71 84q-129 191 -129 476zM311 441q0 -64 29 -127.5t76 -102.5 q44 -36 109 -56.5t127 -20.5q142 0 240 93.5t98 230.5q0 135 -93 229t-229 94q-93 0 -175 -44.5t-132 -123.5t-50 -172z" />
<glyph unicode="7" d="M144 1278l19 155h946v-109q-79 -94 -150.5 -200.5t-122 -199.5t-86.5 -178q-79 -186 -116 -367.5t-34 -378.5h-184q4 469 228 875q106 192 277 403h-777z" />
<glyph unicode="8" d="M73 367q0 61 22.5 116.5t57.5 96t81.5 74t90.5 54.5t89 36q-115 41 -192.5 132.5t-77.5 207.5q0 51 16.5 101t55.5 99t95 86t141.5 60.5t189.5 23.5q137 0 245 -43t169.5 -124.5t61.5 -187.5q0 -46 -11 -86.5t-31 -73t-46 -60t-57.5 -48.5t-64.5 -36.5t-69 -25.5 q76 -30 133.5 -64t106.5 -80t75 -107t26 -133q0 -63 -20.5 -121.5t-64.5 -110t-106.5 -90t-152.5 -61t-196 -22.5q-92 0 -173 15t-142 42.5t-109.5 64t-79 80t-47 90.5t-16.5 95zM253 382q0 -22 4.5 -44.5t16 -48t29.5 -48.5t47.5 -44.5t66.5 -37t90 -25t115 -9.5 q85 0 152.5 16.5t108.5 41.5t68.5 58.5t38.5 65t11 62.5q0 46 -21.5 86.5t-52.5 69t-78.5 54.5t-87.5 42t-91 33l-58 18q-124 -26 -219 -82q-44 -26 -74 -57t-43 -60t-18 -50t-5 -41zM319 1088q0 -22 5.5 -43.5t22 -50t43.5 -53t75 -50.5t111 -45l48 -15q86 18 149.5 46 t99.5 61.5t52.5 68t16.5 71.5q0 35 -10 67.5t-34 62.5t-59.5 51.5t-90.5 35t-124 13.5q-66 0 -120 -14t-87.5 -36.5t-56 -52t-32 -58.5t-9.5 -59z" />
<glyph unicode="9" d="M84 963q0 106 41.5 198t112 156t166 100.5t202.5 36.5q71 0 135.5 -15t109.5 -37t84.5 -52t63 -55.5t41.5 -53.5q64 -91 97 -227.5t33 -259.5q0 -139 -30.5 -275t-86.5 -232q-156 -267 -463 -267q-67 0 -126 12t-101 31t-78.5 46.5t-59.5 52.5t-43 55.5t-29 49.5t-17 40 l143 52q18 -33 41 -62t59.5 -59t89 -47t115.5 -17q102 0 177 43t130 132q61 97 79.5 204.5t19.5 271.5q-59 -130 -177 -209t-261 -79q-65 0 -126 16.5t-112.5 46.5t-94.5 73t-72.5 94t-46 111.5t-16.5 124.5zM263 975q0 -39 10.5 -80t30 -77.5t45.5 -65.5q45 -50 107 -75 t128 -25q47 0 95.5 13t96 40.5t84.5 66.5t59.5 96.5t22.5 123.5q0 96 -46 166.5t-124.5 105.5t-177.5 35q-130 0 -225 -83q-35 -31 -59.5 -72t-35.5 -83t-11 -86z" />
<glyph unicode=":" horiz-adv-x="538" d="M155 0v236h230v-236h-230zM155 825v236h230v-236h-230z" />
<glyph unicode=";" horiz-adv-x="538" d="M138 -269l125 269h-108v241h230v-215l-158 -295h-89zM155 825v236h230v-236h-230z" />
<glyph unicode="&#x3c;" d="M115 566v72l1021 432v-130l-825 -338l825 -339v-129z" />
<glyph unicode="=" horiz-adv-x="1342" d="M132 333v135h1080v-135h-1080zM132 737v136h1080v-136h-1080z" />
<glyph unicode="&#x3e;" d="M117 134v129l816 339l-816 338v130l1021 -432v-72z" />
<glyph unicode="?" horiz-adv-x="1090" d="M44 1032q25 197 157.5 309.5t332.5 112.5q71 0 133 -13t108.5 -35.5t85 -53.5t64.5 -66.5t44 -75.5t26 -80t8 -79q0 -69 -20.5 -127.5t-59 -103.5t-83 -79t-103.5 -66q-37 -20 -63 -36t-45.5 -29t-31 -28t-19 -25.5t-10.5 -28t-3.5 -29.5t-0.5 -37v-107h-150v90v39.5 t1 37t3.5 37.5t7 34.5t11 35t17 31t24 31.5t31.5 27.5t41 27.5l92 52q36 20 63.5 41t55.5 51.5t43 71t15 87.5q0 85 -48 148q-37 50 -101.5 79.5t-147.5 29.5q-178 0 -265 -144q-46 -76 -56 -163zM382 0v205h214v-205h-214z" />
<glyph unicode="@" horiz-adv-x="1687" d="M88 679q0 98 20 187.5t56 159.5t75 122.5t86 96.5q224 209 564 209q101 0 189.5 -18t156 -49.5t117 -66.5t89.5 -77q74 -76 116.5 -179.5t42.5 -221.5q0 -107 -32.5 -206.5t-88.5 -165.5q-57 -63 -139.5 -107t-173.5 -44q-92 0 -141.5 34t-65.5 86q-102 -120 -243 -120 q-50 0 -98 20t-84 54q-38 37 -60.5 98.5t-22.5 130.5q0 42 10.5 89t32.5 100t63.5 106t96.5 94q107 77 215 77q168 0 217 -143l38 116h138l-163 -505q-11 -36 -11 -44q0 -86 84 -86q61 0 117 29.5t94 78.5q42 54 63 128t21 147q0 163 -90 290q-72 100 -213.5 165t-317.5 65 q-91 0 -176.5 -24.5t-149 -63t-113.5 -88.5q-173 -176 -173 -466q0 -46 3.5 -87t15 -90t30 -91.5t51 -87.5t75.5 -84q160 -143 416 -143q184 0 333 63l48 -117q-32 -13 -52 -20.5t-70 -21.5t-116 -21t-145 -7q-266 0 -460 141q-275 204 -275 558zM598 608q0 -78 44 -130 q46 -52 106 -52q55 0 93 25.5t70 66.5q54 70 85.5 162t31.5 159q0 57 -39.5 95.5t-101.5 38.5q-109 0 -187 -86q-46 -51 -74 -130t-28 -149z" />
<glyph unicode="A" horiz-adv-x="1168" d="M26 0l463 1433h207l466 -1433h-197l-134 416h-514l-129 -416h-162zM359 562h428l-213 679z" />
<glyph unicode="B" horiz-adv-x="1313" d="M184 0v1433h547q33 0 53 -0.5t58.5 -4.5t68 -11t66 -21.5t65.5 -35.5q57 -40 95.5 -107t38.5 -165q0 -164 -111 -257q-52 -42 -138 -68v-5q96 -18 163 -75q60 -47 97 -122t37 -172q0 -99 -40 -176t-98 -121q-39 -32 -84.5 -52t-96.5 -28t-85 -10t-87 -2h-549zM363 155 h358q145 0 221 58q12 8 25 21.5t29 37.5t26 60.5t10 78.5q0 113 -71 185q-28 29 -61.5 47t-73 24.5t-64 8t-66.5 1.5h-333v-522zM363 823h301q52 0 87.5 3t84 18.5t83.5 44.5q78 66 78 172q0 111 -84 169q-46 30 -97.5 39t-121.5 9h-331v-455z" />
<glyph unicode="C" horiz-adv-x="1260" d="M92 740q0 74 8.5 143t24 121.5t32 95t37 76t34 53t27.5 35.5q162 190 432 190q100 0 187 -27.5t166 -100.5q31 -30 58 -65.5t48.5 -77t36.5 -89.5t21 -97l-170 -32q-20 103 -75 186q-52 77 -118.5 112.5t-157.5 35.5q-212 0 -320 -190q-78 -135 -78 -378q0 -229 66 -370 q22 -46 50.5 -84.5t68.5 -72t95 -52t118 -18.5q77 0 133 26t105 81q93 106 119 241l164 -35q-38 -189 -162 -319q-30 -32 -61 -56.5t-61.5 -40t-59 -26.5t-58.5 -16t-55.5 -7t-54.5 -2q-38 0 -70.5 3t-75 11t-81.5 25.5t-80.5 43.5t-81.5 67.5t-76 94.5q-44 68 -74.5 153.5 t-45.5 176.5t-15 185z" />
<glyph unicode="D" horiz-adv-x="1395" d="M184 0v1433h474q292 0 472 -203q21 -23 40 -49.5t45 -74t44 -100t31.5 -127.5t13.5 -156q0 -107 -23.5 -217.5t-68.5 -198.5q-30 -58 -68 -105t-75.5 -78.5t-82.5 -54.5t-84 -36t-84 -21t-78.5 -10t-71.5 -2h-484zM363 155h251q26 0 47.5 1t53.5 5t59.5 11.5t61 21 t61.5 32t58 47t54 64.5q57 84 80 189.5t23 202.5q0 127 -35 230.5t-95 172.5q-32 38 -70.5 65.5t-73 43t-74.5 24t-70 11t-66 2.5h-265v-1123z" />
<glyph unicode="E" horiz-adv-x="1184" d="M184 0v1433h906v-155h-727v-455h577v-146h-577v-522h749v-155h-928z" />
<glyph unicode="F" horiz-adv-x="1098" d="M184 0v1433h877v-155h-698v-455h579v-146h-579v-677h-179z" />
<glyph unicode="G" horiz-adv-x="1399" d="M92 702q0 127 35 262.5t100 232.5q23 33 50 63.5t73 67t97.5 63t124.5 45t153 18.5q219 0 363 -136q54 -52 91.5 -123t50.5 -153l-169 -41q-12 74 -58 145q-30 43 -68.5 75t-100.5 55t-134 23q-64 0 -120 -18t-96 -49t-68 -63t-49 -68q-33 -59 -53 -143t-24.5 -141.5 t-4.5 -114.5q0 -220 84 -365q19 -33 42 -61t55 -55t68.5 -45.5t83.5 -30t98 -11.5q149 0 251 104q98 100 98 255v79h-361v151h541v-733h-111l-48 177q-54 -78 -133 -123q-116 -64 -274 -64q-267 0 -430 206q-80 100 -118.5 238t-38.5 278z" />
<glyph unicode="H" horiz-adv-x="1395" d="M184 0v1433h179v-602h669v602h180v-1433h-180v685h-669v-685h-179z" />
<glyph unicode="I" horiz-adv-x="546" d="M184 0v1433h179v-1433h-179z" />
<glyph unicode="J" horiz-adv-x="807" d="M0 8v155q85 -29 184 -29q129 0 201 65q26 25 42.5 53.5t23 64.5t8 59.5t1.5 66.5v990h180v-965q0 -118 -17 -197t-71 -148q-114 -143 -343 -143q-98 0 -209 28z" />
<glyph unicode="K" horiz-adv-x="1330" d="M184 0v1433h179v-829h4l638 829h199l-387 -502l499 -931h-198l-426 789l-329 -407v-382h-179z" />
<glyph unicode="L" horiz-adv-x="1064" d="M184 0v1433h179v-1278h673v-155h-852z" />
<glyph unicode="M" horiz-adv-x="1754" d="M184 0v1433h263l430 -1146h4l427 1146h263v-1433h-180v1252h-4l-460 -1252h-120l-470 1252h-2v-1252h-151z" />
<glyph unicode="N" horiz-adv-x="1419" d="M184 0v1433h225l681 -1168h4q-8 48 -8 115v1053h150v-1433h-175l-700 1202l-31 48h-5q10 -66 10 -130v-1120h-151z" />
<glyph unicode="O" horiz-adv-x="1361" d="M92 716.5q0 193.5 55 343.5t150 244q154 150 384 150t384 -150q95 -94 150 -244t55 -344q0 -130 -26.5 -243.5t-71.5 -197.5t-107 -145q-154 -150 -384 -150t-384 150q-95 93 -150 243t-55 343.5zM285 716q0 -76 9 -144.5t22 -113.5t31 -85.5t30.5 -60t25.5 -37.5 q108 -141 278 -141q169 0 278 141q17 23 33.5 52t38 82.5t34.5 133.5t13 173.5t-13 173t-34.5 133t-38 83t-33.5 52.5q-109 141 -278 141q-170 0 -278 -141q-17 -23 -33.5 -52.5t-37.5 -83t-34 -133t-13 -173.5z" />
<glyph unicode="P" horiz-adv-x="1221" d="M184 0v1433h474q108 0 197 -18.5t162 -73.5q153 -116 153 -326q0 -64 -14.5 -120.5t-37.5 -96t-42 -63t-40 -41.5q-30 -28 -63 -48.5t-68.5 -32.5t-63 -19t-66.5 -10t-56.5 -3.5t-54.5 -0.5h-301v-580h-179zM363 735h281q34 0 56.5 1.5t60.5 7.5t72 22t62 41 q37 34 59.5 89t22.5 123q0 38 -8 71t-21 56.5t-26 39.5t-27 28q-80 64 -235 64h-297v-543z" />
<glyph unicode="Q" horiz-adv-x="1361" d="M92 716q0 192 55 343t150 245q154 150 384 150t384 -150q95 -94 150 -244t55 -344q0 -193 -55 -342t-150 -244q-104 -102 -242 -136q-1 -10 -1 -20q0 -67 47 -114q48 -46 140 -46q66 0 167 23v-150q-84 -28 -165 -28q-86 0 -152.5 27t-105.5 73t-58 102q-18 53 -18 113v6 h-37q-87 3 -180 42t-163 106q-93 89 -149 241.5t-56 346.5zM285 716q0 -76 9 -144.5t22 -113.5t31 -85.5t30.5 -60t25.5 -37.5q108 -141 278 -141q169 0 278 141q17 23 33.5 52t38 82.5t34.5 133.5t13 173.5t-13 173t-34.5 133t-38 83t-33.5 52.5q-109 141 -278 141 q-170 0 -278 -141q-17 -23 -33.5 -52.5t-37.5 -83t-34 -133t-13 -173.5z" />
<glyph unicode="R" horiz-adv-x="1330" d="M184 0v1433h541q42 0 76 -2.5t79 -9.5t87.5 -24t79.5 -43q72 -53 114.5 -138t42.5 -184q0 -83 -29 -156t-91 -133t-151 -89l287 -654h-192l-265 616h-400v-616h-179zM363 771h366q82 0 140.5 30.5t93.5 75.5q48 66 48 157q0 42 -12 80t-31 64.5t-43 45.5q-23 18 -49 30 t-54.5 16.5t-48.5 6t-48 1.5h-362v-507z" />
<glyph unicode="S" horiz-adv-x="1254" d="M62 387l161 35q8 -25 20 -53t45 -73t77 -79q109 -83 283 -83q84 0 148.5 18t100.5 44t58 61.5t28.5 64.5t6.5 58q0 182 -238 240l-238 59q-197 49 -286.5 144.5t-89.5 235.5q0 78 24 143t67.5 111.5t104.5 78t134 47t156 15.5q101 0 183.5 -22t136.5 -56t94.5 -81.5 t62 -94t33.5 -97.5l-163 -44q-14 47 -42.5 91.5t-65.5 73.5q-94 75 -253 75q-119 0 -192 -45q-34 -22 -57.5 -52.5t-33.5 -63.5t-10 -70t14.5 -67.5t37 -52t57.5 -39.5t69 -29.5t79 -22.5l213 -53q85 -21 148.5 -46t115.5 -66q54 -45 92.5 -116t38.5 -167 q0 -100 -43.5 -184.5t-114.5 -140.5q-29 -23 -61.5 -41t-65 -29t-62.5 -18.5t-62.5 -10.5t-56.5 -4t-52 -1q-51 0 -87 2t-88.5 10.5t-103 29.5t-98.5 53q-25 17 -49 38t-60 59.5t-67 94t-49 120.5z" />
<glyph unicode="T" horiz-adv-x="1035" d="M23 1278v155h990v-155h-405v-1278h-180v1278h-405z" />
<glyph unicode="U" horiz-adv-x="1311" d="M161 526v907h180v-903q0 -57 2 -96t15.5 -94.5t38.5 -92.5q76 -113 278 -113q171 0 254 104q46 56 59 124.5t13 167.5v903h150v-907q0 -57 -2.5 -96t-12 -94.5t-32 -105t-57.5 -92.5q-132 -158 -391 -158q-261 0 -383 137q-23 26 -41 56t-29.5 57t-20 61.5t-12.5 59.5 t-6 61.5t-2.5 57.5t-0.5 56z" />
<glyph unicode="V" horiz-adv-x="1154" d="M8 1433h189l397 -1182l394 1182h158l-484 -1433h-171z" />
<glyph unicode="W" horiz-adv-x="1766" d="M42 1433h188l288 -1162l307 1162h146l328 -1162l268 1162h159l-349 -1433h-180l-312 1112l-293 -1112h-181z" />
<glyph unicode="X" horiz-adv-x="1156" d="M20 0l467 748l-407 685h199l313 -530l311 530h183l-403 -662l453 -771h-200l-360 610l-371 -610h-185z" />
<glyph unicode="Y" horiz-adv-x="1090" d="M-23 1433h209l380 -660l385 660h163l-479 -829v-604h-180v604z" />
<glyph unicode="Z" horiz-adv-x="1123" d="M60 0v150l775 1128h-739v155h953v-119l-788 -1159h811v-155h-1012z" />
<glyph unicode="[" horiz-adv-x="582" d="M146 -357v1790h374v-113h-227v-1565h227v-112h-374z" />
<glyph unicode="\" horiz-adv-x="1088" d="M40 1433h142l865 -1433h-142z" />
<glyph unicode="]" horiz-adv-x="582" d="M62 -245h229v1565h-229v113h375v-1790h-375v112z" />
<glyph unicode="^" horiz-adv-x="1250" d="M217 539l361 894h97l361 -894h-125l-285 695l-283 -695h-126z" />
<glyph unicode="_" horiz-adv-x="1044" d="M0 -136h1044v-129h-1044v129z" />
<glyph unicode="`" horiz-adv-x="793" d="M144 1406l71 135l420 -248l-41 -83z" />
<glyph unicode="a" horiz-adv-x="1136" d="M84 299q0 51 13 96t35.5 77.5t45.5 55t49 40.5q38 25 84 43t86 27t97 13.5t94 5.5t99 1h138v44q0 122 -42 177q-15 21 -36.5 36t-42 23t-48 12.5t-47 5.5t-47.5 1q-269 0 -297 -186l-152 25q14 66 43 117t69 83.5t94 53t113 28.5t132 8q38 0 66.5 -1.5t74.5 -8t87.5 -24 t74.5 -43.5q28 -22 48.5 -49t33 -59.5t20 -61t11 -69t4 -67t0.5 -70.5v-410q0 -101 27 -223h-167q-15 89 -19 199q-12 -25 -26 -47t-45.5 -56t-69.5 -57.5t-99 -41t-132 -17.5q-172 0 -273 93q-96 88 -96 226zM259 299q0 -23 6.5 -46.5t24.5 -50t47 -45.5q57 -40 152 -40 q50 0 98.5 15.5t87 41.5t67.5 62q39 48 61 114.5t22 125.5v52h-135q-227 0 -323 -52q-31 -16 -53.5 -38.5t-33.5 -47t-16 -47t-5 -44.5z" />
<glyph unicode="b" horiz-adv-x="1154" d="M169 0v1433h159v-548q19 37 44.5 69.5t64.5 64t95 49.5t122 18q176 0 286 -123q46 -50 76 -122t43 -147t13 -155q0 -113 -29 -219t-86 -182q-118 -158 -317 -158q-114 0 -200.5 53t-132.5 147q-49 -136 -62 -180h-76zM328 447q0 -97 37.5 -172.5t101.5 -116.5t143 -41 q25 0 51 6t55 19t57.5 39t49.5 62q64 108 64 294q0 192 -62 292q-73 120 -219 120q-112 0 -192 -80q-86 -86 -86 -217v-205z" />
<glyph unicode="c" horiz-adv-x="1006" d="M84 530q0 229 110 383q127 173 352 173q182 0 289 -121q29 -33 52.5 -76.5t37 -85.5t20.5 -82l-151 -27q-14 96 -59 161q-27 38 -75.5 66t-118.5 28q-132 0 -204 -120q-70 -112 -70 -301q0 -69 8.5 -128t22 -95t22.5 -53.5t17 -28.5q72 -106 202 -106q116 0 186 88 q54 69 69 173l151 -27q-11 -75 -43.5 -143.5t-78.5 -115.5q-109 -112 -289 -112q-176 0 -291 104q-77 70 -118 189.5t-41 256.5z" />
<glyph unicode="d" horiz-adv-x="1154" d="M84 524q0 145 37.5 257t103.5 182q117 123 295 123q131 0 226 -73q50 -41 81 -90v510h159v-1433h-147v180h-4q-18 -55 -66 -102q-98 -98 -251 -98q-197 0 -319 158q-115 153 -115 386zM267 537q0 -186 63 -294q73 -126 209 -126q67 0 123.5 29t93.5 75q20 26 36 61 t25.5 75t9.5 75v224q0 37 -9.5 75t-26.5 70.5t-39 57.5q-79 90 -204 90q-139 0 -215 -120q-66 -104 -66 -292z" />
<glyph unicode="e" horiz-adv-x="1112" d="M84 524q0 72 13.5 140.5t39.5 131.5t68 116t95.5 92t124.5 60.5t153 21.5t150.5 -21t115 -55t83 -82t57.5 -96.5t34 -102.5t17.5 -97t4.5 -84v-38h-773v-16q0 -105 36 -191q76 -186 277 -186q139 0 222 92q44 47 65 112l154 -30q-47 -145 -173 -233q-117 -78 -274 -78 q-225 0 -361 154q-129 146 -129 390zM275 640h582q-4 117 -50 193q-77 124 -227 124q-73 0 -132.5 -30.5t-98.5 -78.5q-22 -28 -38 -62t-25.5 -71.5t-10.5 -74.5z" />
<glyph unicode="f" horiz-adv-x="624" d="M16 936v129h189v29q0 42 3 75.5t12 75.5t29.5 78.5t51.5 63.5q77 67 221 67q77 0 155 -15v-129q-70 14 -136 14q-90 0 -132 -44q-46 -48 -46 -144v-71h251v-129h-251v-936h-158v936h-189z" />
<glyph unicode="g" horiz-adv-x="1058" d="M56 -125q0 80 44 136t117 79q-13 7 -27.5 18.5t-33 31.5t-30 50.5t-11.5 66.5q0 63 37 116t109 74v4q-38 27 -66 62.5t-41 64.5t-20.5 63.5t-9 51t-1.5 34.5q0 72 29.5 138.5t79.5 114.5q110 106 298 106q112 0 216 -44q6 64 40.5 109.5t94.5 64.5q40 12 103 12 q25 0 37 -2l13 -2v-130h-29q-6 0 -20 1t-20 1q-34 0 -58.5 -10t-43.5 -37q-15 -22 -34 -78q102 -102 102 -261q0 -71 -28 -132.5t-74 -107.5q-51 -51 -122 -80t-153 -29q-29 0 -84 8q-6 1 -21.5 4.5t-27.5 5t-22 1.5q-56 0 -90 -23q-40 -29 -40 -75q0 -91 140 -98l221 -11 q8 0 24 -1q53 -2 79 -4t62.5 -5.5t63 -10t52.5 -16.5q54 -21 92 -59t54.5 -81t16.5 -90q0 -32 -8 -63.5t-25 -64.5t-49.5 -63.5t-76.5 -53.5q-123 -62 -365 -62q-237 0 -365.5 71t-128.5 205zM219 -94q0 -23 7.5 -45t29.5 -47t57 -43t96.5 -30t142.5 -12q47 0 116 6.5 t113 19.5q38 12 65 30t40 38t19 37t6 32q0 18 -4 33t-13.5 27t-18.5 21.5t-27 17t-31 13t-37.5 9.5t-40 6t-45 4.5t-46 3t-48.5 2.5q-9 0 -14 1l-253 12q-114 -49 -114 -136zM295 725q0 -31 8 -64t24 -62.5t36 -48.5q29 -28 74.5 -43.5t92.5 -15.5q59 0 103.5 19.5 t67.5 46.5t37.5 63t18 60.5t3.5 46.5q0 102 -62 164q-63 66 -166 66q-72 0 -127 -32q-54 -31 -82 -85.5t-28 -114.5z" />
<glyph unicode="h" horiz-adv-x="1173" d="M169 0v1433h159v-568q48 102 135.5 161.5t208.5 59.5q90 0 153 -28.5t98 -69.5q50 -55 66 -126.5t16 -161.5v-700h-159v660q0 53 -1.5 82t-12 69.5t-30.5 67.5q-52 70 -158 70q-138 0 -230 -112q-47 -57 -66.5 -128.5t-19.5 -162.5v-546h-159z" />
<glyph unicode="i" horiz-adv-x="496" d="M161 1250v183h176v-183h-176zM169 0v1065h159v-1065h-159z" />
<glyph unicode="j" horiz-adv-x="494" d="M-134 -221q70 -15 122 -15q109 0 150 63q29 47 29 155v1083h158v-1075q0 -39 -1.5 -67t-8.5 -68t-19.5 -70t-36.5 -60t-58 -50q-67 -40 -187 -40q-76 0 -148 18v126zM159 1250v183h176v-183h-176z" />
<glyph unicode="k" horiz-adv-x="1064" d="M169 0v1433h159v-917l491 549h175l-328 -371l372 -694h-175l-309 580l-226 -252v-328h-159z" />
<glyph unicode="l" horiz-adv-x="496" d="M169 0v1433h159v-1433h-159z" />
<glyph unicode="m" horiz-adv-x="1762" d="M169 0v1061h144v-204h2q45 103 131.5 166t193.5 63q141 0 223 -98q52 -61 70 -153q38 96 107 162q96 89 236 89q151 0 235 -96q83 -96 83 -282v-708h-159v668v18.5v20.5t-0.5 20t-1 22.5t-2 22t-3.5 23t-5.5 21.5t-7.5 22.5t-9.5 20.5t-12.5 20q-51 70 -148 70 q-108 0 -186 -76q-26 -25 -44.5 -52.5t-29 -52t-16 -53.5t-7 -51.5t-1.5 -51.5v-612h-159v668q0 69 -9.5 120t-40.5 91q-54 70 -156 70q-94 0 -164 -62q-104 -93 -104 -275v-612h-159z" />
<glyph unicode="n" horiz-adv-x="1173" d="M169 0v1061h146v-196h4q19 41 45 75t59 61.5t71.5 46t83.5 28.5t94 10q162 0 251 -98q50 -55 66 -126.5t16 -161.5v-700h-159v660q0 53 -1.5 82t-12 69.5t-30.5 67.5q-55 70 -162 70q-115 0 -199 -78q-113 -103 -113 -309v-562h-159z" />
<glyph unicode="o" horiz-adv-x="1127" d="M84 532.5q0 137.5 43.5 250t117.5 182.5q56 52 136.5 86.5t182.5 34.5t183 -34.5t136 -86.5q74 -70 117.5 -182.5t43.5 -250t-43.5 -250t-117.5 -182.5q-35 -33 -78 -58.5t-107 -43.5t-134 -18q-102 0 -183 34t-136 86q-74 70 -117.5 182.5t-43.5 250zM267 532.5 q0 -238.5 102 -340.5q75 -75 195 -75q119 0 194 75q103 103 103 340.5t-103 340.5q-76 76 -194 76q-119 0 -195 -76q-102 -102 -102 -340.5z" />
<glyph unicode="p" horiz-adv-x="1146" d="M169 -347v1412h146v-200l2 2q11 26 26 51t36 50t47.5 46t57.5 37.5t70 25.5t81 9q184 0 294 -123q66 -73 100 -188t34 -236q0 -113 -28.5 -220t-83.5 -181q-115 -158 -316 -158q-216 0 -300 187h-7v-514h-159zM328 422q0 -131 75 -215q28 -31 63.5 -51.5t70 -29.5 t69.5 -9q55 0 111.5 29t97.5 97q64 105 64 294q0 192 -62 292q-21 35 -47.5 59.5t-55 37t-54.5 18t-52 5.5q-111 0 -192 -84q-88 -95 -88 -219v-224z" />
<glyph unicode="q" horiz-adv-x="1162" d="M84 539q0 86 14.5 161t39 126.5t45 82t42.5 54.5q115 123 297 123q140 0 228 -73q56 -48 89 -114l64 166h91q-8 -63 -8 -127v-1285h-159v527h-6q-25 -68 -84 -118q-97 -82 -238 -82q-63 0 -115 14.5t-100.5 50t-89.5 93.5q-37 51 -62 116.5t-36.5 136.5t-11.5 148z M267 537q0 -34 3 -74t18.5 -107t41.5 -113q72 -126 207 -126q148 0 232 140q58 96 58 217v150q0 40 -9 80t-25.5 75t-38.5 65q-79 105 -206 105q-133 0 -209 -120q-72 -107 -72 -292z" />
<glyph unicode="r" horiz-adv-x="709" d="M169 0v1065h146v-252h4q14 60 46.5 115.5t73.5 90.5q80 69 187 69q41 0 61 -4v-155h-33q-29 -1 -53.5 -5t-60 -15t-70.5 -36.5t-65 -63.5q-43 -56 -60 -119t-17 -156v-534h-159z" />
<glyph unicode="s" horiz-adv-x="1021" d="M62 282l159 31q15 -78 76 -131q92 -74 240 -74q121 0 186 51q62 47 62 128q0 22 -4.5 41t-15 34t-21 26t-29 20t-31 15t-35.5 12t-35 8.5l-36 7.5l-160 31q-312 61 -312 297q0 133 97 215q107 92 309 92q207 0 315 -104q69 -65 96 -161l-150 -32q-26 77 -93 122.5 t-166 45.5q-54 0 -95.5 -12t-65 -29.5t-38.5 -40.5t-19.5 -42.5t-4.5 -38.5q0 -108 150 -139q10 -2 27 -5l10 -2l144 -28q28 -5 39.5 -7t41 -8.5t48.5 -13.5t44.5 -17.5t47.5 -24.5t40 -31q86 -81 86 -219q0 -139 -104 -228q-35 -30 -78.5 -50t-89 -28t-78.5 -10.5t-73 -2.5 q-188 0 -295 58q-63 33 -115 93t-74 151z" />
<glyph unicode="t" horiz-adv-x="659" d="M10 936v129h187v268l158 16v-284h241v-129h-241v-629q0 -28 2 -48.5t14 -51t34 -50.5q46 -40 129 -40q44 0 120 13v-130q-72 -12 -152 -12q-160 0 -235 74q-70 73 -70 223v651h-187z" />
<glyph unicode="u" horiz-adv-x="1164" d="M169 403v662h159v-662q0 -155 54 -219q26 -32 70 -49.5t91 -17.5q58 0 110.5 24.5t94 70.5t65.5 120t24 167v566h160v-1065h-146v211h-5q-42 -113 -131 -172t-197 -59q-159 0 -251 104q-98 111 -98 319z" />
<glyph unicode="v" horiz-adv-x="969" d="M28 1065h183l291 -866h4l290 866h146l-366 -1065h-171z" />
<glyph unicode="w" horiz-adv-x="1443" d="M42 1065h175l220 -796h4l219 796h134l230 -796h4l228 796h145l-315 -1065h-133l-234 785l-3 2l-219 -787h-134z" />
<glyph unicode="x" horiz-adv-x="911" d="M8 0l355 550l-321 515h192l224 -367l232 367h158l-309 -481l366 -584h-193l-267 430l-278 -430h-159z" />
<glyph unicode="y" horiz-adv-x="891" d="M20 1065h185l275 -818l287 818h146l-420 -1165q-22 -60 -47 -105.5t-66 -85.5q-82 -76 -198 -76q-74 0 -134 20v124q51 -15 115 -15q25 0 40 1.5t37.5 9.5t41.5 24q29 25 51.5 68t48.5 119l13 34z" />
<glyph unicode="z" horiz-adv-x="911" d="M73 0v128l565 808h-521v129h738v-90l-584 -845h584v-130h-782z" />
<glyph unicode="{" horiz-adv-x="600" d="M98 487v125h10q32 0 58 13.5t41.5 33t27 49.5t17 53t8.5 54t3 43v29v329q0 25 1 43.5t6 45t13 45.5t24.5 40t39 33.5t57.5 21.5t78 9h102v-125h-50q-33 0 -55.5 -8t-34 -18.5t-17.5 -30t-6.5 -31.5t-0.5 -35v-9v-338q0 -180 -153 -307v-2q75 -47 114 -129t39 -178v-339 q0 -134 108 -134h56v-125h-95q-122 0 -174 62t-52 178v324q0 48 -5 87.5t-14 68t-21.5 50t-25.5 35t-28.5 22t-29.5 12t-28 3.5h-13z" />
<glyph unicode="|" horiz-adv-x="1056" d="M466 0v1433h126v-1433h-126z" />
<glyph unicode="}" horiz-adv-x="600" d="M16 -230h57q109 0 109 134v339q0 96 39 178t114 129v2q-153 127 -153 307v338v8q0 20 -1 32t-6 32t-15 31t-30.5 20t-49.5 9h-64v125h116q42 0 75.5 -10t55 -24t36.5 -37t22.5 -41.5t11.5 -46t5 -42.5t1 -37v-329v-29t3 -43t8 -54.5t16.5 -52.5t27 -49t41 -33t58.5 -14 h11v-125h-13q-21 0 -40.5 -6.5t-40.5 -25.5t-36 -48.5t-25 -80.5t-10 -117v-326q0 -37 -5 -68t-19.5 -63.5t-38 -55t-65.5 -37t-98 -14.5h-97v125z" />
<glyph unicode="~" horiz-adv-x="1317" d="M132 516q18 48 51 101t72 87q23 20 52 35t61.5 23.5t63.5 8.5q20 0 67 -8q48 -10 117 -40l59 -27q10 -5 27.5 -13.5t28.5 -13.5t27.5 -12t30.5 -11.5t30.5 -9t34 -6.5t35.5 -2q69 0 120 42q49 42 79 105l98 -59q-21 -46 -54.5 -95.5t-68.5 -79.5q-40 -36 -89 -54.5 t-97 -18.5q-67 0 -144 31q-25 11 -100 47l-57 26q-86 40 -150 40q-65 0 -117 -46q-45 -41 -82 -113z" />
<glyph unicode="&#xa9;" horiz-adv-x="1607" d="M48 716q0 155 59.5 295t160.5 241.5t241 161t295 59.5t295 -59.5t241 -161t161 -241.5t60 -295t-60 -295t-161 -241t-241 -160.5t-295 -59.5q-104 0 -202 27t-181 75.5t-152.5 118t-118 152.5t-75.5 181.5t-27 201.5zM157 716q0 -105 33 -203.5t93 -178t139.5 -139.5 t178 -93t203 -33t203.5 33t178.5 93t140 139.5t93 178t32.5 203.5q0 131 -51.5 250.5t-138.5 206.5t-207 139t-250 52q-105 0 -203.5 -33t-178 -93.5t-139.5 -140t-93 -178t-33 -203.5zM409 737q0 210 121 331q104 104 268 104q157 0 253 -104q62 -70 89 -185l-129 -24 q-3 7 -8 22t-7 22t-7 19.5t-9 20.5t-10 18.5t-13 20.5q-31 45 -66 63t-95 18q-103 0 -161 -69q-41 -48 -60 -129t-19 -155q0 -166 79 -267q61 -74 154 -74q50 0 94 21t72 55q12 14 22 33.5t14 30.5t13 40t11 35l125 -26q-28 -119 -98 -195q-26 -29 -55 -49t-61.5 -31.5 t-65 -16.5t-71.5 -5q-158 0 -255 104q-60 64 -92.5 162t-32.5 210z" />
<glyph unicode="&#xab;" horiz-adv-x="736" d="M88 537l181 296h92l-110 -296l110 -305h-92zM361 537l182 296h92l-111 -296l111 -305h-92z" />
<glyph unicode="&#xad;" horiz-adv-x="653" d="M104 472v130h446v-130h-446z" />
<glyph unicode="&#xae;" horiz-adv-x="1607" d="M48 716q0 155 59.5 295t160.5 241.5t241 161t295 59.5t295 -59.5t241 -161t161 -241.5t60 -295t-60 -295t-161 -241t-241 -160.5t-295 -59.5q-104 0 -202 27t-181 75.5t-152.5 118t-118 152.5t-75.5 181.5t-27 201.5zM157 716q0 -105 33 -203.5t93 -178t139.5 -139.5 t178 -93t203 -33t203.5 33t178.5 93t140 139.5t93 178t32.5 203.5q0 131 -51.5 250.5t-138.5 206.5t-207 139t-250 52q-105 0 -203.5 -33t-178 -93.5t-139.5 -140t-93 -178t-33 -203.5zM478 277v879h370q117 0 196 -55q34 -24 57.5 -56.5t34 -67.5t10.5 -70q0 -42 -17.5 -89 t-48.5 -78q-21 -22 -50 -37t-50 -22l180 -404h-143l-169 375h-240v-375h-130zM608 754h225q44 0 76.5 9.5t59.5 38.5q40 42 40 106.5t-46 102.5q-42 36 -115 36h-240v-293z" />
<glyph unicode="&#xbb;" horiz-adv-x="736" d="M102 232l111 305l-111 296h92l182 -296l-182 -305h-92zM376 232l111 305l-111 296h92l182 -296l-182 -305h-92z" />
<glyph unicode="&#x401;" horiz-adv-x="1184" d="M184 0v1433h906v-155h-727v-455h577v-146h-577v-522h749v-155h-928zM323 1548v198h199v-198h-199zM729 1548v198h198v-198h-198z" />
<glyph unicode="&#x402;" horiz-adv-x="1457" d="M23 1278v155h994v-155h-427v-491q171 68 323 68q222 0 349 -141q60 -66 86.5 -139.5t26.5 -165.5q0 -38 -2.5 -67.5t-10.5 -69t-27 -78.5t-48 -75q-62 -75 -148.5 -107t-198.5 -32q-108 0 -205 28l40 147q60 -21 144 -21q151 0 219 81q56 65 56 182q0 123 -60 199 q-47 60 -114 82t-149 22q-154 0 -281 -62v-638h-181v1278h-386z" />
<glyph unicode="&#x403;" horiz-adv-x="1035" d="M184 0v1433h852v-155h-673v-1278h-179zM330 1629l420 249l71 -136l-449 -196z" />
<glyph unicode="&#x404;" horiz-adv-x="1269" d="M92 746q0 187 46 330t129 230q143 148 381 148q232 0 378 -142q60 -59 100 -136t60 -142l-175 -31q-32 108 -106 185q-106 111 -251 111q-174 0 -274 -141q-44 -64 -67.5 -156t-23.5 -179h580v-155h-584q0 -202 66 -329q11 -22 24.5 -42t31 -41t37.5 -38.5t45 -33.5 t52.5 -27t60.5 -17t68 -6q150 0 259 125q64 73 88 161l183 -35q-15 -57 -40 -109t-56 -93.5t-68 -74.5q-142 -128 -355 -128q-80 0 -152 18.5t-121 45.5t-91.5 64.5t-66.5 67.5t-43 62q-58 94 -86.5 231.5t-28.5 276.5z" />
<glyph unicode="&#x405;" horiz-adv-x="1254" d="M62 387l161 35q8 -25 20 -53t45 -73t77 -79q109 -83 283 -83q84 0 148.5 18t100.5 44t58 61.5t28.5 64.5t6.5 58q0 182 -238 240l-238 59q-197 49 -286.5 144.5t-89.5 235.5q0 78 24 143t67.5 111.5t104.5 78t134 47t156 15.5q101 0 183.5 -22t136.5 -56t94.5 -81.5 t62 -94t33.5 -97.5l-163 -44q-14 47 -42.5 91.5t-65.5 73.5q-94 75 -253 75q-119 0 -192 -45q-34 -22 -57.5 -52.5t-33.5 -63.5t-10 -70t14.5 -67.5t37 -52t57.5 -39.5t69 -29.5t79 -22.5l213 -53q85 -21 148.5 -46t115.5 -66q54 -45 92.5 -116t38.5 -167 q0 -100 -43.5 -184.5t-114.5 -140.5q-29 -23 -61.5 -41t-65 -29t-62.5 -18.5t-62.5 -10.5t-56.5 -4t-52 -1q-51 0 -87 2t-88.5 10.5t-103 29.5t-98.5 53q-25 17 -49 38t-60 59.5t-67 94t-49 120.5z" />
<glyph unicode="&#x406;" horiz-adv-x="546" d="M184 0v1433h179v-1433h-179z" />
<glyph unicode="&#x407;" horiz-adv-x="572" d="M52 1548v198h167v-198h-167zM197 0v1433h179v-1433h-179zM353 1548v198h167v-198h-167z" />
<glyph unicode="&#x408;" horiz-adv-x="807" d="M0 8v155q85 -29 184 -29q129 0 201 65q26 25 42.5 53.5t23 64.5t8 59.5t1.5 66.5v990h180v-965q0 -118 -17 -197t-71 -148q-114 -143 -343 -143q-98 0 -209 28z" />
<glyph unicode="&#x409;" horiz-adv-x="2055" d="M4 0v165l34 -4q142 -18 212 212q69 227 73 768v227v65h835v-616h315q33 0 59.5 -1t68 -5.5t75 -12t74.5 -22.5t72 -35.5t62 -52.5t51.5 -71t33 -93.5t12.5 -118.5q0 -31 -3 -61t-14.5 -72t-30 -78t-53 -72.5t-80 -62.5t-114.5 -42.5t-153 -16.5h-556v1278h-488 q-4 -480 -57 -798q-7 -43 -14.5 -80t-19.5 -82.5t-27 -82.5t-35 -75.5t-46.5 -67t-58.5 -51.5t-73 -35t-89 -12q-34 0 -65 6zM1158 155h361q23 0 36.5 0.5t39 2.5t42 6t40.5 13t39.5 21t32.5 30.5t27.5 42.5t17 57t6.5 73q0 28 -2.5 51.5t-11 51t-22.5 49.5t-38.5 43 t-56.5 35t-79 22.5t-105 8.5h-327v-507z" />
<glyph unicode="&#x40a;" horiz-adv-x="2109" d="M184 0v1433h179v-602h669v602h180v-616h315q44 0 79 -2t90.5 -10.5t98 -24.5t90 -46.5t78.5 -73t51.5 -108t20.5 -147.5q0 -31 -3 -61t-14.5 -72t-30 -78t-52.5 -72.5t-80 -62.5t-115 -42.5t-153 -16.5h-555v685h-669v-685h-179zM1212 155h361q23 0 36.5 0.5t39 2.5 t42.5 6t40.5 13t39.5 21t33 30.5t27.5 42.5t17 57t6.5 73t-5.5 72.5t-25.5 69.5t-53 61.5t-92.5 41t-139.5 16.5h-327v-507z" />
<glyph unicode="&#x40b;" horiz-adv-x="1513" d="M23 1278v155h994v-155h-427v-491q167 59 323 59q228 0 341 -109q114 -107 114 -296v-441h-180v397q0 30 -2 54t-9 56t-20 56.5t-36 49.5t-55 41.5t-79.5 27t-107.5 10.5q-142 0 -289 -54v-638h-181v1278h-386z" />
<glyph unicode="&#x40c;" horiz-adv-x="1315" d="M184 0v1433h179v-612h199q19 0 35.5 1t35 4t35 8t33.5 13t31.5 19t29 26.5t25.5 34.5q26 43 45 116t36.5 150t36.5 119q64 142 219 142q38 0 66 -9v-141q-29 4 -46 4q-21 0 -42.5 -13.5t-36.5 -32.5q-21 -27 -36 -84.5t-29 -129.5t-29 -112q-54 -145 -175 -167v-6 q148 -20 215 -169q22 -50 48.5 -164t60.5 -209q14 -42 34.5 -64.5t59.5 -22.5q27 0 40 4v-138q-37 -20 -90 -20q-125 0 -191 114q-19 33 -35 80t-24.5 82.5t-24.5 102.5q-4 18 -11 46l-10.5 42t-9 34t-9.5 32t-10 25t-12 24q-11 20 -24.5 36.5t-29.5 28t-31.5 20t-35.5 14 t-35.5 8.5t-38 4.5t-36.5 1.5h-36h-197v-675h-179zM420 1629l419 249l72 -136l-449 -196z" />
<glyph unicode="&#x40e;" horiz-adv-x="1116" d="M20 1433h189l407 -863h2l337 863h159l-427 -1059q-2 -7 -8 -21q-16 -40 -24.5 -61.5t-25.5 -58t-32 -60.5t-37 -52t-46 -50q-33 -28 -73 -48t-80 -29.5t-79 -9.5q-49 0 -96 16v153q41 -15 79 -15q100 0 163 59q33 29 58 80t38 97zM261 1788h159q1 -44 25 -75.5t61 -46 t84 -14.5q71 0 118.5 35t49.5 101h159q-3 -38 -16.5 -74t-32 -62.5t-41.5 -47.5q-87 -77 -237 -77q-74 0 -136 20.5t-103 56.5q-23 21 -41.5 47.5t-32 62.5t-16.5 74z" />
<glyph unicode="&#x40f;" horiz-adv-x="1369" d="M182 0v1433h179v-1276h648v1276h179v-1433h-419v-376h-167v376h-420z" />
<glyph unicode="&#x410;" horiz-adv-x="1168" d="M26 0l463 1433h207l466 -1433h-197l-134 416h-514l-129 -416h-162zM359 562h428l-213 679z" />
<glyph unicode="&#x411;" horiz-adv-x="1332" d="M184 0v1433h896v-155h-717v-441h358q38 0 67 -1t76 -6.5t84 -15.5t79 -29.5t74 -47.5q57 -49 92 -132t35 -179q0 -85 -28 -168t-84 -143q-44 -46 -96 -72.5t-96.5 -34.5t-100.5 -8h-639zM363 155h418q36 0 61.5 3t61.5 18t63 43q22 24 38 57.5t23.5 71t7.5 76.5 q0 43 -10.5 80.5t-27 65t-39.5 48.5q-46 39 -105 52t-133 13h-358v-528z" />
<glyph unicode="&#x412;" horiz-adv-x="1313" d="M184 0v1433h547q33 0 53 -0.5t58.5 -4.5t68 -11t66 -21.5t65.5 -35.5q57 -40 95.5 -107t38.5 -165q0 -164 -111 -257q-52 -42 -138 -68v-5q96 -18 163 -75q60 -47 97 -122t37 -172q0 -99 -40 -176t-98 -121q-39 -32 -84.5 -52t-96.5 -28t-85 -10t-87 -2h-549zM363 155 h358q145 0 221 58q12 8 25 21.5t29 37.5t26 60.5t10 78.5q0 113 -71 185q-28 29 -61.5 47t-73 24.5t-64 8t-66.5 1.5h-333v-522zM363 823h301q52 0 87.5 3t84 18.5t83.5 44.5q78 66 78 172q0 111 -84 169q-46 30 -97.5 39t-121.5 9h-331v-455z" />
<glyph unicode="&#x413;" horiz-adv-x="1056" d="M184 0v1433h852v-155h-673v-1278h-179z" />
<glyph unicode="&#x414;" horiz-adv-x="1371" d="M14 155h90q124 232 182 433t88 488q6 56 9.5 103.5t4.5 72t2.5 69.5t2.5 68l2 44h769v-1278h167v-476h-167v321h-982v-321h-168v476zM285 155h699v1123h-438l-7 -88q-6 -88 -11.5 -145.5t-16.5 -152.5t-29 -174.5t-43.5 -175.5t-65 -193.5t-88.5 -193.5z" />
<glyph unicode="&#x415;" horiz-adv-x="1184" d="M184 0v1433h906v-155h-727v-455h577v-146h-577v-522h749v-155h-928z" />
<glyph unicode="&#x416;" horiz-adv-x="1921" d="M62 8v140q12 -2 38 -2q18 0 32.5 5.5t23 12t16.5 20.5t11 21.5t9 26.5q12 35 30 100.5t41 139.5q21 71 46 126q14 27 29.5 49t42 49t66 44.5t87.5 22.5v6q-76 22 -113 60t-64 109q-21 57 -41.5 141.5t-22.5 92.5q-20 70 -59 102q-25 21 -65 21q-19 0 -29 -2v140 q34 8 77 8q17 0 31 -1.5t33 -6t35.5 -12t34.5 -21.5t34 -32.5t31.5 -45.5t28.5 -60q7 -20 15 -48t12.5 -45t16 -63.5t15.5 -63.5q8 -29 12.5 -44.5t14 -36.5t22.5 -38t31 -34q77 -68 189 -68h98v612h180v-612h98q112 0 188 68q19 17 32.5 34t22.5 38t14 37t13 44 q6 25 15.5 65t15 61t13 47.5t14.5 46.5q17 46 40.5 80t46 52.5t49.5 29.5t47.5 14t43.5 3q44 0 78 -8v-140q-10 2 -30 2q-39 0 -64 -21q-40 -32 -59 -102q-2 -8 -22.5 -92.5t-41.5 -141.5q-28 -71 -64.5 -109t-113.5 -60v-6q49 -5 88.5 -22.5t66 -44.5t42 -49t29.5 -49 q25 -55 46 -126q22 -74 40.5 -139.5t30.5 -100.5q6 -19 9 -26.5t11 -21.5t16 -20.5t22.5 -12t33.5 -5.5q25 0 37 2v-140q-44 -16 -93 -16q-109 0 -174 92q-22 31 -47 99t-41 123t-25 95q-1 3 -3 11q-6 29 -10.5 45t-14 45.5t-20 49.5t-27 42t-36.5 36q-61 45 -180 45h-137 v-675h-180v675h-138q-118 0 -179 -45q-14 -10 -26 -24t-21 -26.5t-18 -32t-13.5 -30.5t-11 -33.5t-8.5 -29.5t-7.5 -29.5t-5.5 -23.5q-17 -73 -49 -172.5t-64 -144.5q-64 -92 -173 -92q-51 0 -95 16z" />
<glyph unicode="&#x417;" horiz-adv-x="1286" d="M80 382l173 38q27 -110 104 -184q105 -102 291 -102q159 0 253 79q89 79 89 196q0 145 -107 211q-92 55 -239 55h-199v146h181q50 0 83.5 2t79 14t74.5 34q37 29 60.5 81t23.5 113t-26 106.5t-66 73.5q-76 54 -207 54q-151 0 -255 -75q-34 -24 -59 -54t-40.5 -60.5 t-30.5 -71.5l-161 44q47 164 180 263q142 109 351 109q203 0 328 -79q51 -32 86 -71.5t51 -78.5t22 -69.5t6 -59.5q0 -50 -15 -102.5t-39 -92.5q-62 -106 -191 -132v-4q122 -12 201 -88q47 -44 73.5 -110t26.5 -143q0 -102 -42 -190t-110 -144q-35 -29 -76 -50t-78.5 -32.5 t-82 -18t-77.5 -8t-74 -1.5q-122 0 -215 22.5t-170 83.5q-61 47 -108.5 124t-68.5 172z" />
<glyph unicode="&#x418;" horiz-adv-x="1415" d="M184 0v1433h179v-963q0 -43 -6 -131q8 13 19 34.5t18.5 34t16.5 24.5l642 903v98h179v-1433h-179v967q0 19 6 151q-22 -42 -54 -94l-642 -899v-125h-179z" />
<glyph unicode="&#x419;" horiz-adv-x="1415" d="M184 0v1433h179v-963q0 -43 -6 -131q10 18 17 31t9 17.5t3 8t3.5 7t7 9.5t14.5 20l642 903v98h179v-1433h-179v931q0 94 6 187q-22 -42 -54 -94l-642 -899v-125h-179zM380 1788h159q1 -66 49 -101t120 -35q46 0 83 14.5t61 46t25 75.5h159q-4 -56 -29 -103.5t-60 -80.5 q-42 -36 -103.5 -56.5t-135.5 -20.5q-150 0 -238 77q-17 16 -31.5 35t-27 42t-20.5 50.5t-11 56.5z" />
<glyph unicode="&#x41a;" horiz-adv-x="1315" d="M184 0v1433h179v-612h199q19 0 35.5 1t35 4t35 8t33.5 13t31.5 19t29 26.5t25.5 34.5q26 43 45 116t36.5 150t36.5 119q64 142 219 142q38 0 66 -9v-141q-29 4 -46 4q-21 0 -42.5 -13.5t-36.5 -32.5q-21 -27 -36 -84.5t-29 -129.5t-29 -112q-54 -145 -175 -167v-6 q148 -20 215 -169q22 -50 48.5 -164t60.5 -209q14 -42 34.5 -64.5t59.5 -22.5q27 0 40 4v-138q-37 -20 -90 -20q-125 0 -191 114q-19 33 -35 80t-24.5 82.5t-24.5 102.5q-4 18 -11 46l-10.5 42t-9 34t-9.5 32t-10 25t-12 24q-11 20 -24.5 36.5t-29.5 28t-31.5 20t-35.5 14 t-35.5 8.5t-38 4.5t-36.5 1.5h-36h-197v-675h-179z" />
<glyph unicode="&#x41b;" horiz-adv-x="1357" d="M20 0v165q25 -4 36 -4q58 0 98 25.5t71 80.5q23 39 40.5 100.5t36 180t29 327.5t10.5 493v65h833v-1433h-180v1278h-488q0 -1002 -221 -1209q-85 -77 -199 -77q-38 0 -66 8z" />
<glyph unicode="&#x41c;" horiz-adv-x="1754" d="M184 0v1433h263l430 -1146h4l427 1146h263v-1433h-180v1252h-4l-460 -1252h-120l-470 1252h-2v-1252h-151z" />
<glyph unicode="&#x41d;" horiz-adv-x="1395" d="M184 0v1433h179v-602h669v602h180v-1433h-180v685h-669v-685h-179z" />
<glyph unicode="&#x41e;" horiz-adv-x="1361" d="M92 716.5q0 193.5 55 343.5t150 244q154 150 384 150t384 -150q95 -94 150 -244t55 -344q0 -130 -26.5 -243.5t-71.5 -197.5t-107 -145q-154 -150 -384 -150t-384 150q-95 93 -150 243t-55 343.5zM285 716q0 -76 9 -144.5t22 -113.5t31 -85.5t30.5 -60t25.5 -37.5 q108 -141 278 -141q169 0 278 141q17 23 33.5 52t38 82.5t34.5 133.5t13 173.5t-13 173t-34.5 133t-38 83t-33.5 52.5q-109 141 -278 141q-170 0 -278 -141q-17 -23 -33.5 -52.5t-37.5 -83t-34 -133t-13 -173.5z" />
<glyph unicode="&#x41f;" horiz-adv-x="1373" d="M184 0v1433h1006v-1433h-179v1278h-648v-1278h-179z" />
<glyph unicode="&#x420;" horiz-adv-x="1221" d="M184 0v1433h474q108 0 197 -18.5t162 -73.5q153 -116 153 -326q0 -64 -14.5 -120.5t-37.5 -96t-42 -63t-40 -41.5q-30 -28 -63 -48.5t-68.5 -32.5t-63 -19t-66.5 -10t-56.5 -3.5t-54.5 -0.5h-301v-580h-179zM363 735h281q34 0 56.5 1.5t60.5 7.5t72 22t62 41 q37 34 59.5 89t22.5 123q0 38 -8 71t-21 56.5t-26 39.5t-27 28q-80 64 -235 64h-297v-543z" />
<glyph unicode="&#x421;" horiz-adv-x="1260" d="M92 740q0 74 8.5 143t24 121.5t32 95t37 76t34 53t27.5 35.5q162 190 432 190q100 0 187 -27.5t166 -100.5q31 -30 58 -65.5t48.5 -77t36.5 -89.5t21 -97l-170 -32q-20 103 -75 186q-52 77 -118.5 112.5t-157.5 35.5q-212 0 -320 -190q-78 -135 -78 -378q0 -229 66 -370 q22 -46 50.5 -84.5t68.5 -72t95 -52t118 -18.5q77 0 133 26t105 81q93 106 119 241l164 -35q-38 -189 -162 -319q-30 -32 -61 -56.5t-61.5 -40t-59 -26.5t-58.5 -16t-55.5 -7t-54.5 -2q-38 0 -70.5 3t-75 11t-81.5 25.5t-80.5 43.5t-81.5 67.5t-76 94.5q-44 68 -74.5 153.5 t-45.5 176.5t-15 185z" />
<glyph unicode="&#x422;" horiz-adv-x="1035" d="M23 1278v155h990v-155h-405v-1278h-180v1278h-405z" />
<glyph unicode="&#x423;" horiz-adv-x="1116" d="M20 1433h189l407 -863h2l337 863h159l-427 -1059q-2 -7 -8 -21q-16 -40 -24.5 -61.5t-25.5 -58t-32 -60.5t-37 -52t-46 -50q-33 -28 -73 -48t-80 -29.5t-79 -9.5q-49 0 -96 16v153q41 -15 79 -15q100 0 163 59q33 29 58 80t38 97z" />
<glyph unicode="&#x424;" horiz-adv-x="1637" d="M92 729q0 133 53 239t137 172q158 124 424 124h23v209h180v-209h22q266 0 425 -124q83 -67 136.5 -172.5t53.5 -238.5q0 -62 -12.5 -120.5t-29.5 -98t-40 -75t-39 -53t-32 -31.5q-159 -148 -484 -148v-223h-180v223q-325 0 -484 148q-13 11 -25.5 25.5t-31.5 39t-35 55.5 t-30.5 69t-22.5 87t-8 102zM275 725q0 -232 183 -324q61 -30 137.5 -40t139.5 -8v761h-21q-196 0 -303 -82q-136 -102 -136 -307zM903 353q38 -1 78.5 1t98.5 14t100 33q182 92 182 324q0 205 -136 307q-107 82 -303 82h-20v-761z" />
<glyph unicode="&#x425;" horiz-adv-x="1127" d="M6 0l466 748l-408 685h201l311 -530l311 530h185l-404 -662l454 -771h-201l-359 610l-372 -610h-184z" />
<glyph unicode="&#x426;" horiz-adv-x="1399" d="M184 0v1433h179v-1278h648v1278h179v-1278h168v-468h-168v313h-1006z" />
<glyph unicode="&#x427;" horiz-adv-x="1290" d="M125 967v466h180v-426v-31t2.5 -33.5t6.5 -37.5t13 -34.5t21.5 -34.5t32.5 -28t45 -23q17 -5 35.5 -9t43 -5t41 -1.5t48.5 -0.5q167 0 333 27v637h180v-1433h-180v642q-206 -28 -315 -28q-234 0 -345 65q-142 83 -142 288z" />
<glyph unicode="&#x428;" horiz-adv-x="1896" d="M184 0v1433h179v-1278h496v1278h179v-1278h495v1278h180v-1433h-1529z" />
<glyph unicode="&#x429;" horiz-adv-x="1921" d="M184 0v1433h179v-1278h496v1278h179v-1278h495v1278h180v-1278h167v-468h-167v313h-1529z" />
<glyph unicode="&#x42a;" horiz-adv-x="1489" d="M-20 1278v155h602v-616h325q48 0 87 -2.5t95.5 -11.5t107.5 -31t90 -56q57 -49 92 -132.5t35 -178.5q0 -83 -29 -162t-83 -135q-37 -37 -77.5 -60.5t-87.5 -33t-81.5 -12t-88.5 -2.5h-564v1278h-423zM582 155h358h10q29 0 47.5 1t49 6t57 17.5t49.5 33.5q69 66 69 188 q0 135 -78 199q-31 26 -75.5 40.5t-80 18t-81.5 3.5h-325v-507z" />
<glyph unicode="&#x42b;" horiz-adv-x="1712" d="M184 0v1433h179v-616h324q49 0 88 -2.5t95.5 -11.5t107.5 -31t90 -56q57 -49 91.5 -132.5t34.5 -178.5q0 -53 -11.5 -104.5t-37 -102.5t-63.5 -90q-35 -36 -76 -59.5t-85 -33t-76.5 -12.5t-77.5 -3h-583zM363 155h381q26 0 46 1.5t47 7t51.5 18t44.5 31.5q70 70 70 194 q0 131 -78 193q-18 14 -41.5 26t-50.5 20t-56 12t-58 4h-356v-507zM1349 0v1433h180v-1433h-180z" />
<glyph unicode="&#x42c;" horiz-adv-x="1269" d="M184 0v1433h179v-616h324q49 0 88 -2.5t95.5 -11.5t107.5 -31t90 -56q57 -49 91.5 -132.5t34.5 -178.5q0 -53 -11.5 -104.5t-37 -102.5t-63.5 -90q-35 -36 -76 -59.5t-83.5 -33t-71.5 -12.5t-64 -3h-603zM363 155h358h10q29 0 47 1t49 6t57.5 17.5t48.5 33.5 q70 66 70 188q0 135 -78 199q-74 62 -219 62h-343v-507z" />
<glyph unicode="&#x42d;" horiz-adv-x="1269" d="M71 385l182 35q24 -88 88 -161q109 -125 259 -125q60 0 113 18t92 49t66.5 64.5t47.5 73.5q36 68 51.5 157t15.5 172h-528v155h524q0 86 -24 178t-69 157q-99 141 -273 141q-145 0 -251 -111q-74 -77 -106 -185l-175 31q20 64 60 141.5t101 136.5q146 142 377 142 q238 0 381 -148q83 -87 129 -230t46 -330q0 -139 -28.5 -276.5t-86.5 -231.5q-19 -32 -43 -62t-66.5 -67.5t-91.5 -64.5t-120.5 -45.5t-151.5 -18.5q-214 0 -356 128q-56 50 -98.5 121t-64.5 156z" />
<glyph unicode="&#x42e;" horiz-adv-x="1892" d="M184 0v1433h179v-606h259q12 126 65 258.5t140 218.5q150 150 385 150q230 0 384 -150q95 -94 149.5 -244t54.5 -344t-54.5 -343.5t-149.5 -242.5q-154 -150 -384 -150q-233 0 -385 150q-99 97 -152 249t-53 293h-259v-672h-179zM815 716.5q0 -93.5 13 -173.5t34.5 -133 t37.5 -82.5t33 -52.5q109 -141 279 -141q169 0 277 141q18 23 34 52t37.5 82.5t35 133.5t13.5 173.5t-13.5 173t-35 133t-37.5 83t-34 52.5q-108 141 -277 141q-170 0 -279 -141q-17 -23 -33 -52.5t-37.5 -83t-34.5 -133t-13 -173z" />
<glyph unicode="&#x42f;" horiz-adv-x="1309" d="M73 0l389 630q-41 5 -81.5 17t-81.5 33.5t-72 50.5q-28 26 -50.5 59.5t-42 94.5t-19.5 132q0 99 36.5 175.5t89.5 125.5q34 32 75 54.5t77 34t84 18t80 7.5t83 1h486v-1433h-179v620h-299l-361 -620h-214zM307 1021q0 -120 80 -188q30 -25 71 -38.5t73.5 -16.5t80.5 -3 h335v503h-323q-148 0 -221 -48q-96 -65 -96 -209z" />
<glyph unicode="&#x430;" horiz-adv-x="1136" d="M84 299q0 51 13 96t35.5 77.5t45.5 55t49 40.5q38 25 84 43t86 27t97 13.5t94 5.5t99 1h138v44q0 122 -42 177q-15 21 -36.5 36t-42 23t-48 12.5t-47 5.5t-47.5 1q-269 0 -297 -186l-152 25q14 66 43 117t69 83.5t94 53t113 28.5t132 8q38 0 66.5 -1.5t74.5 -8t87.5 -24 t74.5 -43.5q28 -22 48.5 -49t33 -59.5t20 -61t11 -69t4 -67t0.5 -70.5v-410q0 -101 27 -223h-167q-15 89 -19 199q-12 -25 -26 -47t-45.5 -56t-69.5 -57.5t-99 -41t-132 -17.5q-172 0 -273 93q-96 88 -96 226zM259 299q0 -23 6.5 -46.5t24.5 -50t47 -45.5q57 -40 152 -40 q50 0 98.5 15.5t87 41.5t67.5 62q39 48 61 114.5t22 125.5v52h-135q-227 0 -323 -52q-31 -16 -53.5 -38.5t-33.5 -47t-16 -47t-5 -44.5z" />
<glyph unicode="&#x431;" horiz-adv-x="1178" d="M104 612q0 401 169 580q33 36 74 64t76.5 45t82.5 31t76 20t74 14q32 6 86.5 16.5t73 14t54 11t50.5 11.5t39 10.5t42 13.5t39 16v-155q-77 -38 -151 -56.5t-233 -45.5q-2 -1 -17 -3.5t-18.5 -3.5t-17.5 -3.5t-19.5 -3.5t-18.5 -4t-20 -5t-18.5 -5.5t-19.5 -6.5t-18 -6.5 t-19 -7.5q-85 -41 -135 -106q-36 -45 -62 -110.5t-35 -134.5h5q105 232 403 232q186 0 301 -107q40 -37 71 -87t53.5 -132.5t22.5 -181.5q0 -115 -30.5 -215.5t-88.5 -170.5q-132 -160 -383 -160q-197 0 -323 128q-165 168 -165 504zM289 516q0 -83 21.5 -166t67.5 -137 q32 -38 88.5 -67t141.5 -29q115 0 188 65q115 103 115 342q0 192 -88 289q-44 49 -96 66.5t-117 17.5q-66 0 -122 -17.5t-106 -70.5q-93 -100 -93 -293z" />
<glyph unicode="&#x432;" horiz-adv-x="1178" d="M169 0v1065h473q51 0 87.5 -2.5t81.5 -13t78 -30.5q114 -67 114 -204q0 -112 -72 -177q-63 -56 -137 -68v-4q57 -4 111 -27t87 -57q71 -70 71 -181q0 -73 -29 -134.5t-81 -102.5q-29 -22 -61.5 -36t-69 -19.5t-62.5 -7t-66 -1.5h-525zM328 130h334q112 0 167 52 q50 47 50 129q0 89 -64 136q-57 44 -167 44h-320v-361zM328 620h296q111 0 161 55q42 45 42 121q0 64 -46 103q-15 13 -32.5 21.5t-38 11.5t-33.5 3.5t-37 0.5h-312v-316z" />
<glyph unicode="&#x433;" horiz-adv-x="835" d="M169 0v1065h644v-129h-485v-936h-159z" />
<glyph unicode="&#x434;" horiz-adv-x="1073" d="M20 130h80q62 90 101 189q52 133 69 277.5t23 372.5l2 96h618v-935h108v-417h-146v287h-708v-287h-147v417zM265 130h489v806h-326l-2 -57q-15 -392 -93 -600q-18 -45 -68 -149z" />
<glyph unicode="&#x435;" horiz-adv-x="1112" d="M84 524q0 72 13.5 140.5t39.5 131.5t68 116t95.5 92t124.5 60.5t153 21.5t150.5 -21t115 -55t83 -82t57.5 -96.5t34 -102.5t17.5 -97t4.5 -84v-38h-773q-3 -115 36 -207q76 -186 277 -186q139 0 222 92q44 47 65 112l154 -30q-47 -145 -173 -233q-117 -78 -274 -78 q-225 0 -361 154q-129 146 -129 390zM275 640h582q-4 117 -50 193q-77 124 -227 124q-73 0 -132.5 -30.5t-98.5 -78.5q-22 -28 -38 -62t-25.5 -71.5t-10.5 -74.5z" />
<glyph unicode="&#x436;" horiz-adv-x="1495" d="M42 0v128q12 -5 40 -5q29 0 44 9.5t27 38.5q11 26 30 94.5t30 103.5q32 99 69 135q41 44 109 54v4q-79 10 -120 90q-11 20 -19.5 46t-13.5 45.5t-11 48.5t-10 43q-12 53 -27 76q-13 20 -27.5 25.5t-37.5 5.5q-21 0 -31 -2v125q32 7 61 7q59 0 95.5 -21t62.5 -67 q20 -35 39.5 -112t34.5 -118q22 -69 64 -98q47 -34 141 -34h80v443h151v-443h82q92 0 139 34q42 29 65 98q14 41 33.5 118t39.5 112q26 46 63 67t96 21q28 0 60 -7v-125q-10 2 -31 2q-23 0 -37.5 -5.5t-26.5 -25.5q-16 -23 -28 -76q-3 -11 -12 -54.5t-18.5 -73t-23.5 -55.5 q-41 -80 -119 -90v-4q68 -10 109 -54q36 -36 68 -135q11 -33 30.5 -102.5t30.5 -95.5q12 -29 26.5 -38.5t44.5 -9.5q27 0 40 5v-128q-36 -6 -69 -6q-82 0 -121 24q-48 31 -74 101q-12 31 -23 69.5t-21.5 80t-19.5 68.5q-10 30 -27 64q-14 26 -31.5 44t-33.5 27t-38.5 14 t-37.5 6t-41 1h-94v-493h-151v493h-94q-25 0 -40.5 -1t-38 -6t-38 -14t-33 -27t-31.5 -44q-17 -34 -28 -64q-9 -26 -28 -102t-36 -116q-26 -70 -73 -101q-40 -24 -121 -24q-34 0 -69 6z" />
<glyph unicode="&#x437;" horiz-adv-x="1058" d="M73 287l154 30q15 -77 62 -123q81 -86 231 -86q52 0 105.5 11.5t88.5 35.5q78 51 78 142q0 85 -50 131q-40 37 -92.5 49t-119.5 12h-119v129h119q23 0 49.5 3t53.5 9.5t46 15.5q92 42 92 150q0 72 -59 115q-57 46 -186 46q-119 0 -198 -66q-65 -53 -81 -137l-149 40 q40 170 197 244q98 48 248 48q176 0 272 -58q69 -42 100.5 -103t31.5 -125q0 -100 -70 -170q-57 -57 -150 -66v-4q49 -3 98.5 -25t83.5 -57q66 -69 66 -179q0 -85 -39 -147.5t-94 -99.5q-46 -31 -108 -48t-105.5 -20.5t-100.5 -3.5q-43 0 -76.5 2.5t-83.5 11t-96.5 29.5 t-83.5 55q-45 39 -74.5 94t-40.5 115z" />
<glyph unicode="&#x438;" horiz-adv-x="1148" d="M169 0v1065h159v-639q0 -31 -0.5 -48.5t-2.5 -43.5t-4 -55q16 36 36 69.5t30 47.5l35 49l399 528v92h159v-1065h-159v628q0 87 8 153q-26 -58 -96 -148l-405 -531v-102h-159z" />
<glyph unicode="&#x439;" horiz-adv-x="1148" d="M169 0v1065h159v-639q0 -31 -0.5 -48.5t-2.5 -43.5t-4 -55q16 36 36 69.5t30 47.5l35 49l399 528v92h159v-1065h-159v628q0 87 8 153q-26 -58 -96 -148l-405 -531v-102h-159zM289 1437h150q3 -50 35 -88q34 -35 100 -35q68 0 101 35q32 37 35 88h151q0 -82 -54 -146 q-79 -87 -233 -87q-153 0 -231 87q-54 64 -54 146z" />
<glyph unicode="&#x43a;" horiz-adv-x="1073" d="M169 0v1065h159v-445h142q57 0 93.5 8t69.5 31t55 68.5t39 118.5q1 3 4.5 18.5t4.5 20.5t4.5 19.5t5.5 21t6 19t7.5 20t8 17.5t10 18t11.5 15q49 57 147 57q18 0 50 -4v-126h-33q-48 -4 -68 -31q-15 -20 -32 -96l-16 -75q-16 -84 -59 -128t-101 -52v-4q37 -3 65.5 -16 t47.5 -35t30.5 -43.5t23.5 -50.5q17 -48 42.5 -133.5t38.5 -110.5q13 -27 30 -35.5t50 -8.5q25 0 37 2v-127q-23 -4 -69 -4q-25 0 -45.5 1.5t-38 7t-31.5 10t-26 14.5t-20.5 17t-17 22t-13.5 24.5t-12 29t-11 31t-11 35.5q-2 7 -3 11q-7 21 -16.5 50.5t-13.5 42.5t-10 32 t-9 27.5t-7.5 19.5t-8 18t-7.5 14q-29 52 -74 71t-116 19h-154v-491h-159z" />
<glyph unicode="&#x43b;" horiz-adv-x="1064" d="M10 0v138h18q40 1 86 30.5t74 80.5q18 32 29 86t21 205t15 407l2 118h642v-1065h-160v936h-342q-12 -341 -26.5 -489.5t-40.5 -223.5q-17 -49 -42 -88t-54 -62t-57.5 -38.5t-59.5 -22.5t-52.5 -9.5t-44.5 -2.5h-8z" />
<glyph unicode="&#x43c;" horiz-adv-x="1428" d="M169 0v1065h222l332 -814l315 814h222v-1065h-159v731q0 33 1 52.5t3 48t4 67.5q-24 -42 -81 -187l-276 -712h-82l-294 712q-15 36 -35 87.5t-40 99.5q0 -32 3 -85t3 -77v-737h-138z" />
<glyph unicode="&#x43d;" horiz-adv-x="1148" d="M169 0v1065h159v-445h493v445h159v-1065h-159v491h-493v-491h-159z" />
<glyph unicode="&#x43e;" horiz-adv-x="1127" d="M84 532q0 129 36 234t100.5 174.5t152.5 107.5t191 38q82 0 155.5 -23.5t133 -70.5t102.5 -113.5t66 -155t23 -191t-23 -191t-66 -154.5t-102.5 -113t-133 -70.5t-155.5 -23.5t-155.5 23.5t-132.5 70.5t-102 113t-66.5 154.5t-23.5 190.5zM267 532q0 -72 10 -132 t26.5 -102.5t40.5 -75t49.5 -52t56 -32t58 -17t57 -4.5t56.5 4.5t57.5 17t56 32t49.5 52t40.5 75t26.5 102.5t10 132.5t-10 132.5t-26.5 102.5t-40.5 75t-49.5 52t-56 32t-58 17.5t-56.5 5q-20 0 -39 -2.5t-40.5 -7.5t-41 -14.5t-39 -22t-36.5 -31t-33 -41.5t-28 -53.5 t-21 -66.5t-14 -81t-5 -97z" />
<glyph unicode="&#x43f;" horiz-adv-x="1148" d="M169 0v1065h811v-1065h-159v936h-493v-936h-159z" />
<glyph unicode="&#x440;" horiz-adv-x="1146" d="M169 -347v1412h146v-200l2 2q11 26 26 51t36 50t47.5 46t57.5 37.5t70 25.5t81 9q184 0 294 -123q66 -73 100 -188t34 -236q0 -113 -28.5 -220t-83.5 -181q-115 -158 -316 -158q-216 0 -300 187h-7v-514h-159zM328 422q0 -131 75 -215q28 -31 63.5 -51.5t70 -29.5 t69.5 -9q55 0 111.5 29t97.5 97q64 105 64 294q0 192 -62 292q-21 35 -47.5 59.5t-55 37t-54.5 18t-52 5.5q-111 0 -192 -84q-88 -95 -88 -219v-224z" />
<glyph unicode="&#x441;" horiz-adv-x="1006" d="M84 530q0 229 110 383q127 173 352 173q182 0 289 -121q29 -33 52.5 -76.5t37 -85.5t20.5 -82l-151 -27q-14 96 -59 161q-27 38 -75.5 66t-118.5 28q-132 0 -204 -120q-70 -112 -70 -301q0 -69 8.5 -128t22 -95t22.5 -53.5t17 -28.5q72 -106 202 -106q116 0 186 88 q54 69 69 173l151 -27q-11 -75 -43.5 -143.5t-78.5 -115.5q-109 -112 -289 -112q-176 0 -291 104q-77 70 -118 189.5t-41 256.5z" />
<glyph unicode="&#x442;" horiz-adv-x="827" d="M0 936v129h827v-129h-334v-936h-158v936h-335z" />
<glyph unicode="&#x443;" horiz-adv-x="891" d="M20 1065h185l275 -818l287 818h146l-420 -1165q-22 -60 -47 -105.5t-66 -85.5q-82 -76 -198 -76q-74 0 -134 20v124q51 -15 115 -15q25 0 40 1.5t37.5 9.5t41.5 24q29 25 51.5 68t48.5 119l13 34z" />
<glyph unicode="&#x444;" horiz-adv-x="1432" d="M84 524q0 87 17.5 161t47.5 125t58.5 84t61.5 59q65 50 162.5 81t184.5 31h22v368h158v-368h21q87 0 184.5 -31t162.5 -81q33 -26 61.5 -59t58.5 -84t47.5 -125t17.5 -161q0 -72 -13 -136.5t-36.5 -112.5t-49 -83t-56.5 -62q-52 -49 -125 -79.5t-139.5 -41t-133.5 -9.5 v-347h-158v347q-107 -2 -215.5 28.5t-184.5 101.5q-66 60 -110 158t-44 236zM259 532q0 -237 148 -344q52 -37 101.5 -47.5t109.5 -10.5h26v806h-18q-140 0 -225 -59q-28 -19 -51 -46t-44.5 -67.5t-34 -100t-12.5 -131.5zM789 130h26q60 0 109.5 10.5t101.5 47.5 q148 107 148 344q0 72 -12.5 131.5t-34 100t-44.5 67.5t-51 46q-85 59 -225 59h-18v-806z" />
<glyph unicode="&#x445;" horiz-adv-x="911" d="M8 0l355 550l-321 515h192l224 -367l232 367h158l-309 -481l366 -584h-193l-267 430l-278 -430h-159z" />
<glyph unicode="&#x446;" horiz-adv-x="1202" d="M169 0v1065h159v-935h518v935h159v-935h146v-417h-146v287h-836z" />
<glyph unicode="&#x447;" horiz-adv-x="1041" d="M115 796v269h158v-294q0 -3 -0.5 -28.5t0.5 -37t3.5 -32.5t9 -36.5t17.5 -28.5q9 -11 20.5 -19.5t27.5 -13t29 -7.5t34 -4t33.5 -1.5t36.5 -0.5q85 0 230 14v489h159v-1065h-159v449q-133 -17 -254 -17q-37 0 -60 1.5t-61.5 6t-71 16t-58.5 31.5q-23 16 -39.5 37 t-26.5 47.5t-16 49t-8.5 57.5t-3 56t-0.5 62z" />
<glyph unicode="&#x448;" horiz-adv-x="1549" d="M169 0v1065h159v-935h368v935h159v-935h367v935h159v-1065h-1212z" />
<glyph unicode="&#x449;" horiz-adv-x="1578" d="M169 0v1065h159v-935h368v935h159v-935h367v935h159v-935h146v-417h-146v287h-1212z" />
<glyph unicode="&#x44a;" horiz-adv-x="1194" d="M-10 936v129h476v-419h297q80 0 146 -16.5t117 -65.5q86 -86 86 -234q0 -164 -107 -257q-84 -73 -216 -73h-482v936h-317zM466 130h248q32 0 51 1t50.5 11.5t55.5 30.5q65 59 65 160q0 100 -71 149q-53 34 -144 34h-255v-386z" />
<glyph unicode="&#x44b;" horiz-adv-x="1441" d="M169 0v1065h159v-419h296q51 0 90 -4.5t88.5 -24t84.5 -53.5q86 -86 86 -234q0 -164 -106 -257q-84 -73 -215 -73h-483zM328 130h248q32 0 51.5 1t50.5 11.5t55 30.5q65 58 65 160q0 100 -71 149q-52 34 -145 34h-254v-386zM1114 0v1065h158v-1065h-158z" />
<glyph unicode="&#x44c;" horiz-adv-x="1056" d="M169 0v1065h159v-419h296q51 0 90 -4.5t88.5 -24t84.5 -53.5q86 -86 86 -234q0 -164 -106 -257q-84 -73 -215 -73h-483zM328 130h248q32 0 51.5 1t50.5 11.5t55 30.5q65 58 65 160q0 100 -71 149q-52 34 -145 34h-254v-386z" />
<glyph unicode="&#x44d;" horiz-adv-x="1052" d="M73 287l165 26q18 -76 85 -131q75 -65 187 -65q69 0 122 24.5t93 90.5q60 94 60 261h-386v129h386q0 105 -50 205q-70 122 -213 122q-44 0 -85 -12.5t-71.5 -31.5t-54.5 -44q-40 -40 -64 -109l-157 27q36 133 148 220q64 48 136.5 67.5t159.5 19.5q45 0 82.5 -5t79 -19 t81 -42t74.5 -69q37 -46 62.5 -103.5t36.5 -113.5t15 -96.5t4 -77.5q0 -257 -112 -416q-29 -41 -62 -71t-65 -47.5t-70 -28t-72 -14t-76 -3.5q-156 0 -257 62q-63 38 -110.5 101.5t-71.5 143.5z" />
<glyph unicode="&#x44e;" horiz-adv-x="1543" d="M169 0v1065h159v-449h171q1 14 4 32t14 61.5t26.5 83t46 88t68.5 84.5q60 57 144.5 89t177.5 32q102 0 183 -34.5t136 -86.5q48 -46 84 -109.5t57 -147t21 -176t-21 -176t-57 -147t-84 -109.5q-35 -33 -78 -58.5t-107 -43.5t-134 -18q-93 0 -177.5 31.5t-144.5 88.5 q-68 65 -112 168t-47 219h-171v-487h-159zM683 532.5q0 -238.5 102 -340.5q75 -75 195 -75t194 75q102 102 102 340.5t-102 340.5q-75 76 -194 76t-195 -76q-102 -102 -102 -340.5z" />
<glyph unicode="&#x44f;" horiz-adv-x="1071" d="M94 0l251 445q-11 2 -32.5 9t-60.5 27t-66 45q-21 20 -38 46t-32.5 77t-15.5 111q0 106 59 189q51 70 123 93t182 23h439v-1065h-159v435h-230l-237 -435h-183zM275 740q0 -84 53 -130t188 -46h228v372h-218q-79 0 -125 -10.5t-82 -50.5q-44 -49 -44 -135z" />
<glyph unicode="&#x451;" horiz-adv-x="1112" d="M84 524q0 72 13.5 140.5t39.5 131.5t68 116t95.5 92t124.5 60.5t153 21.5t150.5 -21t115 -55t83 -82t57.5 -96.5t34 -102.5t17.5 -97t4.5 -84v-38h-773q-3 -115 36 -207q76 -186 277 -186q139 0 222 92q44 47 65 112l154 -30q-47 -145 -173 -233q-117 -78 -274 -78 q-225 0 -361 154q-129 146 -129 390zM275 640h582q-4 117 -50 193q-77 124 -227 124q-73 0 -132.5 -30.5t-98.5 -78.5q-22 -28 -38 -62t-25.5 -71.5t-10.5 -74.5zM295 1272v199h198v-199h-198zM694 1272v199h197v-199h-197z" />
<glyph unicode="&#x452;" horiz-adv-x="1178" d="M16 1168v119h157v146h160v-146h392v-119h-392v-339q47 102 135 162t209 60q90 0 152.5 -28.5t97.5 -69.5q35 -39 54 -92t23.5 -96t4.5 -101v-597q0 -205 -67 -305q-84 -127 -255 -127q-84 0 -171 18v136q69 -16 144 -16q65 0 102 20.5t59 70.5q30 68 30 207v553 q0 54 -1.5 82.5t-12 69t-30.5 68.5q-52 69 -159 69q-87 0 -161 -48q-58 -38 -93 -95.5t-48 -119.5t-13 -140v-510h-160v1168h-157z" />
<glyph unicode="&#x453;" horiz-adv-x="835" d="M169 0v1065h644v-129h-485v-936h-159zM255 1293l420 248l71 -135l-449 -196z" />
<glyph unicode="&#x454;" horiz-adv-x="1052" d="M84 560q0 37 4 77.5t15 96.5t37 113.5t63 103.5q34 41 73.5 69t81 42t79 19t81.5 5q57 0 104.5 -7t98 -27t94.5 -53q111 -87 148 -220l-156 -27q-24 67 -65 109q-38 39 -92.5 63.5t-119.5 24.5q-142 0 -213 -122q-50 -100 -50 -205h387v-129h-387q0 -165 61 -261 q41 -66 93.5 -90.5t121.5 -24.5q112 0 186 65q68 55 86 131l165 -26q-23 -80 -71.5 -143.5t-110.5 -101.5q-101 -62 -257 -62q-54 0 -96 6t-86.5 23t-85 50.5t-76.5 84.5q-113 160 -113 416z" />
<glyph unicode="&#x455;" horiz-adv-x="1021" d="M62 282l159 31q15 -78 76 -131q92 -74 240 -74q121 0 186 51q62 47 62 128q0 22 -4.5 41t-15 34t-21 26t-29 20t-31 15t-35.5 12t-35 8.5l-36 7.5l-160 31q-312 61 -312 297q0 133 97 215q107 92 309 92q207 0 315 -104q69 -65 96 -161l-150 -32q-26 77 -93 122.5 t-166 45.5q-54 0 -95.5 -12t-65 -29.5t-38.5 -40.5t-19.5 -42.5t-4.5 -38.5q0 -108 150 -139q10 -2 27 -5l10 -2l144 -28q28 -5 39.5 -7t41 -8.5t48.5 -13.5t44.5 -17.5t47.5 -24.5t40 -31q86 -81 86 -219q0 -139 -104 -228q-35 -30 -78.5 -50t-89 -28t-78.5 -10.5t-73 -2.5 q-188 0 -295 58q-63 33 -115 93t-74 151z" />
<glyph unicode="&#x456;" horiz-adv-x="508" d="M167 1250v183h176v-183h-176zM175 0v1065h160v-1065h-160z" />
<glyph unicode="&#x457;" horiz-adv-x="572" d="M52 1272v199h167v-199h-167zM207 0v1065h158v-1065h-158zM353 1272v199h167v-199h-167z" />
<glyph unicode="&#x458;" horiz-adv-x="494" d="M-134 -221q70 -15 122 -15q109 0 150 63q29 47 29 155v1083h158v-1075q0 -39 -1.5 -67t-8.5 -68t-19.5 -70t-36.5 -60t-58 -50q-67 -40 -187 -40q-76 0 -148 18v126zM159 1250v183h176v-183h-176z" />
<glyph unicode="&#x459;" horiz-adv-x="1624" d="M10 0v138h18q33 2 61.5 14.5t47.5 30t35 42t24.5 46t15.5 47.5t9.5 41.5t3.5 31.5q22 181 28 556l2 118h642v-419h295q81 0 147 -16.5t117 -65.5q85 -86 85 -234q0 -164 -106 -257q-84 -73 -215 -73h-483v936h-342q-12 -346 -26 -491t-41 -222q-17 -49 -42 -88t-54 -62 t-57.5 -38.5t-59.5 -22.5t-52.5 -9.5t-44.5 -2.5h-8zM897 130h247q24 0 38 0.5t37 4.5t43.5 13.5t39.5 24.5q64 58 64 160q0 100 -71 149q-52 34 -144 34h-254v-386z" />
<glyph unicode="&#x45a;" horiz-adv-x="1708" d="M169 0v1065h159v-447h493v447h159v-419h296q80 0 146 -16.5t117 -65.5q86 -86 86 -234q0 -164 -106 -257q-84 -73 -215 -73h-483v489h-493v-489h-159zM980 130h248q32 0 51.5 1t50.5 11.5t55 30.5q64 58 64 160q0 100 -70 149q-52 34 -145 34h-254v-386z" />
<glyph unicode="&#x45b;" horiz-adv-x="1178" d="M16 1168v119h157v146h160v-146h392v-119h-392v-339q47 102 135 162t209 60q90 0 152.5 -28.5t97.5 -69.5q35 -39 54 -92t23.5 -96t4.5 -101v-664h-158v624q0 54 -1.5 82.5t-12 69t-30.5 68.5q-52 69 -159 69q-87 0 -161 -48q-58 -38 -93 -95.5t-48 -119.5t-13 -140v-510 h-160v1168h-157z" />
<glyph unicode="&#x45c;" horiz-adv-x="1073" d="M169 0v1065h159v-445h142q57 0 93.5 8t69.5 31t55 68.5t39 118.5q1 3 4.5 18.5t4.5 20.5t4.5 19.5t5.5 21t6 19t7.5 20t8 17.5t10 18t11.5 15q49 57 147 57q18 0 50 -4v-126h-33q-48 -4 -68 -31q-15 -20 -32 -96l-16 -75q-16 -84 -59 -128t-101 -52v-4q37 -3 65.5 -16 t47.5 -35t30.5 -43.5t23.5 -50.5q17 -48 42.5 -133.5t38.5 -110.5q13 -27 30 -35.5t50 -8.5q25 0 37 2v-127q-23 -4 -69 -4q-25 0 -45.5 1.5t-38 7t-31.5 10t-26 14.5t-20.5 17t-17 22t-13.5 24.5t-12 29t-11 31t-11 35.5q-2 7 -3 11q-7 21 -16.5 50.5t-13.5 42.5t-10 32 t-9 27.5t-7.5 19.5t-8 18t-7.5 14q-29 52 -74 71t-116 19h-154v-491h-159zM341 1293l419 248l71 -135l-449 -196z" />
<glyph unicode="&#x45e;" horiz-adv-x="891" d="M20 1065h185l275 -818l287 818h146l-420 -1165q-22 -60 -47 -105.5t-66 -85.5q-82 -76 -198 -76q-74 0 -134 20v124q51 -15 115 -15q25 0 40 1.5t37.5 9.5t41.5 24q29 25 51.5 68t48.5 119l13 34zM197 1437h150q3 -50 35 -88q34 -35 100.5 -35t99.5 35q33 38 36 88h151 q0 -81 -55 -146q-79 -87 -231.5 -87t-231.5 87q-54 64 -54 146z" />
<glyph unicode="&#x45f;" horiz-adv-x="1031" d="M98 0v1061h159v-931h518v931h158v-1061h-343v-287h-147v287h-345z" />
<glyph unicode="&#x490;" horiz-adv-x="1054" d="M184 0v1433h691v192h159v-351h-671v-1274h-179z" />
<glyph unicode="&#x491;" horiz-adv-x="833" d="M169 0v1065h521v132h123v-261h-485v-936h-159z" />
<glyph unicode="&#x2000;" horiz-adv-x="939" />
<glyph unicode="&#x2001;" horiz-adv-x="1878" />
<glyph unicode="&#x2002;" horiz-adv-x="939" />
<glyph unicode="&#x2003;" horiz-adv-x="1878" />
<glyph unicode="&#x2004;" horiz-adv-x="626" />
<glyph unicode="&#x2005;" horiz-adv-x="469" />
<glyph unicode="&#x2006;" horiz-adv-x="313" />
<glyph unicode="&#x2007;" horiz-adv-x="313" />
<glyph unicode="&#x2008;" horiz-adv-x="234" />
<glyph unicode="&#x2009;" horiz-adv-x="375" />
<glyph unicode="&#x200a;" horiz-adv-x="104" />
<glyph unicode="&#x2010;" horiz-adv-x="653" d="M104 472v130h446v-130h-446z" />
<glyph unicode="&#x2011;" horiz-adv-x="653" d="M104 472v130h446v-130h-446z" />
<glyph unicode="&#x2012;" horiz-adv-x="653" d="M104 472v130h446v-130h-446z" />
<glyph unicode="&#x2013;" horiz-adv-x="1473" d="M215 472v130h1045v-130h-1045z" />
<glyph unicode="&#x2014;" horiz-adv-x="2088" d="M104 472v130h1881v-130h-1881z" />
<glyph unicode="&#x2018;" horiz-adv-x="524" d="M155 969v213l140 251h74l-104 -251h104v-213h-214z" />
<glyph unicode="&#x2019;" horiz-adv-x="524" d="M155 969l104 251h-104v213h214v-213l-139 -251h-75z" />
<glyph unicode="&#x201a;" horiz-adv-x="554" d="M155 -253l122 253h-85v207h209v-179l-167 -281h-79z" />
<glyph unicode="&#x201c;" horiz-adv-x="871" d="M155 975v181l166 277h80l-124 -251h86v-207h-208zM470 975v181l168 277h78l-122 -251h85v-207h-209z" />
<glyph unicode="&#x201d;" horiz-adv-x="873" d="M155 975l122 251h-85v207h209v-179l-167 -279h-79zM472 973l124 253h-86v207h209v-179l-167 -281h-80z" />
<glyph unicode="&#x201e;" horiz-adv-x="873" d="M155 -253l122 253h-85v207h209v-179l-167 -281h-79zM472 -253l124 253h-86v207h209v-179l-167 -281h-80z" />
<glyph unicode="&#x2022;" d="M271 716q0 95 48 177.5t130 130.5t177.5 48t177.5 -48t130 -130.5t48 -177.5t-48 -177t-130 -130t-178 -48q-71 0 -136.5 28.5t-113.5 76t-76.5 113.5t-28.5 137z" />
<glyph unicode="&#x2026;" horiz-adv-x="1929" d="M155 0v236h230v-236h-230zM851 0v236h229v-236h-229zM1546 0v236h230v-236h-230z" />
<glyph unicode="&#x202f;" horiz-adv-x="375" />
<glyph unicode="&#x2039;" horiz-adv-x="463" d="M88 537l181 296h92l-110 -296l110 -305h-92z" />
<glyph unicode="&#x203a;" horiz-adv-x="463" d="M102 232l111 305l-111 296h92l182 -296l-182 -305h-92z" />
<glyph unicode="&#x205f;" horiz-adv-x="469" />
<glyph unicode="&#x20ac;" horiz-adv-x="1244" d="M56 514l50 132h99q-4 36 -4 77q0 36 4 73h-149l50 131h111q13 76 35 142t55 125.5t79 106.5t104 81.5t132.5 53t160.5 18.5q119 0 215.5 -30.5t150.5 -71.5v-172q-38 34 -84.5 59.5t-116 44t-146.5 18.5q-92 0 -166.5 -29.5t-124.5 -81t-80.5 -118t-41.5 -146.5h666 l-50 -131h-638q0 -8 -1 -33t-1 -40q0 -16 1 -43t1 -34h580l-48 -132h-510q28 -181 134.5 -280.5t280.5 -99.5q208 0 345 121v-173q-47 -40 -143.5 -70t-222.5 -30q-233 0 -378.5 133.5t-187.5 398.5h-161z" />
<glyph unicode="&#x2122;" horiz-adv-x="1718" d="M20 1329v104h632v-104h-251v-729h-130v729h-251zM752 600v833h184l254 -633l249 633h182v-833h-130v662l-265 -662h-92l-267 662v-662h-115z" />
<glyph unicode="&#x25fc;" horiz-adv-x="1064" d="M0 0v1065h1065v-1065h-1065z" />
</font>
</defs>
</svg>
