<?xml version="1.0" standalone="no"?>
<!DOCTYPE svg PUBLIC "-//W3C//DTD SVG 1.1//EN" "http://www.w3.org/Graphics/SVG/1.1/DTD/svg11.dtd" >
<svg xmlns="http://www.w3.org/2000/svg">
<metadata></metadata>
<defs>
<font id="franklin_gothic_medium_condRg" horiz-adv-x="1098" >
<font-face units-per-em="2048" ascent="1638" descent="-410" />
<missing-glyph horiz-adv-x="401" />
<glyph horiz-adv-x="0" />
<glyph unicode="&#xd;" horiz-adv-x="401" />
<glyph unicode=" "  horiz-adv-x="401" />
<glyph unicode="&#x09;" horiz-adv-x="401" />
<glyph unicode="&#xa0;" horiz-adv-x="401" />
<glyph unicode="!" horiz-adv-x="732" d="M222 1433h290l-73 -1047h-144zM247 0v264h239v-264h-239z" />
<glyph unicode="&#x22;" horiz-adv-x="1099" d="M274 1433h221l-34 -588h-152zM604 1433h220l-33 -588h-154z" />
<glyph unicode="#" d="M20 447l24 147h208l47 278h-208l23 145h208l71 416h154l-69 -416h238l69 416h155l-70 -416h208l-24 -145h-208l-47 -278h208l-24 -147h-208l-75 -447h-155l76 447h-239l-75 -447h-155l76 447h-208zM406 594h239l47 278h-238z" />
<glyph unicode="$" d="M98 386l188 64q45 -200 211 -232v428q-347 95 -347 383q0 135 84 245.5t256 132.5v142h132v-142q273 -27 349 -290l-169 -70q-34 93 -73 132t-115 59v-395q216 -58 301.5 -155.5t85.5 -243.5q0 -160 -97.5 -273t-281.5 -131v-183h-132v183q-312 35 -392 346zM352 1056 q0 -133 144 -177v356q-144 -37 -144 -179zM614 216q183 28 183 198q0 155 -183 197v-395z" />
<glyph unicode="%" horiz-adv-x="1464" d="M91 1075q0 178 77.5 274.5t205.5 96.5q126 0 203.5 -95t77.5 -276q0 -177 -77 -273.5t-204 -96.5t-205 95.5t-78 274.5zM258 1075q0 -238 115 -238t115 238q0 240 -114 240q-116 0 -116 -240zM314 0l699 1433h142l-699 -1433h-142zM810 358q0 179 77.5 275t203.5 96 q127 0 204.5 -96.5t77.5 -274.5q0 -177 -77 -274t-205 -97q-127 0 -204 97t-77 274zM976 353q0 -233 115 -233t115 238q0 239 -115 239t-115 -244z" />
<glyph unicode="&#x26;" horiz-adv-x="1355" d="M127 396q0 279 312 424q-125 194 -125 330q0 123 94 216.5t244 93.5q151 0 236.5 -89t85.5 -222q0 -226 -261 -373l245 -353q83 130 126 377l177 -38q-52 -290 -193 -489q78 -97 151 -97q24 0 66 9v-185q-66 -19 -113 -19q-136 0 -247 141q-165 -148 -366 -148 q-208 0 -320 123t-112 299zM354 407q0 -112 64.5 -183.5t169.5 -71.5q135 0 234 112l-291 423q-177 -106 -177 -280zM523 1155q0 -101 95 -249q167 97 167 245q0 65 -35.5 106.5t-93.5 41.5q-55 0 -94 -39t-39 -105z" />
<glyph unicode="'" horiz-adv-x="732" d="M256 1433h221l-34 -588h-152z" />
<glyph unicode="(" horiz-adv-x="549" d="M98 538q0 489 289 895h175q-246 -406 -246 -895q0 -492 246 -897h-175q-289 417 -289 897z" />
<glyph unicode=")" horiz-adv-x="549" d="M-13 -359q246 406 246 897q0 489 -246 895h175q290 -407 290 -895q0 -490 -290 -897h-175z" />
<glyph unicode="*" d="M185 942l248 110l-248 111l74 144l235 -157l-24 283h159l-24 -283l235 157l75 -144l-248 -111l248 -110l-75 -143l-235 157l24 -284h-159l24 284l-235 -157z" />
<glyph unicode="+" d="M109 629v175h349v352h182v-352h348v-175h-348v-352h-182v352h-349z" />
<glyph unicode="," horiz-adv-x="513" d="M126 -303l131 303h-110v271h239v-258l-156 -316h-104z" />
<glyph unicode="-" horiz-adv-x="622" d="M84 450v176h454v-176h-454z" />
<glyph unicode="." horiz-adv-x="513" d="M136 0v271h240v-271h-240z" />
<glyph unicode="/" horiz-adv-x="1025" d="M-33 -359l792 1792h164l-792 -1792h-164z" />
<glyph unicode="0" d="M82 699q0 402 119.5 581.5t347.5 179.5q467 0 467 -726q0 -401 -119 -580.5t-348 -179.5q-467 0 -467 725zM327 717q0 -342 61.5 -454.5t160.5 -112.5q113 0 168 127.5t55 439.5q0 315 -56.5 441t-166.5 126q-109 0 -165.5 -124.5t-56.5 -442.5z" />
<glyph unicode="1" d="M244 956v220q184 101 314 273h173v-1273h233v-176h-714v176h249v982q-97 -116 -255 -202z" />
<glyph unicode="2" d="M70 0v206q417 359 532 522.5t115 295.5q0 105 -54 172t-146 67q-197 0 -233 -290l-214 45q38 217 157 329.5t304 112.5q202 0 316.5 -119t114.5 -304q0 -214 -165 -407t-475 -422h648l-10 -208h-890z" />
<glyph unicode="3" d="M42 358l204 48q52 -244 257 -244q93 0 161.5 61.5t68.5 194.5q0 105 -62 171.5t-228 66.5h-90v176h90q93 0 141.5 15.5t84.5 68.5t36 137q0 103 -52.5 164t-146.5 61q-173 0 -226 -213l-199 46q99 349 442 349q196 0 308 -103.5t112 -282.5q0 -227 -224 -320 q264 -72 264 -352q0 -199 -130.5 -313.5t-334.5 -114.5q-184 0 -312.5 90.5t-163.5 293.5z" />
<glyph unicode="4" d="M65 342v175l517 943h273v-936h179v-182h-179v-342h-231v342h-559zM253 516h382v734z" />
<glyph unicode="5" d="M89 343l211 52q50 -225 243 -225q235 0 235 305q0 137 -58 213.5t-171 76.5q-158 0 -225 -157l-178 38l45 787h746l-22 -208h-545l-21 -398q99 134 264 134q180 0 288 -126t108 -352q0 -241 -129.5 -375t-342.5 -134q-169 0 -292 93.5t-156 275.5z" />
<glyph unicode="6" d="M116 684q0 376 132 576t359 200q149 0 259 -83t154 -265l-198 -62q-50 226 -218 226q-135 0 -199.5 -139t-70.5 -425q93 212 305 212q164 0 278.5 -126.5t114.5 -340.5q0 -219 -121 -351t-321 -132q-211 0 -342.5 172t-131.5 538zM360 449q0 -127 62 -209t167 -82 q212 0 212 294q0 143 -56.5 215.5t-151.5 72.5q-113 0 -173 -83.5t-60 -207.5z" />
<glyph unicode="7" d="M151 1225l19 208h828v-167q-179 -229 -285.5 -567t-106.5 -699h-251q0 656 430 1225h-634z" />
<glyph unicode="8" d="M72 364q0 243 267 365q-217 126 -217 338q0 168 115 280.5t325 112.5q201 0 311 -102.5t110 -263.5q0 -210 -224 -319q268 -129 268 -382q0 -179 -129.5 -299t-359.5 -120q-227 0 -346.5 108t-119.5 282zM287 379q0 -111 73.5 -173t187.5 -62q106 0 178 58t72 156 q0 85 -59 149.5t-231 132.5q-221 -93 -221 -261zM350 1100q0 -163 231 -250q195 98 195 241q0 87 -58.5 145.5t-155.5 58.5q-93 0 -152.5 -54.5t-59.5 -140.5z" />
<glyph unicode="9" d="M69 979q0 212 122 346.5t326 134.5q463 0 463 -678q0 -808 -490 -808q-153 0 -247.5 71t-149.5 243l205 61q46 -191 203 -191q133 0 191.5 139.5t63.5 399.5q-96 -189 -293 -189q-165 0 -279.5 129t-114.5 342zM298 986q0 -129 58 -205t161 -76q105 0 161.5 82.5 t56.5 202.5q0 126 -58.5 206t-158.5 80q-97 0 -158.5 -75t-61.5 -215z" />
<glyph unicode=":" horiz-adv-x="512" d="M136 0v271h240v-271h-240zM136 790v270h240v-270h-240z" />
<glyph unicode=";" horiz-adv-x="513" d="M126 -303l131 303h-110v271h239v-258l-156 -316h-104zM147 790v270h239v-270h-239z" />
<glyph unicode="&#x3c;" d="M62 613v206l931 463v-241l-673 -326l672 -325l1 -241z" />
<glyph unicode="=" d="M109 482v174h879v-174h-879zM109 777v174h879v-174h-879z" />
<glyph unicode="&#x3e;" d="M105 149v242l674 325l-673 327l-1 239l931 -464v-206z" />
<glyph unicode="?" horiz-adv-x="1062" d="M82 1014q40 446 435 446q190 0 300 -107.5t110 -288.5q0 -91 -37.5 -180.5t-177.5 -204.5q-96 -78 -116.5 -122.5t-20.5 -117.5l1 -57h-198l1 44q0 155 24 215.5t120 142.5q94 81 130 138.5t36 145.5q0 101 -50 152.5t-136 51.5q-201 0 -217 -298zM360 0v258h234v-258 h-234z" />
<glyph unicode="@" horiz-adv-x="1282" d="M16 701q0 340 183.5 555t481.5 215q266 0 426 -171.5t160 -473.5q0 -237 -101 -385t-247 -148q-128 0 -156 123q-62 -128 -187 -128q-104 0 -168.5 93.5t-64.5 253.5q0 202 88 336.5t219 134.5q121 0 170 -133l16 117h126l-62 -444q-14 -100 -14 -142q0 -72 53 -72 q76 0 129.5 105t53.5 271q0 258 -121 397.5t-323 139.5q-225 0 -366 -181t-141 -457q0 -272 144 -443.5t390 -171.5q202 0 383 113l48 -116q-218 -124 -439 -124q-304 0 -492.5 197.5t-188.5 538.5zM509 638q0 -90 27.5 -141.5t72.5 -51.5q71 0 109 96.5t38 224.5 q0 182 -98 182q-65 0 -107 -87t-42 -223z" />
<glyph unicode="A" horiz-adv-x="1062" d="M-8 0l414 1433h266l384 -1433h-240l-90 359h-419l-89 -359h-226zM354 546h324l-162 656z" />
<glyph unicode="B" horiz-adv-x="1171" d="M138 0v1433h433q164 0 249 -26t144 -117t59 -221q0 -238 -213 -314q257 -81 257 -360q0 -159 -101.5 -277t-387.5 -118h-440zM370 190h191q262 0 262 232q0 90 -55.5 161.5t-226.5 71.5h-171v-465zM370 839h150q158 0 208.5 58.5t50.5 150.5q0 108 -57.5 155t-178.5 47 h-173v-411z" />
<glyph unicode="C" horiz-adv-x="1135" d="M89 711q0 362 135.5 555.5t390.5 193.5q395 0 463 -490l-220 -32q-36 325 -242 325q-275 0 -275 -566q0 -527 275 -527q111 0 165 80.5t77 231.5l218 -30q-67 -478 -469 -478q-262 0 -390 200.5t-128 536.5z" />
<glyph unicode="D" horiz-adv-x="1208" d="M139 0v1433h322q234 0 374 -83t212 -246.5t72 -363.5q0 -210 -64.5 -374t-197.5 -265t-378 -101h-340zM376 190h99q206 0 299.5 143.5t93.5 382.5q0 527 -393 527h-99v-1053z" />
<glyph unicode="E" horiz-adv-x="989" d="M138 0v1433h821v-190h-584v-409h458v-191h-458v-449h593v-194h-830z" />
<glyph unicode="F" horiz-adv-x="915" d="M138 0v1433h795v-190h-558v-428h447v-190h-447v-625h-237z" />
<glyph unicode="G" horiz-adv-x="1209" d="M89 697q0 352 134 557.5t411 205.5q387 0 462 -437l-214 -54q-38 185 -102 239.5t-151 54.5q-289 0 -289 -545q0 -548 296 -548q246 0 246 375h-257v190h479v-745h-126l-32 181q-109 -197 -345 -197q-241 0 -376.5 194.5t-135.5 528.5z" />
<glyph unicode="H" horiz-adv-x="1171" d="M138 0v1433h237v-594h422v594h237v-1433h-237v638h-422v-638h-237z" />
<glyph unicode="I" horiz-adv-x="512" d="M138 0v1433h237v-1433h-237z" />
<glyph unicode="J" horiz-adv-x="659" d="M-35 0v196q74 -20 139 -20q77 0 116 28.5t54.5 87t15.5 250.5v891h237v-891q0 -222 -25 -330t-108 -173t-239 -65q-79 0 -190 26z" />
<glyph unicode="K" horiz-adv-x="1099" d="M138 0v1433h237v-683l432 683h251l-369 -526l432 -907h-257l-320 711l-169 -241v-470h-237z" />
<glyph unicode="L" horiz-adv-x="878" d="M138 0v1433h237v-1232h507v-201h-744z" />
<glyph unicode="M" horiz-adv-x="1538" d="M132 0v1433h352l286 -1033l293 1033h337v-1433h-223v1223l-340 -1223h-172l-334 1224v-1224h-199z" />
<glyph unicode="N" horiz-adv-x="1208" d="M130 0v1433h280l471 -1033v1033h198v-1433h-221l-529 1148v-1148h-199z" />
<glyph unicode="O" horiz-adv-x="1209" d="M90 717q0 366 132.5 554.5t384.5 188.5q249 0 381 -187.5t132 -555.5q0 -367 -131 -555t-381 -188q-251 0 -384.5 187.5t-133.5 555.5zM339 717q0 -250 58 -399t211 -149q144 0 204 144.5t60 403.5q0 255 -59.5 401.5t-207.5 146.5t-207 -147t-59 -401z" />
<glyph unicode="P" horiz-adv-x="1062" d="M138 0v1433h354q171 0 277 -32t178.5 -141.5t72.5 -264.5q0 -141 -59 -243t-158 -147t-305 -45h-123v-560h-237zM375 750h117q158 0 218.5 58.5t60.5 191.5q0 98 -40 159.5t-88 76t-151 14.5h-117v-500z" />
<glyph unicode="Q" horiz-adv-x="1208" d="M89 717q0 366 132.5 554.5t384.5 188.5q251 0 382 -188.5t131 -554.5q0 -576 -327 -707q0 -78 26.5 -116t113.5 -38q52 0 109 19v-181q-67 -25 -140 -25q-293 0 -295 307q-240 0 -378.5 178.5t-138.5 562.5zM339 717q0 -260 59.5 -404t205.5 -144q148 0 206 145.5 t58 402.5q0 185 -29 311t-86.5 181.5t-148.5 55.5q-146 0 -205.5 -143.5t-59.5 -404.5z" />
<glyph unicode="R" horiz-adv-x="1135" d="M138 0v1433h431q234 0 345.5 -106t111.5 -304q0 -265 -220 -375l272 -648h-257l-224 598h-222v-598h-237zM375 782h181q122 0 179.5 67.5t57.5 175.5q0 225 -234 225h-184v-468z" />
<glyph unicode="S" horiz-adv-x="1099" d="M50 375l212 60q56 -265 290 -265q115 0 174 59.5t59 146.5q0 64 -40.5 118.5t-203.5 116.5q-172 65 -248.5 110t-130 133.5t-53.5 200.5q0 171 119.5 288t316.5 117q350 0 446 -347l-202 -70q-36 113 -94.5 167t-158.5 54q-94 0 -145 -55t-51 -126q0 -79 57.5 -126 t228.5 -112q146 -55 224.5 -105.5t127.5 -135t49 -196.5q0 -180 -127.5 -307t-357.5 -127q-397 0 -492 401z" />
<glyph unicode="T" horiz-adv-x="806" d="M-34 1232v201h875v-201h-320v-1232h-237v1232h-318z" />
<glyph unicode="U" horiz-adv-x="1171" d="M127 544v889h232v-889q0 -149 16 -220t72 -112.5t151 -41.5q91 0 141.5 34t71.5 96.5t21 247.5v885h213v-873q0 -210 -30 -323.5t-138.5 -188t-291.5 -74.5q-142 0 -246.5 46.5t-158 151t-53.5 372.5z" />
<glyph unicode="V" horiz-adv-x="989" d="M-8 1433h250l271 -1143l273 1143h210l-378 -1436l-257 3z" />
<glyph unicode="W" horiz-adv-x="1501" d="M5 1433h241l194 -1073l225 1073h205l223 -1074l204 1074h200l-301 -1436h-214l-227 1052l-223 -1052h-218z" />
<glyph unicode="X" horiz-adv-x="952" d="M-29 0l383 742l-337 691h263l206 -457l229 457h222l-332 -651l377 -782h-267l-244 549l-276 -549h-224z" />
<glyph unicode="Y" horiz-adv-x="878" d="M-68 1433h257l264 -597l267 597h227l-398 -827v-606h-236v606z" />
<glyph unicode="Z" horiz-adv-x="915" d="M1 0v184l629 1055h-590v194h860v-166l-634 -1067h651v-200h-916z" />
<glyph unicode="[" horiz-adv-x="549" d="M154 -359v1792h372v-121h-168v-1550h168v-121h-372z" />
<glyph unicode="\" horiz-adv-x="1025" d="M103 1433h164l791 -1792h-163z" />
<glyph unicode="]" horiz-adv-x="549" d="M23 -238h169v1550h-169v121h372v-1792h-372v121z" />
<glyph unicode="^" horiz-adv-x="1075" d="M23 738l355 703h320l355 -703h-256l-259 508l-259 -508h-256z" />
<glyph unicode="_" horiz-adv-x="1075" d="M0 -112h1075v-219h-1075v219z" />
<glyph unicode="`" horiz-adv-x="1075" d="M249 1421l113 142l337 -295l-79 -80z" />
<glyph unicode="a" horiz-adv-x="989" d="M76 280q0 174 119 274.5t413 100.5q15 0 46 -1v43q0 114 -34 171.5t-122 57.5q-144 0 -172 -166l-212 26q21 142 131 221t269 79q143 0 228.5 -57.5t108 -136t22.5 -238.5v-361q0 -219 18 -293h-206q-14 58 -14 176q-100 -202 -298 -202q-135 0 -216 82.5t-81 223.5z M304 297q0 -163 142 -163q83 0 145.5 88.5t62.5 242.5v52q-42 4 -64 4q-286 0 -286 -224z" />
<glyph unicode="b" horiz-adv-x="1025" d="M128 0v1433h217v-494q94 140 247 140q166 0 262 -141t96 -380q0 -580 -392 -580q-185 0 -258 166q-24 -60 -48 -144h-124zM345 448q0 -305 187 -305q97 0 141 92.5t44 309.5q0 209 -44 291.5t-136 82.5q-81 0 -136.5 -73.5t-55.5 -198.5v-199z" />
<glyph unicode="c" horiz-adv-x="878" d="M77 527q0 273 106 416t308 143q327 0 373 -382l-211 -24q-16 139 -53.5 185.5t-107.5 46.5q-97 0 -141 -89.5t-44 -315.5q0 -353 185 -353q143 0 161 230l211 -19q-43 -391 -387 -391q-204 0 -302 147t-98 406z" />
<glyph unicode="d" horiz-adv-x="1025" d="M76 525q0 261 99 407t264 146q173 0 242 -140v495h218v-1433h-201v161q-76 -180 -263 -180q-180 0 -269.5 150t-89.5 394zM309 545q0 -399 185 -399q71 0 129 66t58 230v182q0 164 -61.5 229.5t-128.5 65.5q-182 0 -182 -374z" />
<glyph unicode="e" horiz-adv-x="952" d="M77 514q0 274 115.5 423t308.5 149q135 0 227.5 -74.5t130.5 -196t41 -317.5h-600q0 -216 58.5 -287.5t146.5 -71.5q147 0 186 198l199 -26q-78 -337 -392 -337q-192 0 -306.5 137.5t-114.5 402.5zM306 646h370q0 280 -182 280q-172 0 -188 -280z" />
<glyph unicode="f" horiz-adv-x="549" d="M21 884v176h139q3 190 32.5 261.5t96 112.5t180.5 41q67 0 129 -12v-175q-45 8 -82 8q-66 0 -97 -24.5t-38 -61.5t-7 -150h190v-176h-190v-884h-214v884h-139z" />
<glyph unicode="g" horiz-adv-x="952" d="M58 -125q0 153 154 205q-115 64 -115 173q0 139 156 213q-136 90 -136 272q0 156 103.5 252t267.5 96q107 0 201 -46q17 110 63.5 152.5t135.5 42.5q27 0 65 -5v-161q-30 6 -50 6q-97 0 -114 -116q79 -101 79 -228q0 -144 -99.5 -242.5t-268.5 -98.5q-64 0 -135 18 q-79 -30 -79 -92q0 -54 42.5 -69.5t224.5 -24.5q158 -9 237.5 -30t127.5 -85.5t48 -169.5q0 -162 -125 -245.5t-356 -83.5q-223 0 -325 73t-102 194zM256 -91q0 -76 59 -111.5t195 -35.5q252 0 252 146q0 71 -47.5 98t-188.5 31q-119 4 -178 7q-92 -45 -92 -135zM342 732 q0 -204 152 -204q149 0 149 206q0 208 -144 208q-157 0 -157 -210z" />
<glyph unicode="h" horiz-adv-x="989" d="M128 0v1433h220v-513q74 166 253 166q91 0 153.5 -42t87 -112t24.5 -264v-668h-218v668q0 166 -38 204t-93 38q-169 0 -169 -303v-607h-220z" />
<glyph unicode="i" horiz-adv-x="476" d="M124 1203v232h229v-232h-229zM129 0v1060h219v-1060h-219z" />
<glyph unicode="j" horiz-adv-x="476" d="M-55 -184q42 -10 79 -10q73 0 91 41t18 194v1019h219v-1022q0 -163 -16 -240.5t-79.5 -128t-176.5 -50.5q-61 0 -135 16v181zM128 1203v232h230v-232h-230z" />
<glyph unicode="k" horiz-adv-x="915" d="M128 0v1433h220v-847l342 474h216l-274 -366l305 -694h-237l-212 531l-140 -194v-337h-220z" />
<glyph unicode="l" horiz-adv-x="476" d="M129 0v1433h220v-1433h-220z" />
<glyph unicode="m" horiz-adv-x="1501" d="M128 0v1060h203v-161q77 187 261 187q202 0 243 -198q74 198 269 198q96 0 160.5 -42t90 -111.5t25.5 -261.5v-671h-220v653q0 150 -25.5 203.5t-103.5 53.5q-166 0 -166 -288v-622h-219v646q0 137 -11 177.5t-41 63.5t-77 23q-92 0 -130.5 -68.5t-38.5 -225.5v-616h-220 z" />
<glyph unicode="n" horiz-adv-x="989" d="M129 0v1060h203v-163q73 189 262 189q107 0 173 -51.5t83 -123.5t17 -227v-684h-218v672q0 139 -24 188.5t-103 49.5q-82 0 -127.5 -63.5t-45.5 -252.5v-594h-220z" />
<glyph unicode="o" horiz-adv-x="989" d="M77 530q0 556 420 556q191 0 302.5 -135.5t111.5 -409.5q0 -567 -420 -567q-193 0 -303.5 137t-110.5 419zM310 530q0 -199 43 -294.5t142 -95.5q97 0 140.5 97t43.5 293q0 224 -49.5 307.5t-134.5 83.5q-185 0 -185 -391z" />
<glyph unicode="p" horiz-adv-x="1025" d="M128 -359v1419h202v-174q83 192 262 192q161 0 259.5 -140t98.5 -399q0 -232 -89.5 -395t-278.5 -163q-152 0 -237 129v-469h-217zM345 443q0 -102 15.5 -159t62.5 -97.5t107 -40.5q187 0 187 393q0 380 -183 380q-80 0 -134.5 -78t-54.5 -221v-177z" />
<glyph unicode="q" horiz-adv-x="1025" d="M76 511q0 289 105 428.5t269 139.5q176 0 260 -176q36 65 68 165h120q-4 -88 -4 -247v-1180h-220v494q-87 -154 -248 -154q-149 0 -249.5 133.5t-100.5 396.5zM308 536q0 -390 180 -390q73 0 129.5 84t56.5 255v138q0 141 -54 218.5t-131 77.5q-91 0 -136 -89t-45 -294z " />
<glyph unicode="r" horiz-adv-x="585" d="M129 0v1060h193v-237q89 260 265 260q17 0 40 -4v-227q-27 3 -44 3q-234 0 -234 -315v-540h-220z" />
<glyph unicode="s" horiz-adv-x="843" d="M36 282l186 35q35 -183 202 -183q85 0 126.5 42t41.5 100q0 40 -28 79.5t-159 81.5q-125 40 -188.5 74.5t-104.5 100t-41 148.5q0 136 99 231t255 95q266 0 343 -273l-172 -47q-47 160 -179 160q-61 0 -98.5 -38t-37.5 -93q0 -63 38 -92.5t173 -73.5 q167 -56 240.5 -125.5t73.5 -194.5q0 -141 -105 -238t-283 -97q-337 0 -382 308z" />
<glyph unicode="t" horiz-adv-x="585" d="M13 884v176h143l12 277l197 19v-296h203v-176h-203v-468q0 -124 6.5 -164.5t38 -66t104.5 -25.5q39 0 89 7v-174q-89 -19 -164 -19q-123 0 -188 47.5t-83 129.5t-18 250v483h-137z" />
<glyph unicode="u" horiz-adv-x="990" d="M122 382v678h219v-674q0 -140 23 -188t102 -48q98 0 137 85t39 315v510h218v-1060h-201v160q-85 -186 -269 -186q-95 0 -155.5 40t-86.5 113.5t-26 254.5z" />
<glyph unicode="v" horiz-adv-x="769" d="M-12 1060h216l198 -761l194 761h190l-300 -1060h-194z" />
<glyph unicode="w" horiz-adv-x="1208" d="M-2 1060h215l158 -728l152 728h192l151 -732l168 732h178l-263 -1060h-186l-160 735l-154 -735h-185z" />
<glyph unicode="x" horiz-adv-x="769" d="M-37 0l308 550l-274 510h242l156 -308l161 308h204l-268 -479l313 -581h-243l-192 375l-200 -375h-207z" />
<glyph unicode="y" horiz-adv-x="769" d="M-1 1060h219l185 -728l190 728h198l-345 -1127q-38 -123 -69.5 -182t-89 -95t-148.5 -36q-55 0 -113 15v174q42 -7 77 -7q85 0 120.5 41t76.5 193z" />
<glyph unicode="z" horiz-adv-x="732" d="M32 0v166l430 729h-393v165h645v-133l-446 -761h450v-166h-686z" />
<glyph unicode="{" horiz-adv-x="549" d="M77 475v150q75 0 94.5 40t19.5 202v231q0 205 67.5 271t197.5 66q19 0 67 -2v-125q-83 -1 -106 -35t-23 -175v-226q0 -187 -23 -239.5t-109 -82.5q84 -30 108 -82.5t24 -239.5v-252q0 -140 22.5 -175t106.5 -35v-125q-57 -2 -63 -2q-143 0 -206 71t-63 266v256 q0 161 -19 202t-95 41z" />
<glyph unicode="|" horiz-adv-x="1075" d="M416 -358v1791h243v-1791h-243z" />
<glyph unicode="}" horiz-adv-x="549" d="M26 -234q83 0 106 34.5t23 175.5v252q0 186 23 238.5t109 83.5q-84 30 -108 82.5t-24 239.5v226q0 140 -23 174t-106 36v125q57 2 62 2q147 0 208.5 -73.5t61.5 -263.5v-231q0 -127 5.5 -162.5t31.5 -57.5t77 -22v-150q-51 0 -76.5 -21.5t-31.5 -57.5t-6 -164v-256 q0 -205 -67 -271t-198 -66q-18 0 -67 2v125z" />
<glyph unicode="~" horiz-adv-x="1433" d="M196 592q76 171 149.5 222t161.5 51q77 0 231 -64q143 -60 198 -60q104 0 174 128l127 -73q-118 -265 -330 -265q-65 0 -251 76q-118 48 -166 48q-99 0 -171 -144z" />
<glyph unicode="&#xa2;" d="M176 711q0 215 81.5 360t250.5 166v196h125v-196q258 -35 300 -352l-184 -24q-17 167 -121 214v-682q101 39 121 211l184 -24q-39 -316 -300 -357v-235h-125v235q-168 25 -250 164.5t-82 323.5zM387 737q0 -275 126 -340v671q-126 -59 -126 -331z" />
<glyph unicode="&#xa3;" d="M42 0v189h74q87 0 141.5 29.5t91 98.5t36.5 179q0 76 -15 173h-207v170h179q-24 147 -24 226q0 176 100.5 285.5t280.5 109.5q252 0 345 -229l-169 -104q-56 152 -175 152q-154 0 -154 -214q0 -49 15 -145l11 -81h273v-170h-251q9 -59 9 -111q0 -244 -177 -371h161 q165 0 240.5 41t125.5 151l171 -89q-51 -130 -114 -189t-152 -80t-271 -21h-545z" />
<glyph unicode="&#xa5;" d="M58 1433h241l265 -642l273 642h203l-265 -571h238v-132h-297l-64 -147h361v-131h-361v-452h-213v452h-338v131h337l-67 147h-270v132h214z" />
<glyph unicode="&#xa8;" horiz-adv-x="1075" d="M256 1328q0 46 34 77.5t81 31.5q45 0 79.5 -30t34.5 -79q0 -47 -35.5 -77t-78.5 -30q-42 0 -78.5 29.5t-36.5 77.5zM590 1328q0 45 34 77t81 32q46 0 80 -31.5t34 -77.5q0 -48 -35.5 -77.5t-78.5 -29.5t-79 30t-36 77z" />
<glyph unicode="&#xa9;" horiz-adv-x="1680" d="M90 717q0 306 220.5 524.5t529.5 218.5t529.5 -219t220.5 -524t-220 -524t-530 -219q-311 0 -530.5 218t-219.5 525zM247 717q0 -250 173.5 -425t419.5 -175q245 0 419 176t174 424q0 247 -174 423.5t-419 176.5t-419 -176.5t-174 -423.5zM508 712q0 217 91 333.5 t260 116.5q275 0 313 -307l-170 -22q-21 192 -142 192q-162 0 -162 -319q0 -296 162 -296q67 0 98 47t45 135l168 -20q-43 -300 -316 -300q-160 0 -253.5 111.5t-93.5 328.5z" />
<glyph unicode="&#xab;" horiz-adv-x="842" d="M93 551l203 336h123l-113 -336l113 -336h-123zM423 551l203 345h123l-114 -345l114 -343h-123z" />
<glyph unicode="&#xad;" horiz-adv-x="622" d="M84 450v176h454v-176h-454z" />
<glyph unicode="&#xae;" horiz-adv-x="1680" d="M90 717q0 306 220.5 524.5t529.5 218.5t529.5 -219t220.5 -524t-220 -524t-530 -219q-311 0 -530.5 218t-219.5 525zM247 717q0 -250 173.5 -425t419.5 -175q245 0 419 176t174 424q0 247 -174 423.5t-419 176.5t-419 -176.5t-174 -423.5zM550 287v860h290 q308 0 308 -251q0 -155 -138 -224l178 -385h-196l-144 349h-117v-349h-181zM731 766h102q136 0 136 133q0 117 -135 117h-103v-250z" />
<glyph unicode="&#xb4;" horiz-adv-x="1075" d="M435 1268l337 295l113 -142l-371 -233z" />
<glyph unicode="&#xb8;" horiz-adv-x="1075" d="M363 -362l30 76q86 -38 157 -38q85 0 85 66q0 82 -128 82q-17 0 -64 -2l61 178h103l-35 -100h30q95 0 139 -46.5t44 -107.5q0 -74 -59 -124t-156 -50q-103 0 -207 66z" />
<glyph unicode="&#xbb;" horiz-adv-x="842" d="M93 208l114 343l-114 345h123l203 -345l-203 -343h-123zM423 208l114 343l-114 345h124l202 -345l-202 -343h-124z" />
<glyph unicode="&#x2c6;" horiz-adv-x="1075" d="M163 1210l375 288l376 -288l-187 -15l-189 128l-188 -128z" />
<glyph unicode="&#x2da;" horiz-adv-x="1075" d="M340 1366q0 84 59 142t139 58q79 0 138 -58t59 -142q0 -85 -61.5 -140.5t-135.5 -55.5t-136 55t-62 141zM447 1367q0 -40 28 -65.5t63 -25.5q34 0 62 25.5t28 64.5q0 40 -27 67.5t-63 27.5t-63.5 -27t-27.5 -67z" />
<glyph unicode="&#x2dc;" horiz-adv-x="1075" d="M213 1288q95 161 212 161q54 0 136 -47q77 -43 116 -43q51 0 96 78l89 -59q-93 -161 -214 -161q-56 0 -137 47q-73 42 -107 42q-51 0 -103 -78z" />
<glyph unicode="&#x401;" horiz-adv-x="989" d="M138 0v1433h821v-190h-584v-409h458v-191h-458v-449h593v-194h-830zM266 1694q0 46 34 77.5t81 31.5q45 0 79.5 -30t34.5 -79q0 -47 -35.5 -77t-78.5 -30q-42 0 -78.5 29.5t-36.5 77.5zM600 1694q0 45 34 77t81 32q46 0 80 -31.5t34 -77.5q0 -48 -35.5 -77.5t-78.5 -29.5 t-79 30t-36 77z" />
<glyph unicode="&#x402;" horiz-adv-x="1108" d="M-19 1243v190h861v-190h-430v-441q97 154 289 154q130 0 204.5 -57.5t102.5 -173.5t28 -409q0 -361 -48 -483.5t-135.5 -166t-232.5 -46.5v175q116 7 149.5 104.5t33.5 397.5q0 329 -42 411t-129 82q-89 0 -154.5 -76.5t-65.5 -249.5v-464h-237v1243h-194z" />
<glyph unicode="&#x403;" horiz-adv-x="807" d="M138 0v1433h695v-199h-459v-1234h-236zM292 1634l337 295l113 -142l-371 -233z" />
<glyph unicode="&#x404;" horiz-adv-x="1114" d="M90 711q0 346 129.5 547.5t396.5 201.5q356 0 447 -392l-214 -66q-39 261 -233 261q-261 0 -280 -431h423v-179h-426q12 -483 284 -483q105 0 159.5 73t79.5 217l215 -49q-80 -437 -463 -437q-262 0 -390 200.5t-128 536.5z" />
<glyph unicode="&#x405;" horiz-adv-x="1099" d="M50 375l212 60q56 -265 290 -265q115 0 174 59.5t59 146.5q0 64 -40.5 118.5t-203.5 116.5q-172 65 -248.5 110t-130 133.5t-53.5 200.5q0 171 119.5 288t316.5 117q350 0 446 -347l-202 -70q-36 113 -94.5 167t-158.5 54q-94 0 -145 -55t-51 -126q0 -79 57.5 -126 t228.5 -112q146 -55 224.5 -105.5t127.5 -135t49 -196.5q0 -180 -127.5 -307t-357.5 -127q-397 0 -492 401z" />
<glyph unicode="&#x406;" horiz-adv-x="512" d="M138 0v1433h237v-1433h-237z" />
<glyph unicode="&#x407;" horiz-adv-x="512" d="M-25 1694q0 46 34 77.5t81 31.5q45 0 79.5 -30t34.5 -79q0 -47 -35.5 -77t-78.5 -30q-42 0 -78.5 29.5t-36.5 77.5zM138 0v1433h237v-1433h-237zM309 1694q0 45 34 77t81 32q46 0 80 -31.5t34 -77.5q0 -48 -35.5 -77.5t-78.5 -29.5t-79 30t-36 77z" />
<glyph unicode="&#x408;" horiz-adv-x="659" d="M-35 0v196q74 -20 139 -20q77 0 116 28.5t54.5 87t15.5 250.5v891h237v-891q0 -222 -25 -330t-108 -173t-239 -65q-79 0 -190 26z" />
<glyph unicode="&#x409;" horiz-adv-x="1545" d="M-35 0l388 1433h292l115 -555h283q182 0 264.5 -42.5t134.5 -143.5t52 -252q0 -143 -49.5 -241t-135.5 -148.5t-220 -50.5h-397l-214 1191l-294 -1191h-219zM799 688l102 -488h171q81 0 135 56t54 188q0 134 -56.5 189t-132.5 55h-273z" />
<glyph unicode="&#x40a;" horiz-adv-x="1715" d="M138 0v1433h236v-577h396v577h236v-577h218q172 0 257 -43.5t134 -140t49 -240.5q0 -199 -101 -315.5t-293 -116.5h-500v666h-396v-666h-236zM1006 200h235q78 0 134 56.5t56 180.5q0 109 -50 169t-140 60h-235v-466z" />
<glyph unicode="&#x40b;" horiz-adv-x="1147" d="M-19 1243v190h865v-190h-434v-433q100 147 276 147q344 0 344 -463v-494h-236v505q0 271 -169 271q-73 0 -132.5 -50t-82.5 -143v-583h-237v1243h-194z" />
<glyph unicode="&#x40c;" horiz-adv-x="1099" d="M138 0v1433h237v-683l432 683h251l-369 -526l432 -907h-257l-320 711l-169 -241v-470h-237zM437 1634l337 295l113 -142l-371 -233z" />
<glyph unicode="&#x40e;" horiz-adv-x="916" d="M-22 1433h242l275 -729l237 729h214l-365 -1083q-69 -203 -142.5 -276.5t-218.5 -73.5h-97v205h97q30 0 73.5 20t83.5 137l18 53zM178 1825h147q33 -117 176 -117q140 0 173 117h148q-54 -256 -321 -256q-269 0 -323 256z" />
<glyph unicode="&#x40f;" horiz-adv-x="1163" d="M138 0v1433h236v-1233h416v1233h236v-1433h-345l-16 -306h-165l-18 306h-344z" />
<glyph unicode="&#x410;" horiz-adv-x="1062" d="M-8 0l414 1433h266l384 -1433h-240l-90 359h-419l-89 -359h-226zM354 546h324l-162 656z" />
<glyph unicode="&#x411;" horiz-adv-x="1124" d="M138 0v1433h759v-190h-523v-363h202q168 0 257 -38t147 -149t58 -268q0 -200 -104 -312.5t-298 -112.5h-498zM374 200h237q73 0 133.5 53.5t60.5 185.5q0 251 -216 251h-215v-490z" />
<glyph unicode="&#x412;" horiz-adv-x="1171" d="M138 0v1433h433q164 0 249 -26t144 -117t59 -221q0 -238 -213 -314q257 -81 257 -360q0 -159 -101.5 -277t-387.5 -118h-440zM370 190h191q262 0 262 232q0 90 -55.5 161.5t-226.5 71.5h-171v-465zM370 839h150q158 0 208.5 58.5t50.5 150.5q0 108 -57.5 155t-178.5 47 h-173v-411z" />
<glyph unicode="&#x413;" horiz-adv-x="807" d="M138 0v1433h695v-199h-459v-1234h-236z" />
<glyph unicode="&#x414;" horiz-adv-x="1148" d="M22 200h82l312 1233h348l283 -1233h81v-506h-165l-27 306h-723l-26 -306h-165v506zM317 200h483l-202 991h-57z" />
<glyph unicode="&#x415;" horiz-adv-x="989" d="M138 0v1433h821v-190h-584v-409h458v-191h-458v-449h593v-194h-830z" />
<glyph unicode="&#x416;" horiz-adv-x="1434" d="M-22 0l404 748l-373 685h246l330 -611l24 -11v622h219v-622l25 11l329 611h223l-349 -611l433 -822h-250l-361 681l-50 -24v-657h-219v657l-50 24l-359 -681h-222z" />
<glyph unicode="&#x417;" horiz-adv-x="1083" d="M51 403l215 41q45 -275 265 -275q107 0 162.5 72t55.5 176q0 121 -55.5 180.5t-137.5 59.5h-114v170h114q59 0 116.5 54.5t57.5 166.5q0 100 -58 158t-151 58q-192 0 -232 -236l-205 32q61 400 446 400q209 0 321 -109t112 -268q0 -230 -229 -322q264 -76 264 -338 q0 -191 -118.5 -320t-348.5 -129q-421 0 -480 429z" />
<glyph unicode="&#x418;" horiz-adv-x="1201" d="M138 0v1433h236v-804q0 -15 -8 -199q44 124 124 267l337 597v139h237v-1433h-237v743q0 11 8 247q-45 -123 -126 -268l-335 -595v-127h-236z" />
<glyph unicode="&#x419;" horiz-adv-x="1201" d="M138 0v1433h236v-804q0 -15 -8 -199q44 124 124 267l337 597v139h237v-1433h-237v743q0 11 8 247q-45 -123 -126 -268l-335 -595v-127h-236zM285 1825h147q33 -117 176 -117q140 0 173 117h148q-54 -256 -321 -256q-269 0 -323 256z" />
<glyph unicode="&#x41a;" horiz-adv-x="1099" d="M138 0v1433h237v-683l432 683h251l-369 -526l432 -907h-257l-320 711l-169 -241v-470h-237z" />
<glyph unicode="&#x41b;" horiz-adv-x="979" d="M-35 0l388 1433h292l368 -1433h-250l-285 1191l-294 -1191h-219z" />
<glyph unicode="&#x41c;" horiz-adv-x="1538" d="M132 0v1433h352l286 -1033l293 1033h337v-1433h-223v1223l-340 -1223h-172l-334 1224v-1224h-199z" />
<glyph unicode="&#x41d;" horiz-adv-x="1171" d="M138 0v1433h237v-594h422v594h237v-1433h-237v638h-422v-638h-237z" />
<glyph unicode="&#x41e;" horiz-adv-x="1209" d="M90 717q0 366 132.5 554.5t384.5 188.5q249 0 381 -187.5t132 -555.5q0 -367 -131 -555t-381 -188q-251 0 -384.5 187.5t-133.5 555.5zM339 717q0 -250 58 -399t211 -149q144 0 204 144.5t60 403.5q0 255 -59.5 401.5t-207.5 146.5t-207 -147t-59 -401z" />
<glyph unicode="&#x41f;" horiz-adv-x="1140" d="M138 0v1433h865v-1433h-238v1243h-391v-1243h-236z" />
<glyph unicode="&#x420;" horiz-adv-x="1062" d="M138 0v1433h354q171 0 277 -32t178.5 -141.5t72.5 -264.5q0 -141 -59 -243t-158 -147t-305 -45h-123v-560h-237zM375 750h117q158 0 218.5 58.5t60.5 191.5q0 98 -40 159.5t-88 76t-151 14.5h-117v-500z" />
<glyph unicode="&#x421;" horiz-adv-x="1135" d="M89 711q0 362 135.5 555.5t390.5 193.5q395 0 463 -490l-220 -32q-36 325 -242 325q-275 0 -275 -566q0 -527 275 -527q111 0 165 80.5t77 231.5l218 -30q-67 -478 -469 -478q-262 0 -390 200.5t-128 536.5z" />
<glyph unicode="&#x422;" horiz-adv-x="806" d="M-34 1232v201h875v-201h-320v-1232h-237v1232h-318z" />
<glyph unicode="&#x423;" horiz-adv-x="916" d="M-22 1433h242l275 -729l237 729h214l-365 -1083q-69 -203 -142.5 -276.5t-218.5 -73.5h-97v205h97q30 0 73.5 20t83.5 137l18 53z" />
<glyph unicode="&#x424;" horiz-adv-x="1358" d="M90 710q0 265 133.5 417.5t356.5 173.5v177h199v-177q236 -25 362.5 -180.5t126.5 -402.5q0 -509 -489 -584v-178h-199v178q-249 27 -369.5 185.5t-120.5 390.5zM323 710q0 -339 257 -403v822q-257 -61 -257 -419zM779 307q256 62 256 419q0 339 -256 403v-822z" />
<glyph unicode="&#x425;" horiz-adv-x="952" d="M-29 0l383 742l-337 691h263l206 -457l229 457h222l-332 -651l377 -782h-267l-244 549l-276 -549h-224z" />
<glyph unicode="&#x426;" horiz-adv-x="1177" d="M138 0v1433h236v-1233h416v1233h237v-1233h150v-506h-165l-28 306h-846z" />
<glyph unicode="&#x427;" horiz-adv-x="1107" d="M103 934v499h236v-511q0 -147 40 -203.5t123 -56.5q128 0 232 130v641h236v-1433h-236v602q-110 -135 -282 -135q-109 0 -190 52.5t-120 145.5t-39 269z" />
<glyph unicode="&#x428;" horiz-adv-x="1672" d="M138 0v1433h236v-1233h344v1233h236v-1233h345v1233h236v-1433h-1397z" />
<glyph unicode="&#x429;" horiz-adv-x="1686" d="M138 0v1433h236v-1233h344v1233h236v-1233h345v1233h236v-1233h151v-506h-165l-29 306h-1354z" />
<glyph unicode="&#x42a;" horiz-adv-x="1178" d="M-51 1234v199h529v-555h198q168 0 255 -38.5t142 -142.5t55 -255q0 -197 -99.5 -319.5t-306.5 -122.5h-480v1234h-293zM478 200h228q80 0 134 56.5t54 187.5q0 135 -56.5 189.5t-131.5 54.5h-228v-488z" />
<glyph unicode="&#x42b;" horiz-adv-x="1515" d="M138 0v1433h236v-555h199q162 0 250.5 -36.5t144.5 -143t56 -255.5q0 -198 -99.5 -320.5t-306.5 -122.5h-480zM374 200h229q81 0 134.5 56.5t53.5 187.5q0 134 -56.5 189t-131.5 55h-229v-488zM1140 0v1433h238v-1433h-238z" />
<glyph unicode="&#x42c;" horiz-adv-x="1075" d="M138 0v1433h236v-555h199q162 0 250.5 -36.5t144.5 -143t56 -255.5q0 -198 -99.5 -320.5t-306.5 -122.5h-480zM374 200h229q81 0 134.5 56.5t53.5 187.5q0 134 -56.5 189t-131.5 55h-229v-488z" />
<glyph unicode="&#x42d;" horiz-adv-x="1114" d="M43 411l216 49q26 -147 80 -218.5t156 -71.5q273 0 286 483h-426v179h423q-19 431 -280 431q-194 0 -233 -261l-214 66q91 392 448 392q269 0 397 -204.5t128 -537.5q0 -344 -129 -544t-389 -200q-383 0 -463 437z" />
<glyph unicode="&#x42e;" horiz-adv-x="1690" d="M138 0v1433h236v-586h202q50 613 512 613q251 0 381.5 -188.5t130.5 -554.5q0 -367 -131 -555t-381 -188q-488 0 -516 682h-198v-656h-236zM820 716q0 -254 59 -400.5t207 -146.5q149 0 207 146.5t58 400.5q0 175 -27.5 301.5t-85 186.5t-152.5 60q-148 0 -207 -145.5 t-59 -402.5z" />
<glyph unicode="&#x42f;" horiz-adv-x="1135" d="M57 0h257l224 598h222v-598h238v1433h-432q-234 0 -345.5 -106t-111.5 -304q0 -265 220 -375zM342 1025q0 225 234 225h184v-468h-181q-122 0 -179.5 67.5t-57.5 175.5z" />
<glyph unicode="&#x430;" horiz-adv-x="989" d="M76 280q0 174 119 274.5t413 100.5q15 0 46 -1v43q0 114 -34 171.5t-122 57.5q-144 0 -172 -166l-212 26q21 142 131 221t269 79q143 0 228.5 -57.5t108 -136t22.5 -238.5v-361q0 -219 18 -293h-206q-14 58 -14 176q-100 -202 -298 -202q-135 0 -216 82.5t-81 223.5z M304 297q0 -163 142 -163q83 0 145.5 88.5t62.5 242.5v52q-42 4 -64 4q-286 0 -286 -224z" />
<glyph unicode="&#x431;" horiz-adv-x="991" d="M78 576q0 735 366 832q97 25 123 45.5t33 73.5h218q-3 -71 -47 -127.5t-200 -96.5q-103 -26 -146.5 -53.5t-77 -94.5t-48.5 -179q98 111 239 111q178 0 277.5 -148.5t99.5 -405.5q0 -265 -109 -412t-308 -147q-137 0 -227.5 61.5t-141.5 186t-51 354.5zM294 521 q0 -194 53.5 -287.5t144.5 -93.5q89 0 139 95t50 287q0 399 -192 399q-195 0 -195 -400z" />
<glyph unicode="&#x432;" horiz-adv-x="987" d="M129 0v1060h478q159 0 217.5 -79.5t58.5 -180.5q0 -171 -188 -246q220 -64 220 -265q0 -128 -69.5 -208.5t-196.5 -80.5h-520zM349 166h212q138 0 138 162q0 163 -138 163h-212v-325zM349 607h197q133 0 133 149q0 85 -32 120.5t-101 35.5h-197v-305z" />
<glyph unicode="&#x433;" horiz-adv-x="688" d="M129 0v1060h560v-164h-340v-896h-220z" />
<glyph unicode="&#x434;" horiz-adv-x="970" d="M65 166h79l214 894h327l192 -894h79v-414h-146l-27 248h-546l-26 -248h-146v414zM336 166h322l-142 723h-30z" />
<glyph unicode="&#x435;" horiz-adv-x="952" d="M77 514q0 274 115.5 423t308.5 149q135 0 227.5 -74.5t130.5 -196t41 -317.5h-600q0 -216 58.5 -287.5t146.5 -71.5q147 0 186 198l199 -26q-78 -337 -392 -337q-192 0 -306.5 137.5t-114.5 402.5zM306 646h370q0 280 -182 280q-172 0 -188 -280z" />
<glyph unicode="&#x436;" horiz-adv-x="1178" d="M-26 0l304 563l-273 497h215l222 -414l46 -12v426h207v-426l46 12l222 414h204l-256 -426l313 -634h-225l-244 488l-60 -19v-469h-207v469l-61 19l-251 -488h-202z" />
<glyph unicode="&#x437;" horiz-adv-x="859" d="M43 279l197 39q40 -193 171 -193q71 0 108 53t37 130q0 64 -27.5 104.5t-66.5 50t-141 9.5v139q111 0 160 33t49 137q0 156 -118 156q-122 0 -153 -176l-195 40q24 128 115 207t243 79q164 0 252.5 -78.5t88.5 -207.5q0 -168 -176 -245q203 -67 203 -259q0 -143 -93 -233 t-264 -90q-187 0 -275 86t-115 219z" />
<glyph unicode="&#x438;" horiz-adv-x="1016" d="M129 0v1060h220v-459q0 -169 -8 -220q46 100 112 204l215 338v137h219v-1060h-219v434q0 175 7 219q-45 -113 -123 -233l-203 -312v-108h-220z" />
<glyph unicode="&#x439;" horiz-adv-x="1016" d="M129 0v1060h220v-459q0 -169 -8 -220q46 100 112 204l215 338v137h219v-1060h-219v434q0 175 7 219q-45 -113 -123 -233l-203 -312v-108h-220zM187 1451h147q33 -117 176 -117q140 0 173 117h148q-54 -256 -321 -256q-269 0 -323 256z" />
<glyph unicode="&#x43a;" horiz-adv-x="915" d="M129 0v1060h220v-474l342 474h216l-274 -366l305 -694h-237l-212 531l-140 -194v-337h-220z" />
<glyph unicode="&#x43b;" horiz-adv-x="769" d="M-26 0l294 1060h254l273 -1060h-230l-188 846l-207 -846h-196z" />
<glyph unicode="&#x43c;" horiz-adv-x="1310" d="M125 0v1060h319l223 -889l216 889h299v-1060h-199v866l-230 -866h-225l-226 866v-866h-177z" />
<glyph unicode="&#x43d;" horiz-adv-x="1013" d="M129 0v1060h220v-421h317v421h219v-1060h-219v475h-317v-475h-220z" />
<glyph unicode="&#x43e;" horiz-adv-x="989" d="M77 530q0 556 420 556q191 0 302.5 -135.5t111.5 -409.5q0 -567 -420 -567q-193 0 -303.5 137t-110.5 419zM310 530q0 -199 43 -294.5t142 -95.5q97 0 140.5 97t43.5 293q0 224 -49.5 307.5t-134.5 83.5q-185 0 -185 -391z" />
<glyph unicode="&#x43f;" horiz-adv-x="975" d="M129 0v1060h717v-1060h-219v912h-278v-912h-220z" />
<glyph unicode="&#x440;" horiz-adv-x="1025" d="M128 -359v1419h202v-174q83 192 262 192q161 0 259.5 -140t98.5 -399q0 -232 -89.5 -395t-278.5 -163q-152 0 -237 129v-469h-217zM345 443q0 -102 15.5 -159t62.5 -97.5t107 -40.5q187 0 187 393q0 380 -183 380q-80 0 -134.5 -78t-54.5 -221v-177z" />
<glyph unicode="&#x441;" horiz-adv-x="878" d="M77 527q0 273 106 416t308 143q327 0 373 -382l-211 -24q-16 139 -53.5 185.5t-107.5 46.5q-97 0 -141 -89.5t-44 -315.5q0 -353 185 -353q143 0 161 230l211 -19q-43 -391 -387 -391q-204 0 -302 147t-98 406z" />
<glyph unicode="&#x442;" horiz-adv-x="662" d="M-17 896v164h697v-164h-235v-896h-219v896h-243z" />
<glyph unicode="&#x443;" horiz-adv-x="769" d="M-1 1060h219l185 -728l190 728h198l-345 -1127q-38 -123 -69.5 -182t-89 -95t-148.5 -36q-55 0 -113 15v174q42 -7 77 -7q85 0 120.5 41t76.5 193z" />
<glyph unicode="&#x444;" horiz-adv-x="1218" d="M78 520q0 461 438 540v354h186v-354q438 -87 438 -537q0 -213 -111 -355t-327 -168v-358h-186v358q-217 26 -327.5 168.5t-110.5 351.5zM293 528q0 -321 223 -389v779q-223 -69 -223 -390zM702 139q223 68 223 389q0 322 -223 390v-779z" />
<glyph unicode="&#x445;" horiz-adv-x="769" d="M-37 0l308 550l-274 510h242l156 -308l161 308h204l-268 -479l313 -581h-243l-192 375l-200 -375h-207z" />
<glyph unicode="&#x446;" horiz-adv-x="996" d="M129 0v1060h220v-894h290v894h220v-894h133v-414h-147l-25 248h-691z" />
<glyph unicode="&#x447;" horiz-adv-x="932" d="M99 624v436h219v-402q0 -162 123 -162q85 0 143 54v510h219v-1060h-219v405q-83 -75 -214 -75q-111 0 -191 66t-80 228z" />
<glyph unicode="&#x448;" horiz-adv-x="1439" d="M129 0v1060h220v-894h261v894h220v-894h261v894h219v-1060h-1181z" />
<glyph unicode="&#x449;" horiz-adv-x="1447" d="M129 0v1060h220v-894h261v894h220v-894h261v894h219v-894h134v-414h-145l-25 248h-1145z" />
<glyph unicode="&#x44a;" horiz-adv-x="964" d="M-51 896v164h451v-405h231q135 0 213 -83.5t78 -244.5q0 -327 -306 -327h-435v896h-232zM400 166h178q130 0 130 167q0 174 -130 174h-178v-341z" />
<glyph unicode="&#x44b;" horiz-adv-x="1307" d="M129 0v1060h220v-405h231q159 0 224.5 -97.5t65.5 -230.5q0 -327 -305 -327h-436zM349 166h177q129 0 129 167q0 174 -129 174h-177v-341zM959 0v1060h219v-1060h-219z" />
<glyph unicode="&#x44c;" horiz-adv-x="913" d="M129 0v1060h220v-405h231q159 0 224.5 -97.5t65.5 -230.5q0 -327 -305 -327h-436zM349 166h177q129 0 129 167q0 174 -129 174h-177v-341z" />
<glyph unicode="&#x44d;" horiz-adv-x="884" d="M30 295l206 42q20 -183 156 -183q187 0 192 314h-335v149h333q-15 297 -188 297q-126 0 -155 -172l-206 38q67 307 359 307q206 0 310.5 -146t104.5 -410q0 -557 -403 -557q-317 0 -374 321z" />
<glyph unicode="&#x44e;" horiz-adv-x="1419" d="M129 0v1051h220v-419h176q39 455 402 455q205 0 310.5 -143.5t105.5 -402.5q0 -567 -414 -567q-381 0 -407 497h-173v-471h-220zM740 530q0 -196 43.5 -293t141.5 -97t141.5 96.5t43.5 293.5q0 198 -43.5 294.5t-141.5 96.5q-97 0 -141 -95.5t-44 -295.5z" />
<glyph unicode="&#x44f;" horiz-adv-x="932" d="M27 0l206 468q-159 75 -159 264q0 143 65 235.5t263 92.5h420v-1060h-219v423h-192l-161 -423h-223zM289 734q0 -71 32 -117t133 -46h149v341h-164q-79 0 -114.5 -42t-35.5 -136z" />
<glyph unicode="&#x451;" horiz-adv-x="952" d="M77 514q0 274 115.5 423t308.5 149q135 0 227.5 -74.5t130.5 -196t41 -317.5h-600q0 -216 58.5 -287.5t146.5 -71.5q147 0 186 198l199 -26q-78 -337 -392 -337q-192 0 -306.5 137.5t-114.5 402.5zM219 1328q0 46 34 77.5t81 31.5q45 0 79.5 -30t34.5 -79 q0 -47 -35.5 -77t-78.5 -30q-42 0 -78.5 29.5t-36.5 77.5zM306 646h370q0 280 -182 280q-172 0 -188 -280zM553 1328q0 45 34 77t81 32q46 0 80 -31.5t34 -77.5q0 -48 -35.5 -77.5t-78.5 -29.5t-79 30t-36 77z" />
<glyph unicode="&#x452;" horiz-adv-x="979" d="M-25 1199v133h154v125h220v-125h345v-133h-345v-303q90 144 252 144q109 0 176.5 -68.5t86 -196.5t18.5 -462q0 -347 -28.5 -454t-103.5 -163t-175 -56q-14 0 -44 2l-15 148q49 0 91.5 39.5t56.5 130t14 327.5q0 377 -26 474t-116 97q-81 0 -134 -80t-53 -238v-540h-220 v1199h-154z" />
<glyph unicode="&#x453;" horiz-adv-x="688" d="M129 0v1060h560v-164h-340v-896h-220zM242 1268l337 295l113 -142l-371 -233z" />
<glyph unicode="&#x454;" horiz-adv-x="884" d="M78 527q0 273 106 416.5t308 143.5q293 0 361 -307l-208 -38q-28 172 -154 172q-172 0 -188 -297h333v-149h-336q6 -314 194 -314q134 0 155 183l205 -42q-59 -321 -371 -321q-405 0 -405 553z" />
<glyph unicode="&#x455;" horiz-adv-x="843" d="M36 282l186 35q35 -183 202 -183q85 0 126.5 42t41.5 100q0 40 -28 79.5t-159 81.5q-125 40 -188.5 74.5t-104.5 100t-41 148.5q0 136 99 231t255 95q266 0 343 -273l-172 -47q-47 160 -179 160q-61 0 -98.5 -38t-37.5 -93q0 -63 38 -92.5t173 -73.5 q167 -56 240.5 -125.5t73.5 -194.5q0 -141 -105 -238t-283 -97q-337 0 -382 308z" />
<glyph unicode="&#x456;" horiz-adv-x="476" d="M124 1203v232h229v-232h-229zM129 0v1060h219v-1060h-219z" />
<glyph unicode="&#x457;" horiz-adv-x="476" d="M-43 1328q0 46 34 77.5t81 31.5q45 0 79.5 -30t34.5 -79q0 -47 -35.5 -77t-78.5 -30q-42 0 -78.5 29.5t-36.5 77.5zM129 0v1060h219v-1060h-219zM291 1328q0 45 34 77t81 32q46 0 80 -31.5t34 -77.5q0 -48 -35.5 -77.5t-78.5 -29.5t-79 30t-36 77z" />
<glyph unicode="&#x458;" horiz-adv-x="476" d="M-55 -184q42 -10 79 -10q73 0 91 41t18 194v1019h219v-1022q0 -163 -16 -240.5t-79.5 -128t-176.5 -50.5q-61 0 -135 16v181zM128 1203v232h230v-232h-230z" />
<glyph unicode="&#x459;" horiz-adv-x="1274" d="M0 0l323 1060h253l83 -405h310q161 0 226.5 -98t65.5 -230q0 -327 -305 -327h-386l-138 846l-236 -846h-196zM690 507l69 -341h157q130 0 130 167q0 174 -130 174h-226z" />
<glyph unicode="&#x45a;" horiz-adv-x="1434" d="M129 0v1060h220v-425h301v425h219v-425h231q137 0 214 -79t77 -229q0 -327 -305 -327h-436v486h-301v-486h-220zM869 166h178q129 0 129 162q0 158 -129 158h-178v-320z" />
<glyph unicode="&#x45b;" horiz-adv-x="983" d="M-26 1199v133h154v131h220v-131h339v-133h-339v-313q86 152 252 152q108 0 171 -47.5t88.5 -129.5t25.5 -239v-622h-219v598q0 145 -29 202.5t-97 57.5q-78 0 -135 -83t-57 -235v-540h-220v1199h-154z" />
<glyph unicode="&#x45c;" horiz-adv-x="915" d="M129 0v1060h220v-474l342 474h216l-274 -366l305 -694h-237l-212 531l-140 -194v-337h-220zM356 1268l337 295l113 -142l-371 -233z" />
<glyph unicode="&#x45e;" horiz-adv-x="769" d="M-1 1060h219l185 -728l190 728h198l-345 -1127q-38 -123 -69.5 -182t-89 -95t-148.5 -36q-55 0 -113 15v174q42 -7 77 -7q85 0 120.5 41t76.5 193zM91 1451h147q33 -117 176 -117q140 0 173 117h148q-54 -256 -321 -256q-269 0 -323 256z" />
<glyph unicode="&#x45f;" horiz-adv-x="988" d="M129 0v1060h220v-894h290v894h220v-1060h-273l-19 -248h-146l-19 248h-273z" />
<glyph unicode="&#x490;" horiz-adv-x="807" d="M138 0v1433h508v269h187v-468h-459v-1234h-236z" />
<glyph unicode="&#x491;" horiz-adv-x="688" d="M129 0v1060h382v230h178v-394h-340v-896h-220z" />
<glyph unicode="&#x2000;" horiz-adv-x="964" />
<glyph unicode="&#x2001;" horiz-adv-x="1929" />
<glyph unicode="&#x2002;" horiz-adv-x="964" />
<glyph unicode="&#x2003;" horiz-adv-x="1929" />
<glyph unicode="&#x2004;" horiz-adv-x="643" />
<glyph unicode="&#x2005;" horiz-adv-x="482" />
<glyph unicode="&#x2006;" horiz-adv-x="321" />
<glyph unicode="&#x2007;" horiz-adv-x="321" />
<glyph unicode="&#x2008;" horiz-adv-x="241" />
<glyph unicode="&#x2009;" horiz-adv-x="385" />
<glyph unicode="&#x200a;" horiz-adv-x="107" />
<glyph unicode="&#x2010;" horiz-adv-x="622" d="M84 450v176h454v-176h-454z" />
<glyph unicode="&#x2011;" horiz-adv-x="622" d="M84 450v176h454v-176h-454z" />
<glyph unicode="&#x2012;" horiz-adv-x="622" d="M84 450v176h454v-176h-454z" />
<glyph unicode="&#x2013;" d="M178 454v169h742v-169h-742z" />
<glyph unicode="&#x2014;" horiz-adv-x="1355" d="M66 454v169h1223v-169h-1223z" />
<glyph unicode="&#x2018;" horiz-adv-x="475" d="M113 929v261l145 268h105l-123 -262h102v-267h-229z" />
<glyph unicode="&#x2019;" horiz-adv-x="475" d="M113 905l123 262h-102v266h229v-259l-146 -269h-104z" />
<glyph unicode="&#x201a;" horiz-adv-x="476" d="M113 -261l123 261h-102v267h229v-261l-146 -267h-104z" />
<glyph unicode="&#x201c;" horiz-adv-x="806" d="M117 929v261l144 268h105l-122 -262h101v-267h-228zM439 929v261l145 268h104l-122 -262h101v-267h-228z" />
<glyph unicode="&#x201d;" horiz-adv-x="806" d="M117 905l122 262h-101v266h228v-259l-146 -269h-103zM439 905l123 262h-102v266h228v-259l-145 -269h-104z" />
<glyph unicode="&#x201e;" horiz-adv-x="806" d="M117 -261l122 261h-101v267h228v-261l-146 -267h-103zM439 -261l123 261h-102v267h228v-261l-145 -267h-104z" />
<glyph unicode="&#x2022;" horiz-adv-x="1433" d="M421 731q0 124 86.5 212t209.5 88q122 0 208.5 -88t86.5 -212q0 -123 -86.5 -212t-208.5 -89q-125 0 -210.5 89t-85.5 212z" />
<glyph unicode="&#x2026;" horiz-adv-x="1539" d="M136 0v271h240v-271h-240zM650 0v271h239v-271h-239zM1163 0v271h240v-271h-240z" />
<glyph unicode="&#x202f;" horiz-adv-x="385" />
<glyph unicode="&#x2039;" horiz-adv-x="512" d="M93 551l203 345h123l-113 -345l113 -343h-123z" />
<glyph unicode="&#x203a;" horiz-adv-x="512" d="M93 208l114 343l-114 345h123l203 -345l-203 -343h-123z" />
<glyph unicode="&#x205f;" horiz-adv-x="482" />
<glyph unicode="&#x20ac;" d="M21 511v129h98q-2 23 -2 72q0 40 2 58h-98v129h106q70 562 493 562q179 0 293.5 -107t137.5 -300l-232 -30q-27 260 -199 260q-207 0 -244 -385h278v-129h-284l-2 -73q0 -41 2 -57h284v-129h-278q32 -361 239 -361q81 0 134 75.5t66 197.5l236 -29q-57 -420 -436 -420 q-420 0 -488 537h-106z" />
<glyph unicode="&#x2122;" horiz-adv-x="1538" d="M33 1263v127h525v-127h-184v-690h-160v690h-181zM622 573v817h234l151 -587l159 587h228v-817h-149v687l-186 -687h-127l-177 688v-688h-133z" />
<glyph unicode="&#x25fc;" horiz-adv-x="1060" d="M0 0v1060h1060v-1060h-1060z" />
</font>
</defs>
</svg>
